<?xml version="1.0" standalone="no"?>
<!DOCTYPE svg PUBLIC "-//W3C//DTD SVG 1.1//EN" "http://www.w3.org/Graphics/SVG/1.1/DTD/svg11.dtd" >
<svg xmlns="http://www.w3.org/2000/svg">
<metadata>
Created by FontPrep 20130207 at Wed Sep  4 20:36:30 2013
 By Hendricks
Copyright  2004, Joshua Darden &#38; Phil's Fonts, Inc. All rights reserved. Published by Garagefonts USA 301-260-2285 www.garagefonts.com
</metadata>
<defs>
<font id="40af441240f587ed443908cde68fd8a3" horiz-adv-x='1024' >
  <font-face 
    font-family="FreightSansBookItalic"
    font-weight="400"
    font-style="italic"
    font-stretch="normal"
    units-per-em="2048"
    panose-1="2 0 6 6 4 0 0 9 0 4"
    ascent="1638"
    descent="-410"
    x-height="938"
    cap-height="1280"
    bbox="-233 -522 2249 1776"
    underline-thickness="40"
    underline-position="-231"
    slope="-12"
    unicode-range="U+0020-FB04"
  />
<missing-glyph horiz-adv-x="1024" 
 />
    <glyph glyph-name=".notdef" horiz-adv-x="1024" 
 />
    <glyph glyph-name=".null" horiz-adv-x="0" 
 />
    <glyph glyph-name="nonmarkingreturn" horiz-adv-x="284" 
 />
    <glyph glyph-name="space" unicode=" " horiz-adv-x="284" 
 />
    <glyph glyph-name="exclam" unicode="!" horiz-adv-x="530" 
d="M295 80q0 -41 -27.5 -74t-73.5 -33t-75 33t-29 74t29 71.5t75 30.5t73.5 -30.5t27.5 -71.5zM358 1329l154 -16l-223 -934l-74 6z" />
    <glyph glyph-name="quotedbl" unicode="&#x22;" horiz-adv-x="620" 
d="M55 815l359 508l116 -59l-401 -449h-74zM358 815l361 508l117 -59l-402 -449h-76z" />
    <glyph glyph-name="numbersign" unicode="#" horiz-adv-x="1153" 
d="M696 434q2 0 25.5 51t55.5 117t73 156h-358l-154 -324h358zM145 758v94h287l10 19q13 25 46.5 97t68.5 144t94 203h105q-61 -129 -96 -202t-64 -136t-51 -106l-10 -19h360l219 463h103l-220 -463h166l-2 -94h-209l-153 -324h241l-2 -94h-284l-232 -492h-102l231 492h-358
l-232 -492h-102l231 492h-167v94h213l153 324h-244z" />
    <glyph glyph-name="dollar" unicode="$" horiz-adv-x="1007" 
d="M588 1188q-114 0 -194.5 -62.5t-80.5 -155.5q0 -94 57.5 -144t153.5 -97l152 453q-39 6 -88 6zM476 -27q-75 0 -124 9l-78 -234h-88l84 250q-145 37 -247 106l32 127q119 -81 252 -118l8 21q8 22 19.5 56.5l26.5 79.5t41 124t73 218q-140 64 -215.5 139t-75.5 177
q0 182 125.5 279.5t300.5 97.5q57 0 105 -9l65 199h88l-71 -215q119 -31 209 -88l-33 -125q-98 66 -215 96l-158 -465q150 -71 225.5 -148.5t75.5 -201.5q0 -167 -94 -245t-175 -104t-156 -26zM465 90q135 0 222 65t87 165t-59.5 156t-161.5 104l-162 -484q37 -6 74 -6z" />
    <glyph glyph-name="percent" unicode="%" horiz-adv-x="1521" 
d="M1316.5 483q-67.5 60 -174.5 60t-187.5 -83.5t-80.5 -193.5t67 -169.5t177 -59.5t188 83.5t78 192.5q0 110 -67.5 170zM655.5 1175.5q-65.5 61.5 -174.5 61.5t-189.5 -82.5t-80.5 -193.5t66.5 -170.5t175.5 -59.5t188.5 81.5t79.5 191.5t-65.5 171.5zM1368 61.5
q-109 -110.5 -256 -110.5q-146 0 -237 81.5t-91 229.5t108.5 258.5t256.5 110.5t238 -84t90 -229q0 -146 -109 -256.5zM209 -31h-119l1294 1340h117zM702.5 754q-110.5 -109 -255.5 -109q-146 0 -237 82.5t-91 230.5q0 147 109 258t256 111t238 -83t91 -232t-110.5 -258z
" />
    <glyph glyph-name="ampersand" unicode="&#x26;" horiz-adv-x="1277" 
d="M387 -27q-150 0 -254 95t-104 244t110.5 246.5t276.5 143.5q-160 104 -160 252t111 251.5t260 103.5t243.5 -82t94.5 -207t-94 -211t-234 -127q145 -92 244 -264l282 354h156l-383 -432l207 -344l-139 -23l-156 273q-241 -273 -461 -273zM160 332q0 -111 71.5 -178.5
t174.5 -67.5q148 0 252 99.5t143 142.5q-133 222 -314 323q-225 -72 -276 -167t-51 -152zM838 1023q0 71 -60.5 125t-155.5 54t-166 -66.5t-71 -150.5t49 -141.5t129 -110.5q123 43 175.5 87t76 88t23.5 115z" />
    <glyph glyph-name="quotesingle" unicode="'" horiz-adv-x="333" 
d="M57 815l361 508l112 -59l-401 -449h-72z" />
    <glyph glyph-name="parenleft" unicode="(" horiz-adv-x="716" 
d="M139 462.5q0 186.5 54.5 343.5t137.5 278.5t180 207.5t183 129l56 -90q-186 -100 -341 -335.5t-155 -533t154.5 -531.5t341.5 -334l-56 -91q-86 43 -183 128t-180 207t-137.5 278.5t-54.5 343z" />
    <glyph glyph-name="parenright" unicode=")" horiz-adv-x="716" 
d="M461 463q0 162 -47 301t-119 251.5t-160 192.5t-168 123l58 90q86 -43 183 -129t179 -207.5t136.5 -278.5t54.5 -343.5t-54.5 -343t-136.5 -278.5t-180 -207t-184 -128l-56 91q80 43 168 122.5t160 191.5t119 251t47 301z" />
    <glyph glyph-name="asterisk" unicode="*" horiz-adv-x="694" 
d="M164 768l-62 121l297 90l2 10l-235 197l96 92l176 -260h6l117 287l115 -64l-191 -246l4 -6l299 -14l-24 -131l-283 100l-8 -6l84 -301l-131 -12l2 309l-6 4z" />
    <glyph glyph-name="plus" unicode="+" horiz-adv-x="995" 
d="M557 426v-369h-113v369h-360l6 111h354v364h113v-364h350l6 -111h-356z" />
    <glyph glyph-name="comma" unicode="," horiz-adv-x="382" 
d="M111 9q0 48 -107 97q10 37 42 63t82 26t87 -43t37 -126.5t-98.5 -180t-227.5 -158.5l-45 57q153 86 191.5 151.5t38.5 113.5z" />
    <glyph glyph-name="hyphen" unicode="-" horiz-adv-x="598" 
d="M74 438v119h463v-119h-463z" />
    <glyph glyph-name="period" unicode="." horiz-adv-x="382" 
d="M221 80q0 -41 -27.5 -74t-73.5 -33t-75 33t-29 74t29 71.5t75 30.5t73.5 -30.5t27.5 -71.5z" />
    <glyph glyph-name="slash" unicode="/" horiz-adv-x="423" 
d="M-135 -408h-98l854 1846h98z" />
    <glyph glyph-name="zero" unicode="0" horiz-adv-x="1183" 
d="M971 532q0 156 -96.5 249t-257.5 93q-162 0 -279 -133.5t-117 -298.5t94.5 -257.5t257.5 -92.5t249.5 98.5t117.5 179.5t31 162zM1100 540q0 -108 -42 -212.5t-160 -229.5t-332 -125t-344 124t-130 338q0 215 158.5 386.5t388.5 171.5q198 0 329.5 -125t131.5 -328z" />
    <glyph glyph-name="one" unicode="1" horiz-adv-x="667" 
d="M410 850l-256 -51l16 112l393 84l-194 -995h-127z" />
    <glyph glyph-name="two" unicode="2" horiz-adv-x="901" 
d="M178 899q165 94 316 94t245.5 -74.5t94.5 -201.5q0 -154 -154.5 -279.5t-476.5 -316.5h561l-21 -121h-741l25 139q127 76 247.5 147.5t272 182t151.5 229.5q0 84 -58 132.5t-151 48.5q-134 0 -286 -91z" />
    <glyph glyph-name="three" unicode="3" horiz-adv-x="878" 
d="M119 893q164 100 323 100t269 -74t110 -214.5t-106 -237.5t-248 -131q117 -20 193.5 -99t76.5 -185q0 -192 -139 -308.5t-326 -116.5q-143 0 -240.5 44t-129.5 71l51 113q161 -113 310 -113t244 78.5t95 204.5t-94 184.5t-215 58.5q-48 0 -123 -12l23 109
q308 37 398.5 137t90.5 168q0 113 -73 160t-167 47q-140 0 -297 -93z" />
    <glyph glyph-name="four" unicode="4" horiz-adv-x="1026" 
d="M756 803l-621 -653h492zM729 31l-82 -408h-127l82 408h-625l-14 96l840 872h117l-168 -849h200l-18 -119h-205z" />
    <glyph glyph-name="five" unicode="5" horiz-adv-x="847" 
d="M322 440q65 0 142 -21.5t135 -67.5t93 -115.5t35 -212.5t-139.5 -271.5t-331.5 -128.5q-94 0 -193.5 30t-166.5 83l45 117q162 -115 309 -115q146 0 245 89.5t99 224.5t-89 207.5t-211 72.5t-200 -17l-28 37l200 617h611l-19 -123h-510l-137 -414q46 8 111 8z" />
    <glyph glyph-name="six" unicode="6" horiz-adv-x="1044" 
d="M221 419q0 -145 82.5 -236t218.5 -91t224 99t88 226t-75.5 197t-177.5 70q-179 0 -339 -123q-21 -69 -21 -142zM266 670q178 123 336 123q157 0 260 -99t103 -256q0 -196 -132.5 -328.5t-321.5 -132.5t-305 125t-116 310q0 350 259.5 601.5t645.5 307.5l11 -125
q-377 -54 -535 -229.5t-207 -292.5z" />
    <glyph glyph-name="seven" unicode="7" horiz-adv-x="899" 
d="M938 969v-105l-875 -1241h-137l862 1221h-675l30 125h795z" />
    <glyph glyph-name="eight" unicode="8" horiz-adv-x="1003" 
d="M887 322q0 -145 -117.5 -247t-294.5 -102q-178 0 -293.5 89t-115.5 234t101 239.5t245 119.5q-203 120 -203 293q0 142 113.5 244t288.5 102t276.5 -89t101.5 -229t-91 -229t-220 -124q209 -117 209 -301zM195 311q0 -104 79.5 -164.5t205.5 -60.5t202 63.5t76 165.5
q0 131 -107.5 197.5t-154.5 91.5q-209 -46 -255 -140.5t-46 -152.5zM862 958q0 101 -70.5 163.5t-184.5 62.5q-113 0 -191 -67t-78 -161q0 -126 106.5 -189.5t151.5 -88.5q180 48 223 137t43 143z" />
    <glyph glyph-name="nine" unicode="9" horiz-adv-x="1044" 
d="M844 555q0 137 -81 230.5t-217 93.5t-224.5 -98.5t-88.5 -226.5q0 -127 75.5 -197t176.5 -70q186 0 340 121q19 79 19 147zM102 532q0 196 130.5 328.5t322 132.5t306 -126t114.5 -310t-72 -336.5t-194.5 -270.5t-286.5 -196t-350 -104l-11 125q378 54 534.5 228.5
t205.5 291.5l-2 4q-181 -123 -338 -123t-258 99t-101 257z" />
    <glyph glyph-name="colon" unicode=":" horiz-adv-x="382" 
d="M221 80q0 -41 -27.5 -74t-73.5 -33t-75 33t-29 74t29 71.5t75 30.5t73.5 -30.5t27.5 -71.5zM346 732q0 -42 -28.5 -73.5t-73.5 -31.5t-74 31.5t-29 73.5t29 72t74 30t73.5 -30t28.5 -72z" />
    <glyph glyph-name="semicolon" unicode=";" horiz-adv-x="382" 
d="M111 9q0 48 -107 97q10 37 42 63t82 26t87 -43t37 -126.5t-98.5 -180t-227.5 -158.5l-45 57q153 86 191.5 151.5t38.5 113.5zM346 732q0 -42 -28.5 -73.5t-73.5 -31.5t-74 31.5t-29 73.5t29 72t74 30t73.5 -30t28.5 -72z" />
    <glyph glyph-name="less" unicode="&#x3c;" horiz-adv-x="933" 
d="M852 37l-782 389v111l780 391v-125l-637 -311v-21l639 -311v-123z" />
    <glyph glyph-name="equal" unicode="=" horiz-adv-x="913" 
d="M72 244l8 112h758l8 -112h-774zM80 604l-8 113h774l-8 -113h-758z" />
    <glyph glyph-name="greater" unicode="&#x3e;" horiz-adv-x="933" 
d="M78 37v123l639 311v21l-637 311v125l780 -391v-111z" />
    <glyph glyph-name="question" unicode="?" horiz-adv-x="714" 
d="M336 80q0 -41 -29 -74t-75 -33t-74.5 33t-28.5 74t28.5 71.5t74.5 30.5t75 -30.5t29 -71.5zM176 567q0 124 95.5 166.5t144.5 58.5q114 39 165.5 77.5t51.5 102.5q0 109 -87.5 163.5t-193.5 54.5q-38 0 -104 -6l22 119q41 6 109 6q146 0 254 -89t108 -227
q0 -185 -110.5 -233.5t-184.5 -72.5t-122 -52.5t-48 -78.5t29 -90t64 -77l-37 -8q-28 -8 -37 -8q-119 89 -119 194z" />
    <glyph glyph-name="at" unicode="@" horiz-adv-x="1701" 
d="M578 476q0 -126 57 -195.5t156 -69.5t192 104l88 433q-78 83 -198 83t-207.5 -114.5t-87.5 -240.5zM803 -182q129 0 266 41l18 -68q-137 -43 -285 -43t-280.5 57.5t-283 216.5t-150.5 474q0 166 61.5 312t167 256t250 173t302.5 63t292.5 -47t237 -134t163 -212
t60.5 -267q0 -257 -114 -399.5t-271 -142.5q-86 0 -146.5 43t-84.5 109q-111 -135 -247 -135q-135 0 -215.5 97.5t-80.5 238.5q0 194 126.5 333.5t301.5 139.5q101 0 203 -62l118 53l-100 -491q-23 -113 13 -174.5t126 -61.5q119 0 206 117t87 322q0 267 -200.5 436.5
t-466.5 169.5q-150 0 -279 -59.5t-225.5 -161t-151.5 -234.5t-55 -277t48 -268t134 -216.5t206 -145.5t249 -53z" />
    <glyph glyph-name="A" unicode="A" horiz-adv-x="1185" 
d="M737 1145l-389 -670h504zM1065 0h-131l-62 356h-593l-205 -356h-144l754 1278h152z" />
    <glyph glyph-name="B" unicode="B" horiz-adv-x="1099" 
d="M860 354q0 102 -77.5 166t-223.5 64h-242l-90 -463h287q182 0 264 65.5t82 167.5zM934 958q0 74 -65.5 137.5t-211.5 63.5h-227l-88 -461h233q154 0 256.5 64.5t102.5 195.5zM995 372q0 -169 -126.5 -270.5t-376.5 -101.5h-418l248 1280h360q189 0 288 -88.5t99 -219.5
q0 -130 -80.5 -215t-230.5 -120q113 -29 175 -104t62 -161z" />
    <glyph glyph-name="C" unicode="C" horiz-adv-x="1196" 
d="M1051 55q-163 -82 -381 -82q-106 0 -214 40t-227.5 155.5t-119.5 372.5q0 319 145 480t279.5 222.5t313.5 61.5t382 -80l-25 -125q-189 88 -352 88q-164 0 -271.5 -52.5t-223 -185.5t-115.5 -397q0 -218 125 -339.5t335 -121.5q166 0 322 80z" />
    <glyph glyph-name="D" unicode="D" horiz-adv-x="1282" 
d="M1071 717q0 217 -133 328.5t-360 113.5h-148l-201 -1038h228q267 0 440.5 155.5t173.5 440.5zM1208 722q0 -142 -48 -273.5t-200 -290t-528 -158.5h-358l248 1280h276q264 0 437 -145t173 -413z" />
    <glyph glyph-name="E" unicode="E" horiz-adv-x="1038" 
d="M74 0l250 1280h772l-23 -121h-643l-88 -459h537l-25 -118h-535l-90 -461h641l-22 -121h-774z" />
    <glyph glyph-name="F" unicode="F" horiz-adv-x="983" 
d="M322 1280h753l-22 -123h-623l-92 -477h516l-25 -119h-516l-108 -561h-131z" />
    <glyph glyph-name="G" unicode="G" horiz-adv-x="1271" 
d="M852 1188q-291 0 -450.5 -186t-159.5 -449q0 -218 126 -340.5t337 -122.5q118 0 253 55l74 373h-340l25 119h469l-111 -571q-191 -93 -383 -93q-261 0 -422 155.5t-161 412.5q0 321 144 481t278.5 221.5t314.5 61.5t383 -80l-25 -125q-188 88 -352 88z" />
    <glyph glyph-name="H" unicode="H" horiz-adv-x="1331" 
d="M944 0l115 584h-742l-112 -584h-131l248 1280h131l-111 -578h739l111 578h131l-248 -1280h-131z" />
    <glyph glyph-name="I" unicode="I" horiz-adv-x="466" 
d="M76 0l248 1280h131l-250 -1280h-129z" />
    <glyph glyph-name="J" unicode="J" horiz-adv-x="835" 
d="M258 92q135 0 200.5 75t92.5 206l176 907h129l-180 -930q-51 -267 -184.5 -322t-223.5 -55t-177 32t-146 81l47 119q131 -113 266 -113z" />
    <glyph glyph-name="K" unicode="K" horiz-adv-x="1073" 
d="M336 666l708 614h170l-755 -641l510 -639h-156l-487 612h-2l-119 -612h-131l248 1280h131l-119 -614h2z" />
    <glyph glyph-name="L" unicode="L" horiz-adv-x="978" 
d="M74 0l250 1280h131l-226 -1157h633l-24 -123h-764z" />
    <glyph glyph-name="M" unicode="M" horiz-adv-x="1554" 
d="M1399 1116l-635 -1108h-148l-200 1102l-248 -1110h-137l297 1280h176l211 -1128l647 1128h186l-209 -1280h-133z" />
    <glyph glyph-name="N" unicode="N" horiz-adv-x="1320" 
d="M1192 1280h127l-248 -1292h-153l-506 1134l-211 -1122h-127l245 1280h160l502 -1122z" />
    <glyph glyph-name="O" unicode="O" horiz-adv-x="1439" 
d="M1270 702q0 217 -129 352.5t-334 135.5q-244 0 -362.5 -138.5t-158.5 -250t-40 -221.5q0 -215 128.5 -352.5t334.5 -137.5q241 0 361 139.5t160 251t40 221.5zM1403 710q0 -138 -53.5 -272.5t-148.5 -238t-224 -165t-269 -61.5q-266 0 -430.5 165.5t-164.5 426.5
q0 147 53 281.5t147.5 237t225.5 163t271 60.5t245.5 -43t183.5 -121t121 -186.5t43 -246.5z" />
    <glyph glyph-name="P" unicode="P" horiz-adv-x="1062" 
d="M936 883q0 127 -83 201.5t-243 74.5h-180l-117 -588l203 -2q211 0 315.5 93.5t104.5 220.5zM1071 903q0 -87 -37 -174.5t-149 -182.5t-385 -95h-207l-90 -451h-129l248 1280h309q212 0 326 -105.5t114 -271.5z" />
    <glyph glyph-name="Q" unicode="Q" horiz-adv-x="1439" 
d="M1270 702q0 217 -129 352.5t-334 135.5q-244 0 -362.5 -138.5t-158.5 -250t-40 -221.5q0 -215 128.5 -352.5t334.5 -137.5q241 0 361 139.5t160 251t40 221.5zM696 -27q-253 0 -418 166.5t-165 425.5q0 147 53 281.5t147.5 236t225.5 162t271 60.5q264 0 428.5 -162.5
t164.5 -413.5t-139 -449t-361 -272l371 -248l-78 -106l-459 323q-20 -4 -41 -4z" />
    <glyph glyph-name="R" unicode="R" horiz-adv-x="1093" 
d="M922 918q0 111 -78 177t-236 66h-178l-106 -534l204 4q267 7 330.5 110t63.5 177zM618 1280q212 0 325.5 -99t113.5 -255t-109 -257t-264 -128l234 -541h-146l-217 526l-252 -16l-98 -510h-131l248 1280h296z" />
    <glyph glyph-name="S" unicode="S" horiz-adv-x="1005" 
d="M973 1067q-179 121 -380 121q-116 0 -198 -62t-82 -161t75.5 -153t169.5 -95q178 -77 260.5 -158t82.5 -211q0 -167 -125.5 -271t-316.5 -104q-123 0 -238 38t-198 93l32 127q88 -59 197 -100t195 -41q149 0 238 67t89 184q0 118 -108.5 177.5t-211 104t-186.5 122
t-84 197.5q0 169 125.5 266t300.5 97q113 0 217.5 -33t178.5 -80z" />
    <glyph glyph-name="T" unicode="T" horiz-adv-x="1112" 
d="M762 1157l-225 -1157h-129l225 1157h-453l25 123h1030l-23 -123h-450z" />
    <glyph glyph-name="U" unicode="U" horiz-adv-x="1232" 
d="M125 352q0 73 20 183l148 745h129l-146 -750q-20 -97 -20 -153q0 -135 88 -209t247 -74t251 98.5t125 260.5l161 827h129l-161 -842q-41 -215 -168 -340t-337 -125t-338 101t-128 278z" />
    <glyph glyph-name="V" unicode="V" horiz-adv-x="1146" 
d="M555 2h-149l-224 1278h133l191 -1143l647 1143h141z" />
    <glyph glyph-name="W" unicode="W" horiz-adv-x="1851" 
d="M494 0h-127l-117 1280h135l84 -1092l539 1092h155l119 -1092l498 1092h137l-606 -1280h-127l-125 1120z" />
    <glyph glyph-name="X" unicode="X" horiz-adv-x="1150" 
d="M98 0h-161l602 657l-330 623h147l271 -537l469 537h161l-573 -631l348 -649h-147l-289 567z" />
    <glyph glyph-name="Y" unicode="Y" horiz-adv-x="1073" 
d="M610 510l-100 -510h-127l100 518l-299 762h140l245 -643l482 643h153z" />
    <glyph glyph-name="Z" unicode="Z" horiz-adv-x="1044" 
d="M-41 0l21 96l954 1063h-727l22 121h899l-18 -98l-952 -1061h745l-22 -121h-922z" />
    <glyph glyph-name="bracketleft" unicode="[" horiz-adv-x="792" 
d="M201 -455v1837h532v-104h-416v-1628h416v-105h-532z" />
    <glyph glyph-name="backslash" unicode="\" horiz-adv-x="423" 
d="M260 1438l137 -1846h-94l-139 1846h96z" />
    <glyph glyph-name="bracketright" unicode="]" horiz-adv-x="792" 
d="M61 -350h416v1628h-416v104h531v-1837h-531v105z" />
    <glyph glyph-name="asciicircum" unicode="^" horiz-adv-x="772" 
d="M725 1061l-137 276h-4l-242 -276h-119l305 373h144l159 -373h-106z" />
    <glyph glyph-name="underscore" unicode="_" horiz-adv-x="911" 
d="M-70 -115v115h955v-115h-955z" />
    <glyph glyph-name="grave" unicode="`" horiz-adv-x="811" 
d="M569 1061l-239 366h164l170 -366h-95z" />
    <glyph glyph-name="a" unicode="a" horiz-adv-x="905" 
d="M527.5 963q227.5 0 258.5 -140.5t11 -236.5l-80 -389q-10 -55 1 -85t75 -28l-23 -104q-89 -7 -131 31t-47 100h-2q-55 -59 -132.5 -97.5t-147.5 -38.5q-128 0 -204.5 80t-76.5 169q0 90 75.5 217.5t559.5 115.5l10 45q23 117 -32.5 181.5t-190.5 64.5t-277 -84l-16 115
q142 84 369.5 84zM162 252q0 -70 47 -118t128 -48q139 0 257 113l53 268q-256 -2 -370.5 -60.5t-114.5 -154.5z" />
    <glyph glyph-name="b" unicode="b" horiz-adv-x="1058" 
d="M775.5 761q-76.5 87 -197.5 87q-122 0 -250 -109l-107 -549q43 -47 111.5 -76.5t148.5 -29.5t148.5 38t145.5 135t77 257t-76.5 247zM612 958q165 0 268 -116t103 -291q0 -242 -149.5 -410t-382.5 -168q-122 0 -256 86l-140 -69l269 1390l133 27l-105 -551
q53 39 114.5 70.5t145.5 31.5z" />
    <glyph glyph-name="c" unicode="c" horiz-adv-x="917" 
d="M80 412q0 104 37 204.5t145 224.5t326 124q181 0 321 -101l-35 -116q-147 100 -299 100q-153 0 -257.5 -132t-104.5 -292t83 -246t209 -86t240 53l17 -114q-105 -58 -225 -58q-217 0 -337 119t-120 320z" />
    <glyph glyph-name="d" unicode="d" horiz-adv-x="1056" 
d="M580 850q-153 0 -263 -134t-110 -297t75.5 -249t196.5 -86t250 104l109 553q-43 47 -112.5 78t-145.5 31zM446 -27q-161 0 -265.5 115.5t-104.5 294.5q0 242 151.5 408.5t388.5 166.5q129 0 246 -90l99 512l131 27l-273 -1407h-127l15 76q-53 -41 -115 -72t-146 -31z" />
    <glyph glyph-name="e" unicode="e" horiz-adv-x="956" 
d="M766 653q0 90 -57.5 143.5t-163.5 53.5t-193 -80.5t-119 -204.5h9l58 1l452 1q14 47 14 86zM507 92q126 0 241 53l18 -114q-105 -58 -226 -58q-216 0 -337 121t-121 330t139.5 375t347.5 166q147 0 236.5 -83.5t89.5 -200.5q0 -118 -41 -210l-639 -4l-2 -45
q0 -158 84 -244t210 -86z" />
    <glyph glyph-name="f" unicode="f" horiz-adv-x="608" 
d="M405.5 1345.5q73.5 79.5 197.5 79.5t210 -65q-11 -28 -25 -53t-28 -56q-85 56 -162 56q-134 0 -172 -201l-35 -172h271l-7 -115h-286l-160 -819h-125l158 817l-144 10l6 80l160 33l35 170q33 156 106.5 235.5z" />
    <glyph glyph-name="g" unicode="g" horiz-adv-x="960" 
d="M674 -223q0 76 -64.5 114.5t-175.5 59.5t-201 47q-104 -23 -162.5 -79t-58.5 -139t91 -133t240 -50t240 52t91 128zM723 628q0 107 -59.5 170.5t-167.5 63.5t-182 -76t-74 -181t59 -168.5t166 -63.5t182.5 74t75.5 181zM293 307q-90 -39 -90 -112q0 -41 51 -69t172 -52
l55 -11q150 -31 234 -92t84 -181t-127 -210t-339 -90t-330 78t-118 199q0 90 67.5 162.5t197.5 107.5q-78 47 -78 117q0 69 46.5 118t112.5 72q-114 88 -114 246q0 157 114.5 266t254.5 109t225 -60l293 25l6 -129l-215 12q49 -70 49 -158q0 -167 -112 -275t-273 -108
q-85 0 -166 35z" />
    <glyph glyph-name="h" unicode="h" horiz-adv-x="1034" 
d="M612 848q-134 0 -286 -125l-142 -723h-127l269 1380l133 27l-113 -584q165 140 320 140q123 0 195.5 -69t72.5 -187q0 -43 -12 -105l-119 -602h-127l112 580q12 59 13 96q0 172 -189 172z" />
    <glyph glyph-name="i" unicode="i" horiz-adv-x="428" 
d="M59 0l181 928l131 26l-185 -954h-127zM459 1246q0 -40 -23.5 -70.5t-71 -30.5t-70 30.5t-22.5 70.5t22.5 70t70 30t71 -30t23.5 -70z" />
    <glyph glyph-name="j" unicode="j" horiz-adv-x="423" 
d="M-205 -420q109 46 166 121.5t84 220.5l7 38q7 42 21.5 112.5t32 162t35.5 185.5l99 508l131 26q-92 -493 -138.5 -722.5t-54.5 -273.5l-8 -40q-52 -265 -147 -333t-160 -97zM459 1246q0 -40 -23.5 -70.5t-71 -30.5t-70 30.5t-22.5 70.5t22.5 70t70 30t71 -30t23.5 -70z
" />
    <glyph glyph-name="k" unicode="k" horiz-adv-x="888" 
d="M279 485l-95 -485h-127l269 1380l133 27l-174 -881h4l483 412h178l-532 -438l364 -500h-155l-344 485h-4z" />
    <glyph glyph-name="l" unicode="l" horiz-adv-x="421" 
d="M57 0l269 1380l133 27l-275 -1407h-127z" />
    <glyph glyph-name="m" unicode="m" horiz-adv-x="1587" 
d="M1223 965q119 0 191.5 -70t72.5 -182q0 -51 -14 -123l-117 -590h-127l110 569q17 82 17 113q0 78 -46 121t-125 43q-139 0 -280 -125q-2 -8 -2 -22t-12 -89l-121 -610h-127l113 569q14 68 14 129q0 62 -46 105t-125 43q-135 0 -271 -117l-144 -729h-127l183 938l133 27
l-25 -125q150 125 289 125q92 0 158.5 -43t93.5 -119q172 162 334 162z" />
    <glyph glyph-name="n" unicode="n" horiz-adv-x="1034" 
d="M651 965q138 0 210.5 -70t72.5 -182q0 -47 -16 -127l-115 -586h-127l110 569q17 82 17 113q0 78 -46.5 121t-128.5 43q-153 0 -304 -137l-140 -709h-127l183 938l133 27l-27 -142q167 142 305 142z" />
    <glyph glyph-name="o" unicode="o" horiz-adv-x="1085" 
d="M802.5 759q-76.5 93 -216.5 93q-170 0 -274.5 -135.5t-104.5 -290.5t76.5 -246.5t230.5 -91.5t259.5 132t105.5 289t-76.5 250zM1008 522q0 -100 -38 -200.5t-105.5 -177t-164 -123t-200.5 -46.5q-194 0 -307 121t-113 328t146.5 373t371.5 166q183 0 296.5 -122.5
t113.5 -318.5z" />
    <glyph glyph-name="p" unicode="p" horiz-adv-x="1058" 
d="M478 84q153 0 263.5 134t110.5 295t-76.5 248t-198.5 87t-247 -105l-109 -553q43 -47 110.5 -76.5t146.5 -29.5zM610 958q164 0 268.5 -115.5t104.5 -291.5q0 -243 -151 -410.5t-389 -167.5q-128 0 -248 93l-103 -543h-127l275 1415l133 27l-21 -107q53 39 113.5 69.5
t144.5 30.5z" />
    <glyph glyph-name="q" unicode="q" horiz-adv-x="1056" 
d="M582 850q-154 0 -264.5 -134t-110.5 -315q0 -139 75 -228t199 -89t248 104l109 553q-43 47 -110.5 78t-145.5 31zM618 958q129 0 246 -90l142 90l-277 -1435h-129l107 553q-53 -41 -114 -72t-145 -31q-163 0 -267.5 115.5t-104.5 294.5q0 240 152.5 407.5t389.5 167.5z
" />
    <glyph glyph-name="r" unicode="r" horiz-adv-x="729" 
d="M596 965q114 0 186 -45l-34 -123q-82 47 -166 47q-155 0 -277 -223l-121 -621h-127l183 938l133 27l-35 -179q51 82 122.5 130.5t135.5 48.5z" />
    <glyph glyph-name="s" unicode="s" horiz-adv-x="778" 
d="M428 852q-80 0 -134 -39t-54 -104t50 -101.5t126 -72.5q143 -68 198.5 -122t55.5 -133q0 -143 -99 -225t-261 -82t-318 103l43 117q164 -107 302 -107t174 62.5t36 111.5t-50.5 87t-126.5 73q-140 64 -196.5 118.5t-56.5 134.5q0 141 95 216.5t205 75.5q182 0 341 -95
l-41 -116q-154 98 -289 98z" />
    <glyph glyph-name="t" unicode="t" horiz-adv-x="684" 
d="M225 195q0 -113 144 -113q66 0 153 35l21 -111q-95 -37 -197 -37t-172 51.5t-70 155.5q0 40 19 123l115 518l-138 10l6 80l158 33l49 213h121l-49 -219h309l-6 -115h-330l-116 -530q-6 -29 -11.5 -50.5t-5.5 -43.5z" />
    <glyph glyph-name="u" unicode="u" horiz-adv-x="1034" 
d="M100 225q0 42 17 127l114 586h127l-110 -569q-17 -82 -17 -113q0 -78 47.5 -121t129.5 -43q152 0 303 135l139 711h127l-182 -938l-133 -27l26 142q-168 -142 -305 -142t-210 70t-73 182z" />
    <glyph glyph-name="v" unicode="v" horiz-adv-x="866" 
d="M397 -2h-116l-185 940h131l142 -774l442 774h141z" />
    <glyph glyph-name="w" unicode="w" horiz-adv-x="1329" 
d="M215 -4l-98 942h131l67 -748l394 750h116l101 -754l344 752h143l-463 -942h-114l-101 756l-407 -756h-113z" />
    <glyph glyph-name="x" unicode="x" horiz-adv-x="806" 
d="M565 0l-174 401l-328 -401h-149l414 483l-207 455h135l160 -373l295 373h145l-381 -459l227 -479h-137z" />
    <glyph glyph-name="y" unicode="y" horiz-adv-x="866" 
d="M-41 -371q91 0 195 183l122 206l-178 920h131l140 -776l442 776h141l-694 -1176q-124 -210 -195 -233t-117 -23q-83 0 -159 60l63 106q60 -43 109 -43z" />
    <glyph glyph-name="z" unicode="z" horiz-adv-x="796" 
d="M-53 0l18 88l680 735h-520l22 115h695l-19 -88l-682 -735h539l-23 -115h-710z" />
    <glyph glyph-name="braceleft" unicode="{" horiz-adv-x="679" 
d="M203 -209q0 63 16.5 119.5t34.5 109t34.5 101.5t16.5 98q0 94 -59.5 134t-200.5 53l-6 67l6 70q141 10 200.5 50t59.5 136q0 49 -16.5 98.5t-34.5 101.5t-34.5 107.5t-16.5 118.5q0 133 115.5 192.5t328.5 69.5v-94q-180 -14 -252.5 -50.5t-72.5 -96.5t16 -111t52 -148
t36 -185t-67.5 -165.5t-215.5 -87.5v-12q147 -10 215 -87t68 -185q0 -69 -36 -166t-52 -147t-16 -95q0 -74 72.5 -111.5t252.5 -52.5v-92q-213 10 -328.5 68.5t-115.5 191.5z" />
    <glyph glyph-name="bar" unicode="|" horiz-adv-x="505" 
d="M197 1438h112v-1846h-112v1846z" />
    <glyph glyph-name="braceright" unicode="}" horiz-adv-x="679" 
d="M373 217q0 -49 16.5 -98t35.5 -101.5t35.5 -107.5t16.5 -119q0 -133 -115.5 -192.5t-328.5 -67.5v92q178 12 251.5 50t73.5 105t-35.5 163t-52 149t-16.5 105q0 106 67.5 184t215.5 88v12q-147 8 -215 85t-68 186q0 70 36 167t52 148t16 98q0 72 -73.5 109t-251.5 51v94
q213 -12 328.5 -70.5t115.5 -191.5q0 -85 -35.5 -183t-52 -147t-16.5 -98q0 -96 60.5 -136t201.5 -50l6 -68l-6 -70q-141 -10 -201.5 -50t-60.5 -136z" />
    <glyph glyph-name="asciitilde" unicode="~" 
d="M557 362q-51 0 -93 23t-78 49.5t-66.5 49t-64.5 22.5t-58.5 -36t-46.5 -93h-93q31 104 80 168.5t129 64.5t145.5 -49t97 -71.5t63.5 -22.5t56.5 35t47.5 94h94q-33 -104 -82 -169t-131 -65z" />
    <glyph glyph-name="nonbreakingspace" unicode="&#xa0;" horiz-adv-x="280" 
 />
    <glyph glyph-name="exclamdown" unicode="&#xa1;" horiz-adv-x="530" 
d="M240 -51l-154 16l225 936l72 -6zM303 1198q0 41 27.5 74t75 33t75 -33t27.5 -74t-27.5 -70.5t-75 -29.5t-75 29.5t-27.5 70.5z" />
    <glyph glyph-name="cent" unicode="&#xa2;" horiz-adv-x="890" 
d="M612 848h-30q-166 0 -267.5 -133t-101.5 -293q0 -115 45 -192.5t123 -112.5l10 31q14 44 62 185t172 513q-10 2 -13 2zM520 90q118 0 232 55l4 -118q-119 -54 -246 -54q-43 0 -84 7l-78 -232h-90l84 254q-119 45 -190.5 150.5t-71.5 234.5t38 228.5t105.5 176t162.5 124
t208 47.5q40 0 68 -5l65 193h90q-67 -211 -72 -211q99 -23 175 -86l-54 -111q-70 62 -157 84l-11 -31q-30 -94 -59 -180t-67 -202t-107 -320q24 -4 55 -4z" />
    <glyph glyph-name="sterling" unicode="&#xa3;" horiz-adv-x="1013" 
d="M475.5 1208.5q106.5 102.5 278.5 102.5t313 -105l-53 -106q-131 98 -264 98q-132 0 -198.5 -79t-90.5 -213t-37 -244h393l-8 -95h-397q-32 -249 -64 -334q59 -63 139 -106t159 -43t132 54.5t92 152.5l91 -29q-37 -135 -120 -214t-204 -79q-166 -3 -334 172
q-47 -76 -127 -115.5t-207 -62.5q-4 59 -10 107q134 24 196.5 77t88.5 177q16 74 39 243h-185l-4 95h199q26 186 41 258q35 186 141.5 288.5z" />
    <glyph glyph-name="currency" unicode="&#xa4;" horiz-adv-x="1032" 
d="M803 1292q92 0 184 -27.5t154 -74.5l-51 -107q-57 45 -138.5 71t-156.5 26q-255 0 -371 -326h483l-6 -92h-506q-27 -110 -33 -159.5t-10 -80.5h414l6 -92h-422q4 -168 80 -258t250 -90q125 0 223 43l-2 -113q-85 -39 -231 -43q-453 0 -453 461h-154l7 92h153
q6 104 39 240h-117l-6 92h152q113 315 266.5 376.5t245.5 61.5z" />
    <glyph glyph-name="yen" unicode="&#xa5;" horiz-adv-x="1116" 
d="M135 541l8 94h322l-281 645h140l251 -612l476 612h153q-147 -178 -229 -280t-129 -160t-84 -104t-60 -73l-22 -28h311l-16 -94h-361l-34 -181h352l-6 -92h-365l-51 -268h-127l51 268h-358l18 92h361l34 181h-354z" />
    <glyph glyph-name="brokenbar" unicode="&#xa6;" horiz-adv-x="731" 
d="M200 92q104 0 160 57.5t80 180.5l185 950h129l-187 -963q-35 -180 -124 -262t-228 -82q-80 0 -152.5 26t-119.5 62l47 121q106 -90 210 -90z" />
    <glyph glyph-name="section" unicode="&#xa7;" horiz-adv-x="962" 
d="M197 652q0 -110 143.5 -172t185 -78.5t76.5 -36.5q232 71 232 183.5t-115 160t-148 61.5t-66.5 26.5t-68.5 30.5q-239 -65 -239 -175zM872 1108q-138 96 -270 96q-131 0 -162.5 -49t-31.5 -87q0 -69 60 -109.5t155 -82.5q94 -41 213.5 -98.5t119.5 -193.5
q0 -160 -120.5 -210t-171.5 -61q84 -70 84 -170q0 -128 -100.5 -204t-237.5 -76t-228.5 47t-122.5 74l60 108q57 -51 136 -84t135 -33q101 0 167 39t66 113q0 96 -102.5 143t-195 86t-171 97t-78.5 161q0 102 92 172t209 91q-94 71 -94 184t90.5 184.5t203.5 71.5
q200 0 353 -98z" />
    <glyph glyph-name="dieresis" unicode="&#xa8;" horiz-adv-x="772" 
d="M455 1214.5q0 -40.5 -27 -71.5t-71 -31t-70.5 31t-26.5 71.5t26.5 70.5t70.5 30t71 -30t27 -70.5zM850 1214.5q0 -40.5 -26.5 -71.5t-70.5 -31t-72 31t-28 71.5t28 70.5t72 30t70.5 -30t26.5 -70.5z" />
    <glyph glyph-name="copyright" unicode="&#xa9;" horiz-adv-x="1492" 
d="M1042 317q-87 -59 -239 -59q-151 0 -249.5 104t-98.5 274t99.5 275t252.5 105t242 -60l-35 -92q-88 58 -200 58t-182.5 -74t-70.5 -207t70.5 -211t186.5 -78t204 66zM1401 638q0 126 -48 237.5t-131 195.5t-193.5 133t-300 49t-369 -181.5t-179.5 -434.5
q0 -125 48 -236.5t131 -195.5t194 -132t238 -48t237.5 48t193.5 132t131 195.5t48 237.5zM790.5 -33q-139.5 0 -261 53.5t-213 143.5t-143.5 213t-52 261t52 260t143.5 213t213 144.5t261 53.5t261.5 -53.5t213 -144.5t143 -213t52 -260t-52 -261t-143 -213t-213 -143.5
t-261.5 -53.5z" />
    <glyph glyph-name="ordfeminine" unicode="&#xaa;" horiz-adv-x="694" 
d="M193 719q0 -51 37.5 -81t93.5 -30q101 0 202 88l41 209q-374 -7 -374 -186zM457 1307q203 0 228.5 -101.5t8.5 -181.5l-59 -295q-23 -110 37 -194l-109 -23q-35 41 -41 115h-4q-73 -73 -136 -93t-95 -20q-90 0 -144.5 58t-54.5 128q0 135 123.5 211t370.5 72l10 45
q37 184 -148 184q-91 0 -225 -71l-22 90q135 76 260 76z" />
    <glyph glyph-name="guillemotleft" unicode="&#xab;" horiz-adv-x="1177" 
d="M465 63l-422 351l27 131l557 348l-6 -107l-457 -317v-2l338 -322zM1010 53l-432 359l26 135l570 356l-7 -110l-467 -324v-2l347 -328z" />
    <glyph glyph-name="logicalnot" unicode="&#xac;" horiz-adv-x="1052" 
d="M580 850q-153 0 -263 -134t-110 -297t75.5 -249t198.5 -86t246 104l111 553q-43 47 -112.5 78t-145.5 31zM76 383q0 242 151.5 408.5t370.5 166.5q148 0 264 -90l144 90l-152 -761q-10 -55 0 -85t74 -28l-23 -104q-128 -10 -151 44t-25 78h-2q-124 -129 -283 -129
t-263.5 115.5t-104.5 294.5z" />
    <glyph glyph-name="registered" unicode="&#xae;" horiz-adv-x="1492" 
d="M956 778q0 137 -184 137h-123v-284l129 4q90 2 134 40t44 103zM1059 784q0 -154 -144 -209l183 -292h-119l-166 268l-162 -8v-260h-102v725h233q137 0 207 -59.5t70 -164.5zM1401 638q0 126 -48 237.5t-131 195.5t-193.5 133t-300 49t-369 -181.5t-179.5 -434.5
q0 -125 48 -236.5t131 -195.5t194 -132t238 -48t237.5 48t193.5 132t131 195.5t48 237.5zM790.5 -33q-139.5 0 -261 53.5t-213 143.5t-143.5 213t-52 261t52 260t143.5 213t213 144.5t261 53.5t261.5 -53.5t213 -144.5t143 -213t52 -260t-52 -261t-143 -213t-213 -143.5
t-261.5 -53.5z" />
    <glyph glyph-name="macron" unicode="&#xaf;" 
d="M272 1098l25 92h508l-8 -92h-525z" />
    <glyph glyph-name="degree" unicode="&#xb0;" horiz-adv-x="729" 
d="M631.5 1174.5q-56.5 50.5 -148.5 50.5t-161.5 -70.5t-69.5 -164.5q0 -95 56.5 -146t149.5 -51t161.5 71.5t68.5 165.5t-56.5 144.5zM678 807q-96 -96 -228 -96t-208 72.5t-76 201.5t97.5 226.5t225.5 97.5t206.5 -74t78.5 -203t-96 -225z" />
    <glyph glyph-name="plusminus" unicode="&#xb1;" horiz-adv-x="1492" 
d="M991 750q0 145 -188 145h-113v-299h115q186 4 186 154zM1096 744q0 -114 -79 -177t-220 -63h-107v-242h-102v725h219q147 0 218 -64.5t71 -178.5zM1401 638q0 126 -48 237.5t-131 195.5t-193.5 133t-300 49t-369 -181.5t-179.5 -434.5q0 -125 48 -236.5t131 -195.5
t194 -132t238 -48t237.5 48t193.5 132t131 195.5t48 237.5zM790.5 -33q-139.5 0 -261 52.5t-213 143.5t-143.5 213t-52 261t52 261t143.5 213t213 144.5t261 53.5t261.5 -53.5t213 -144.5t143 -213t52 -261t-52 -261t-143 -213t-213 -143.5t-261.5 -52.5z" />
    <glyph glyph-name="acute" unicode="&#xb4;" horiz-adv-x="811" 
d="M477 1061h-100l315 366h168z" />
    <glyph glyph-name="mu" unicode="&#xb5;" horiz-adv-x="1052" 
d="M580 850q-153 0 -263 -134t-110 -297t75.5 -249t197.5 -86t247 100l111 557q-43 47 -112.5 78t-145.5 31zM807 -57q-87 -445 -445 -445q-185 0 -356 101l57 114q146 -100 286 -100t218 80t113 258l27 125q-53 -41 -115 -72t-146 -31q-161 0 -265.5 115.5t-104.5 294.5
q0 242 151.5 408.5t388.5 166.5q129 0 246 -90l144 90z" />
    <glyph glyph-name="paragraph" unicode="&#xb6;" horiz-adv-x="1026" 
d="M619 522q-188 0 -319.5 88.5t-131.5 249.5q0 194 141.5 306t354.5 112h335l-280 -1411h-113l131 661q-27 -6 -118 -6z" />
    <glyph glyph-name="periodcentered" unicode="&#xb7;" horiz-adv-x="382" 
d="M299 469q0 -41 -27.5 -74t-73.5 -33t-75 33t-29 74t29 71.5t75 30.5t73.5 -30.5t27.5 -71.5z" />
    <glyph glyph-name="cedilla" unicode="&#xb8;" 
d="M401 -311q0 115 -251 94v61l270 217h108l-241 -196q100 -6 160.5 -50t60.5 -126t-93 -145.5t-280 -65.5l4 88q129 -4 195.5 29.5t66.5 93.5z" />
    <glyph glyph-name="ordmasculine" unicode="&#xba;" horiz-adv-x="868" 
d="M732.5 1143q-64.5 74 -187.5 74t-209 -107.5t-86 -234.5q0 -126 64.5 -198.5t188.5 -72.5t209 106.5t85 232.5t-64.5 200zM899 954q0 -81 -30.5 -162t-119.5 -179.5t-268 -98.5q-145 0 -238 97t-93 263q0 165 117 298t298 133q145 0 239.5 -98.5t94.5 -252.5z" />
    <glyph glyph-name="guillemotright" unicode="&#xbb;" horiz-adv-x="1183" 
d="M12 53l6 113l467 321v2l-344 330l37 86l434 -360l-26 -135zM561 66l4 106l457 315v2l-336 324l37 80l422 -350l-27 -129z" />
    <glyph glyph-name="onequarter" unicode="&#xbc;" horiz-adv-x="1214" 
d="M1206 1307q-134 0 -174 -201l-35 -172h271l-6 -115h-285l-160 -819h-127l160 819h-481l-160 -819h-125l158 819l-144 10l6 78l160 33l31 150q33 156 106.5 235.5t196.5 79.5t211 -66q-10 -24 -24.5 -50.5t-28.5 -57.5q-84 55 -161 55t-117 -58.5t-56 -142.5l-31 -151h479
l37 176q33 156 105.5 235.5t197.5 79.5t211 -65q-11 -28 -25 -53t-28 -56q-86 56 -162 56z" />
    <glyph glyph-name="onehalf" unicode="&#xbd;" horiz-adv-x="1640" 
d="M1206 1307q-134 0 -174 -201l-35 -172h465l123 20l-184 -954h-125l160 819h-459l-160 -819h-127l160 819h-481l-160 -819h-125l158 819l-144 10l6 78l160 33l31 150q33 156 106.5 235.5t196.5 79.5t211 -66q-10 -24 -24.5 -50.5t-28.5 -57.5q-84 55 -161 55t-117 -58.5
t-56 -142.5l-31 -151h479l37 176q33 156 105.5 235.5t197.5 79.5t211 -65q-11 -28 -25 -53t-28 -56q-86 56 -162 56z" />
    <glyph glyph-name="threequarters" unicode="&#xbe;" horiz-adv-x="1636" 
d="M1206 1307q-134 0 -174 -201l-35 -172h271l-6 -115h-285l-160 -819h-127l160 819h-481l-160 -819h-125l158 819l-144 10l6 78l160 33l31 150q33 156 106.5 235.5t196.5 79.5t211 -66q-10 -24 -24.5 -50.5t-28.5 -57.5q-84 55 -161 55t-117 -58.5t-56 -142.5l-31 -151h479
l37 176q33 156 105.5 235.5t197.5 79.5t211 -65q-11 -28 -25 -53t-28 -56q-86 56 -162 56zM1274 0l268 1380l131 27l-274 -1407h-125z" />
    <glyph glyph-name="questiondown" unicode="&#xbf;" horiz-adv-x="714" 
d="M455 1198q0 41 27.5 74t74.5 33t74.5 -33t27.5 -74t-27.5 -70.5t-74.5 -29.5t-74.5 29.5t-27.5 70.5zM494 905q120 -89 120 -203t-95 -156t-144 -58q-106 -34 -161.5 -74.5t-55.5 -106.5q0 -112 88.5 -164.5t170.5 -52.5t126 6l-23 -119q-40 -8 -108 -8q-147 0 -255 90.5
t-108 225.5q0 183 110.5 233.5t184.5 73.5t122 51.5t48 92.5t-94 153z" />
    <glyph glyph-name="Agrave" unicode="&#xc0;" horiz-adv-x="1185" 
d="M743 1403l-239 366h164l170 -366h-95zM737 1145l-389 -670h504zM1065 0h-131l-62 356h-593l-205 -356h-144l754 1278h152z" />
    <glyph glyph-name="Aacute" unicode="&#xc1;" horiz-adv-x="1185" 
d="M815 1403h-100l315 366h168zM737 1145l-389 -670h504zM1065 0h-131l-62 356h-593l-205 -356h-144l754 1278h152z" />
    <glyph glyph-name="Acircumflex" unicode="&#xc2;" horiz-adv-x="1185" 
d="M961 1403l-138 276h-4l-241 -276h-119l305 373h143l160 -373h-106zM737 1145l-389 -670h504zM1065 0h-131l-62 356h-593l-205 -356h-144l754 1278h152z" />
    <glyph glyph-name="Atilde" unicode="&#xc3;" horiz-adv-x="1185" 
d="M630 1554q-34 0 -58.5 -35.5t-47.5 -93.5h-92q31 104 80 169t128 65t145.5 -49t97 -71.5t63.5 -22.5t57.5 34.5t47.5 94.5h94q-33 -104 -82 -169t-127 -65t-144.5 49t-97 71.5t-64.5 22.5zM737 1145l-389 -670h504zM1065 0h-131l-62 356h-593l-205 -356h-144l754 1278
h152z" />
    <glyph glyph-name="Adieresis" unicode="&#xc4;" horiz-adv-x="1185" 
d="M696 1556.5q0 -40.5 -26.5 -71.5t-70.5 -31t-70.5 31t-26.5 71.5t26.5 70.5t70.5 30t70.5 -30t26.5 -70.5zM1092 1556.5q0 -40.5 -27 -71.5t-71 -31t-71.5 31t-27.5 71.5t27.5 70.5t71.5 30t71 -30t27 -70.5zM737 1145l-389 -670h504zM1065 0h-131l-62 356h-593
l-205 -356h-144l754 1278h152z" />
    <glyph glyph-name="Aring" unicode="&#xc5;" horiz-adv-x="1185" 
d="M535 1394q0 102 72 164t175 62q102 0 171 -57.5t69 -141.5t-47 -138t-125 -73l217 -1210h-131l-62 356h-591l-205 -356h-144l719 1223q-53 23 -85.5 70t-32.5 101zM932 1411q0 59 -42 97t-108 38t-110.5 -41t-44.5 -100t41.5 -96t107.5 -37t111 40t45 99zM739 1147
l-387 -672h502z" />
    <glyph glyph-name="AE" unicode="&#xc6;" horiz-adv-x="1677" 
d="M53 0h-145l983 1280h848l-23 -121h-643l-88 -457h535l-23 -120h-536l-91 -461h643l-22 -121h-774l69 356h-460zM811 477l133 688l-526 -688h393z" />
    <glyph glyph-name="Ccedilla" unicode="&#xc7;" horiz-adv-x="1196" 
d="M684 -311q0 115 -252 94v61l168 136q-222 24 -356.5 175.5t-134.5 385.5q0 319 145 480t279.5 222.5t313.5 61.5t382 -80l-25 -125q-189 88 -352 88q-164 0 -271.5 -52.5t-223 -185.5t-115.5 -397q0 -218 125 -339.5t335 -121.5q166 0 322 80l27 -117q-155 -77 -349 -82
l-133 -108q100 -6 161 -50t61 -126t-93.5 -145.5t-279.5 -65.5l4 88q129 -4 195.5 29.5t66.5 93.5z" />
    <glyph glyph-name="Egrave" unicode="&#xc8;" horiz-adv-x="1038" 
d="M657 1403l-239 366h164l170 -366h-95zM74 0l250 1280h772l-23 -121h-643l-88 -459h537l-25 -118h-535l-90 -461h641l-22 -121h-774z" />
    <glyph glyph-name="Eacute" unicode="&#xc9;" horiz-adv-x="1038" 
d="M725 1403h-100l315 366h168zM74 0l250 1280h772l-23 -121h-643l-88 -459h537l-25 -118h-535l-90 -461h641l-22 -121h-774z" />
    <glyph glyph-name="Ecircumflex" unicode="&#xca;" horiz-adv-x="1038" 
d="M918 1403l-138 276h-4l-241 -276h-119l305 373h143l160 -373h-106zM74 0l250 1280h772l-23 -121h-643l-88 -459h537l-25 -118h-535l-90 -461h641l-22 -121h-774z" />
    <glyph glyph-name="Edieresis" unicode="&#xcb;" horiz-adv-x="1038" 
d="M629 1556.5q0 -40.5 -27 -71.5t-71 -31t-70.5 31t-26.5 71.5t26.5 70.5t70.5 30t71 -30t27 -70.5zM1024 1556.5q0 -40.5 -26.5 -71.5t-70.5 -31t-72 31t-28 71.5t28 70.5t72 30t70.5 -30t26.5 -70.5zM74 0l250 1280h772l-23 -121h-643l-88 -459h537l-25 -118h-535
l-90 -461h641l-22 -121h-774z" />
    <glyph glyph-name="Igrave" unicode="&#xcc;" horiz-adv-x="466" 
d="M365 1403l-240 366h164l170 -366h-94zM76 0l248 1280h131l-250 -1280h-129z" />
    <glyph glyph-name="Iacute" unicode="&#xcd;" horiz-adv-x="466" 
d="M449 1403h-101l316 366h167zM76 0l248 1280h131l-250 -1280h-129z" />
    <glyph glyph-name="Icircumflex" unicode="&#xce;" horiz-adv-x="466" 
d="M590 1403l-137 276h-4l-242 -276h-119l305 373h144l159 -373h-106zM76 0l248 1280h131l-250 -1280h-129z" />
    <glyph glyph-name="Idieresis" unicode="&#xcf;" horiz-adv-x="466" 
d="M328 1556.5q0 -40.5 -27 -71.5t-71 -31t-70.5 31t-26.5 71.5t26.5 70.5t70.5 30t71 -30t27 -70.5zM723 1556.5q0 -40.5 -26.5 -71.5t-70.5 -31t-72 31t-28 71.5t28 70.5t72 30t70.5 -30t26.5 -70.5zM76 0l248 1280h131l-250 -1280h-129z" />
    <glyph glyph-name="Eth" unicode="&#xd0;" horiz-adv-x="1304" 
d="M68 588v114h163l6 25q5 25 13 66t25 123.5t69 363.5h274q268 0 440.5 -142.5t172.5 -402.5q0 -317 -202 -526t-574 -209h-359l115 588h-143zM727 702v-114h-385l-90 -467h225q267 0 442 157t175 439q0 211 -132 326.5t-362 115.5h-147l-88 -457h362z" />
    <glyph glyph-name="Ntilde" unicode="&#xd1;" horiz-adv-x="1320" 
d="M697 1554q-34 0 -58.5 -35.5t-46.5 -93.5h-92q31 104 80 169t128 65t145.5 -49t97 -71.5t63.5 -22.5t57.5 34.5t46.5 94.5h94q-33 -104 -82 -169t-127 -65t-144 49t-97 71.5t-65 22.5zM1192 1280h127l-248 -1292h-153l-506 1134l-211 -1122h-127l245 1280h160l502 -1122z
" />
    <glyph glyph-name="Ograve" unicode="&#xd2;" horiz-adv-x="1439" 
d="M797 1403l-240 366h164l170 -366h-94zM1270 702q0 217 -129 352.5t-334 135.5q-244 0 -362.5 -138.5t-158.5 -250t-40 -221.5q0 -215 128.5 -352.5t334.5 -137.5q241 0 361 139.5t160 251t40 221.5zM1403 710q0 -138 -53.5 -272.5t-148.5 -238t-224 -165t-269 -61.5
q-266 0 -430.5 165.5t-164.5 426.5q0 147 53 281.5t147.5 237t225.5 163t271 60.5t245.5 -43t183.5 -121t121 -186.5t43 -246.5z" />
    <glyph glyph-name="Oacute" unicode="&#xd3;" horiz-adv-x="1439" 
d="M901 1403h-100l315 366h168zM1270 702q0 217 -129 352.5t-334 135.5q-244 0 -362.5 -138.5t-158.5 -250t-40 -221.5q0 -215 128.5 -352.5t334.5 -137.5q241 0 361 139.5t160 251t40 221.5zM1403 710q0 -138 -53.5 -272.5t-148.5 -238t-224 -165t-269 -61.5
q-266 0 -430.5 165.5t-164.5 426.5q0 147 53 281.5t147.5 237t225.5 163t271 60.5t245.5 -43t183.5 -121t121 -186.5t43 -246.5z" />
    <glyph glyph-name="Ocircumflex" unicode="&#xd4;" horiz-adv-x="1439" 
d="M1067 1403l-137 276h-4l-242 -276h-119l305 373h144l160 -373h-107zM1270 702q0 217 -129 352.5t-334 135.5q-244 0 -362.5 -138.5t-158.5 -250t-40 -221.5q0 -215 128.5 -352.5t334.5 -137.5q241 0 361 139.5t160 251t40 221.5zM1403 710q0 -138 -53.5 -272.5
t-148.5 -238t-224 -165t-269 -61.5q-266 0 -430.5 165.5t-164.5 426.5q0 147 53 281.5t147.5 237t225.5 163t271 60.5t245.5 -43t183.5 -121t121 -186.5t43 -246.5z" />
    <glyph glyph-name="Otilde" unicode="&#xd5;" horiz-adv-x="1439" 
d="M736 1554q-34 0 -58.5 -35.5t-46.5 -93.5h-92q31 104 80 169t128 65t145 -49t97 -71.5t64 -22.5t57.5 34.5t46.5 94.5h94q-33 -104 -82 -169t-127 -65t-144.5 49t-97 71.5t-64.5 22.5zM1270 702q0 217 -129 352.5t-334 135.5q-244 0 -362.5 -138.5t-158.5 -250
t-40 -221.5q0 -215 128.5 -352.5t334.5 -137.5q241 0 361 139.5t160 251t40 221.5zM1403 710q0 -138 -53.5 -272.5t-148.5 -238t-224 -165t-269 -61.5q-266 0 -430.5 165.5t-164.5 426.5q0 147 53 281.5t147.5 237t225.5 163t271 60.5t245.5 -43t183.5 -121t121 -186.5
t43 -246.5z" />
    <glyph glyph-name="Odieresis" unicode="&#xd6;" horiz-adv-x="1439" 
d="M823 1556.5q0 -40.5 -26.5 -71.5t-70.5 -31t-70.5 31t-26.5 71.5t26.5 70.5t70.5 30t70.5 -30t26.5 -70.5zM1219 1556.5q0 -40.5 -27 -71.5t-71 -31t-71.5 31t-27.5 71.5t27.5 70.5t71.5 30t71 -30t27 -70.5zM1270 702q0 217 -129 352.5t-334 135.5q-244 0 -362.5 -138.5
t-158.5 -250t-40 -221.5q0 -215 128.5 -352.5t334.5 -137.5q241 0 361 139.5t160 251t40 221.5zM1403 710q0 -138 -53.5 -272.5t-148.5 -238t-224 -165t-269 -61.5q-266 0 -430.5 165.5t-164.5 426.5q0 147 53 281.5t147.5 237t225.5 163t271 60.5t245.5 -43t183.5 -121
t121 -186.5t43 -246.5z" />
    <glyph glyph-name="multiply" unicode="&#xd7;" horiz-adv-x="995" 
d="M846 57l-344 346l-346 -346l-76 76l346 346l-346 344l76 76l346 -346l346 348l76 -76l-349 -346l347 -346z" />
    <glyph glyph-name="Oslash" unicode="&#xd8;" horiz-adv-x="1439" 
d="M698 90q253 0 413.5 186t160.5 433q0 204 -123 342l-705 -881q114 -80 254 -80zM825 1190q-141 0 -245.5 -52.5t-178 -138.5t-113.5 -197.5t-40 -223.5q0 -214 129 -351l706 881q-117 82 -258 82zM295 125q-180 167 -180 444q0 141 53 275.5t147.5 238t224.5 164
t305 60.5t316 -101l170 211h113l-213 -266q174 -166 174 -430q0 -147 -53.5 -282.5t-147.5 -239t-223 -165t-298 -61.5t-318 97l-166 -207h-113z" />
    <glyph glyph-name="Ugrave" unicode="&#xd9;" horiz-adv-x="1232" 
d="M735 1403l-239 366h163l170 -366h-94zM125 352q0 73 20 183l148 745h129l-146 -750q-20 -97 -20 -153q0 -135 88 -209t247 -74t251 98.5t125 260.5l161 827h129l-161 -842q-41 -215 -168 -340t-337 -125t-338 101t-128 278z" />
    <glyph glyph-name="Uacute" unicode="&#xda;" horiz-adv-x="1232" 
d="M809 1403h-100l315 366h168zM125 352q0 73 20 183l148 745h129l-146 -750q-20 -97 -20 -153q0 -135 88 -209t247 -74t251 98.5t125 260.5l161 827h129l-161 -842q-41 -215 -168 -340t-337 -125t-338 101t-128 278z" />
    <glyph glyph-name="Ucircumflex" unicode="&#xdb;" horiz-adv-x="1232" 
d="M985 1403l-137 276h-4l-242 -276h-119l305 373h144l160 -373h-107zM125 352q0 73 20 183l148 745h129l-146 -750q-20 -97 -20 -153q0 -135 88 -209t247 -74t251 98.5t125 260.5l161 827h129l-161 -842q-41 -215 -168 -340t-337 -125t-338 101t-128 278z" />
    <glyph glyph-name="Udieresis" unicode="&#xdc;" horiz-adv-x="1232" 
d="M709 1556.5q0 -40.5 -27 -71.5t-71 -31t-70.5 31t-26.5 71.5t26.5 70.5t70.5 30t71 -30t27 -70.5zM1104 1556.5q0 -40.5 -26.5 -71.5t-70.5 -31t-72 31t-28 71.5t28 70.5t72 30t70.5 -30t26.5 -70.5zM125 352q0 73 20 183l148 745h129l-146 -750q-20 -97 -20 -153
q0 -135 88 -209t247 -74t251 98.5t125 260.5l161 827h129l-161 -842q-41 -215 -168 -340t-337 -125t-338 101t-128 278z" />
    <glyph glyph-name="Yacute" unicode="&#xdd;" horiz-adv-x="1073" 
d="M715 1403h-101l316 366h168zM610 510l-100 -510h-127l100 518l-299 762h140l245 -643l482 643h153z" />
    <glyph glyph-name="Thorn" unicode="&#xde;" horiz-adv-x="1062" 
d="M893 678q0 113 -82 187.5t-242 74.5h-182l-115 -590h203q204 0 311 90t107 238zM1030 681q0 -87 -37 -173t-149 -182.5t-387 -96.5h-207l-47 -229h-129l248 1280h131l-43 -219h178q207 0 324.5 -106t117.5 -274z" />
    <glyph glyph-name="germandbls" unicode="&#xdf;" horiz-adv-x="1243" 
d="M705 709q0 -65 49.5 -101.5t125.5 -72.5q143 -68 199 -122t56 -133q0 -143 -99 -225t-261 -82t-318 103l43 117q164 -107 302 -107t174 62.5t36 111.5t-50 87t-126 73q-138 63 -195 115.5t-57 165.5t95 188.5t204 75.5q181 0 340 -95l-41 -116q-154 98 -289 98
q-80 0 -134 -39t-54 -104zM405.5 1345.5q73.5 79.5 197.5 79.5t210 -65q-11 -28 -25 -53t-28 -56q-85 56 -162 56q-134 0 -172 -201l-217 -1106h-125l158 817l-144 10l6 80l160 33l35 170q33 156 106.5 235.5z" />
    <glyph glyph-name="agrave" unicode="&#xe0;" horiz-adv-x="905" 
d="M527.5 963q227.5 0 258.5 -140.5t11 -236.5l-80 -389q-10 -55 1 -85t75 -28l-23 -104q-89 -7 -131 31t-47 100h-2q-55 -59 -132.5 -97.5t-147.5 -38.5q-128 0 -204.5 80t-76.5 169q0 90 75.5 217.5t559.5 115.5l10 45q23 117 -32.5 181.5t-190.5 64.5t-277 -84l-16 115
q142 84 369.5 84zM162 252q0 -70 47 -118t128 -48q139 0 257 113l53 268q-256 -2 -370.5 -60.5t-114.5 -154.5zM508 1061l-240 366h164l170 -366h-94z" />
    <glyph glyph-name="aacute" unicode="&#xe1;" horiz-adv-x="905" 
d="M535 1061h-101l316 366h168zM527.5 963q227.5 0 258.5 -140.5t11 -236.5l-80 -389q-10 -55 1 -85t75 -28l-23 -104q-89 -7 -131 31t-47 100h-2q-55 -59 -132.5 -97.5t-147.5 -38.5q-128 0 -204.5 80t-76.5 169q0 90 75.5 217.5t559.5 115.5l10 45q23 117 -32.5 181.5
t-190.5 64.5t-277 -84l-16 115q142 84 369.5 84zM162 252q0 -70 47 -118t128 -48q139 0 257 113l53 268q-256 -2 -370.5 -60.5t-114.5 -154.5z" />
    <glyph glyph-name="acircumflex" unicode="&#xe2;" horiz-adv-x="905" 
d="M735 1061l-137 276h-4l-242 -276h-119l306 373h143l160 -373h-107zM527.5 963q227.5 0 258.5 -140.5t11 -236.5l-80 -389q-10 -55 1 -85t75 -28l-23 -104q-89 -7 -131 31t-47 100h-2q-55 -59 -132.5 -97.5t-147.5 -38.5q-128 0 -204.5 80t-76.5 169q0 90 75.5 217.5
t559.5 115.5l10 45q23 117 -32.5 181.5t-190.5 64.5t-277 -84l-16 115q142 84 369.5 84zM162 252q0 -70 47 -118t128 -48q139 0 257 113l53 268q-256 -2 -370.5 -60.5t-114.5 -154.5z" />
    <glyph glyph-name="atilde" unicode="&#xe3;" horiz-adv-x="905" 
d="M404 1212q-34 0 -58 -35.5t-47 -93.5h-92q31 104 80 169t128 65t145.5 -49t97 -71.5t63.5 -22.5t57.5 34.5t46.5 94.5h95q-33 -104 -82.5 -169t-127.5 -65t-144 49t-97 71.5t-65 22.5zM527.5 963q227.5 0 258.5 -140.5t11 -236.5l-80 -389q-10 -55 1 -85t75 -28l-23 -104
q-89 -7 -131 31t-47 100h-2q-55 -59 -132.5 -97.5t-147.5 -38.5q-128 0 -204.5 80t-76.5 169q0 90 75.5 217.5t559.5 115.5l10 45q23 117 -32.5 181.5t-190.5 64.5t-277 -84l-16 115q142 84 369.5 84zM162 252q0 -70 47 -118t128 -48q139 0 257 113l53 268
q-256 -2 -370.5 -60.5t-114.5 -154.5z" />
    <glyph glyph-name="adieresis" unicode="&#xe4;" horiz-adv-x="905" 
d="M473 1214.5q0 -40.5 -26.5 -71.5t-70.5 -31t-70.5 31t-26.5 71.5t26.5 70.5t70.5 30t70.5 -30t26.5 -70.5zM868 1214.5q0 -40.5 -26.5 -71.5t-70.5 -31t-71.5 31t-27.5 71.5t27.5 70.5t71.5 30t70.5 -30t26.5 -70.5zM527.5 963q227.5 0 258.5 -140.5t11 -236.5l-80 -389
q-10 -55 1 -85t75 -28l-23 -104q-89 -7 -131 31t-47 100h-2q-55 -59 -132.5 -97.5t-147.5 -38.5q-128 0 -204.5 80t-76.5 169q0 90 75.5 217.5t559.5 115.5l10 45q23 117 -32.5 181.5t-190.5 64.5t-277 -84l-16 115q142 84 369.5 84zM162 252q0 -70 47 -118t128 -48
q139 0 257 113l53 268q-256 -2 -370.5 -60.5t-114.5 -154.5z" />
    <glyph glyph-name="aring" unicode="&#xe5;" horiz-adv-x="905" 
d="M733 1269q0 60 -41.5 97t-107.5 37t-111 -40t-45 -100t42 -97.5t106 -37.5t110.5 40.5t46.5 100.5zM579 1055q-104 0 -173.5 54t-69.5 147t71.5 157t175.5 64q105 0 172.5 -56.5t67.5 -150.5t-70 -154.5t-174 -60.5zM527.5 963q227.5 0 258.5 -140.5t11 -236.5l-80 -389
q-10 -55 1 -85t75 -28l-23 -104q-89 -7 -131 31t-47 100h-2q-55 -59 -132.5 -97.5t-147.5 -38.5q-128 0 -204.5 80t-76.5 169q0 90 75.5 217.5t559.5 115.5l10 45q23 117 -32.5 181.5t-190.5 64.5t-277 -84l-16 115q142 84 369.5 84zM162 252q0 -70 47 -118t128 -48
q139 0 257 113l53 268q-256 -2 -370.5 -60.5t-114.5 -154.5z" />
    <glyph glyph-name="ae" unicode="&#xe6;" horiz-adv-x="1525" 
d="M1135 965q146 0 236.5 -84.5t90.5 -200.5q0 -117 -43 -209l-637 -4q-2 -12 -2 -15v-30q0 -158 84 -244t211 -86t240 53l16 -114q-105 -58 -244 -58t-237 59.5t-150 168.5q-171 -228 -393 -228q-120 0 -199 77.5t-79 167.5q0 172 158 258t477 75l10 51q23 117 -29.5 181.5
t-187.5 64.5t-279 -84l-16 115q59 35 145 60.5t174 25.5q244 0 301 -174q147 174 353 174zM162 246q0 -72 48 -115t126 -43q179 0 334 188q-23 79 -17 185q-491 0 -491 -215zM1331 653q0 90 -56 143.5t-157 53.5q-171 0 -236 -112t-81 -173h9l56 1l451 1q14 35 14 86z" />
    <glyph glyph-name="ccedilla" unicode="&#xe7;" horiz-adv-x="917" 
d="M487 -311q0 115 -251 94v61l172 140q-145 29 -236.5 140.5t-91.5 287.5q0 104 37 204.5t145 224.5t326 124q181 0 321 -101l-35 -116q-147 100 -299 100q-153 0 -257.5 -132t-104.5 -292t83 -246t209 -86t240 53l17 -114q-105 -58 -252 -58h-4l-133 -108
q100 -6 160.5 -50t60.5 -126t-93 -145.5t-280 -65.5l4 88q129 -4 195.5 29.5t66.5 93.5z" />
    <glyph glyph-name="egrave" unicode="&#xe8;" horiz-adv-x="956" 
d="M766 653q0 90 -57.5 143.5t-163.5 53.5t-193 -80.5t-119 -204.5h9l58 1l452 1q14 47 14 86zM507 92q126 0 241 53l18 -114q-105 -58 -226 -58q-216 0 -337 121t-121 330t139.5 375t347.5 166q147 0 236.5 -83.5t89.5 -200.5q0 -118 -41 -210l-639 -4l-2 -45
q0 -158 84 -244t210 -86zM549 1061l-240 366h164l170 -366h-94z" />
    <glyph glyph-name="eacute" unicode="&#xe9;" horiz-adv-x="956" 
d="M586 1061h-101l316 366h168zM766 653q0 90 -57.5 143.5t-163.5 53.5t-193 -80.5t-119 -204.5h9l58 1l452 1q14 47 14 86zM507 92q126 0 241 53l18 -114q-105 -58 -226 -58q-216 0 -337 121t-121 330t139.5 375t347.5 166q147 0 236.5 -83.5t89.5 -200.5q0 -118 -41 -210
l-639 -4l-2 -45q0 -158 84 -244t210 -86z" />
    <glyph glyph-name="ecircumflex" unicode="&#xea;" horiz-adv-x="956" 
d="M774 1061l-137 276h-4l-242 -276h-119l306 373h143l160 -373h-107zM766 653q0 90 -57.5 143.5t-163.5 53.5t-193 -80.5t-119 -204.5h9l58 1l452 1q14 47 14 86zM507 92q126 0 241 53l18 -114q-105 -58 -226 -58q-216 0 -337 121t-121 330t139.5 375t347.5 166
q147 0 236.5 -83.5t89.5 -200.5q0 -118 -41 -210l-639 -4l-2 -45q0 -158 84 -244t210 -86z" />
    <glyph glyph-name="edieresis" unicode="&#xeb;" horiz-adv-x="956" 
d="M522 1214.5q0 -40.5 -26.5 -71.5t-70.5 -31t-70.5 31t-26.5 71.5t26.5 70.5t70.5 30t70.5 -30t26.5 -70.5zM918 1214.5q0 -40.5 -27 -71.5t-71 -31t-71.5 31t-27.5 71.5t27.5 70.5t71.5 30t71 -30t27 -70.5zM766 653q0 90 -57.5 143.5t-163.5 53.5t-193 -80.5
t-119 -204.5h9l58 1l452 1q14 47 14 86zM507 92q126 0 241 53l18 -114q-105 -58 -226 -58q-216 0 -337 121t-121 330t139.5 375t347.5 166q147 0 236.5 -83.5t89.5 -200.5q0 -118 -41 -210l-639 -4l-2 -45q0 -158 84 -244t210 -86z" />
    <glyph glyph-name="igrave" unicode="&#xec;" horiz-adv-x="428" 
d="M63 0l181 928l131 26l-185 -954h-127zM289 1061l-240 366h164l170 -366h-94z" />
    <glyph glyph-name="iacute" unicode="&#xed;" horiz-adv-x="428" 
d="M63 0l181 928l131 26l-185 -954h-127zM365 1061h-101l316 366h168z" />
    <glyph glyph-name="icircumflex" unicode="&#xee;" horiz-adv-x="428" 
d="M530 1061l-137 276h-4l-242 -276h-118l305 373h143l160 -373h-107zM63 0l181 928l131 26l-185 -954h-127z" />
    <glyph glyph-name="idieresis" unicode="&#xef;" horiz-adv-x="428" 
d="M63 0l181 928l131 26l-185 -954h-127zM260 1214.5q0 -40.5 -26.5 -71.5t-70.5 -31t-70.5 31t-26.5 71.5t26.5 70.5t70.5 30t70.5 -30t26.5 -70.5zM655 1214.5q0 -40.5 -26.5 -71.5t-70.5 -31t-71.5 31t-27.5 71.5t27.5 70.5t71.5 30t70.5 -30t26.5 -70.5z" />
    <glyph glyph-name="eth" unicode="&#xf0;" horiz-adv-x="1069" 
d="M492 -20q-183 0 -299.5 109t-116.5 304t140 343.5t328 148.5q187 0 310 -137h4q-30 147 -213 405q0 2 -121 -31l-123 -32l-12 94l195 51q-58 78 -150 170l150 22q47 -48 135 -155l221 57l14 -94l-176 -45q222 -329 226 -623q0 -236 -142 -411.5t-370 -175.5zM870 532
q0 68 -6 111q-45 55 -132 92t-169 37q-154 0 -252 -112t-98 -261t79 -229t212 -80q165 0 241 104.5t100.5 187t24.5 150.5z" />
    <glyph glyph-name="ntilde" unicode="&#xf1;" horiz-adv-x="1034" 
d="M503 1212q-34 0 -58.5 -35.5t-47.5 -93.5h-92q31 104 80 169t128 65t145.5 -49t97 -71.5t63.5 -22.5t57.5 34.5t47.5 94.5h94q-33 -104 -82 -169t-127 -65t-144.5 49t-97 71.5t-64.5 22.5zM651 965q138 0 210.5 -70t72.5 -182q0 -47 -16 -127l-115 -586h-127l110 569
q17 82 17 113q0 78 -46.5 121t-128.5 43q-153 0 -304 -137l-140 -709h-127l183 938l133 27l-27 -142q167 142 305 142z" />
    <glyph glyph-name="ograve" unicode="&#xf2;" horiz-adv-x="1085" 
d="M802.5 759q-76.5 93 -216.5 93q-170 0 -274.5 -135.5t-104.5 -290.5t76.5 -246.5t230.5 -91.5t259.5 132t105.5 289t-76.5 250zM1008 522q0 -100 -38 -200.5t-105.5 -177t-164 -123t-200.5 -46.5q-194 0 -307 121t-113 328t146.5 373t371.5 166q183 0 296.5 -122.5
t113.5 -318.5zM584 1061l-240 366h164l170 -366h-94z" />
    <glyph glyph-name="oacute" unicode="&#xf3;" horiz-adv-x="1085" 
d="M655 1061h-100l315 366h168zM802.5 759q-76.5 93 -216.5 93q-170 0 -274.5 -135.5t-104.5 -290.5t76.5 -246.5t230.5 -91.5t259.5 132t105.5 289t-76.5 250zM1008 522q0 -100 -38 -200.5t-105.5 -177t-164 -123t-200.5 -46.5q-194 0 -307 121t-113 328t146.5 373
t371.5 166q183 0 296.5 -122.5t113.5 -318.5z" />
    <glyph glyph-name="ocircumflex" unicode="&#xf4;" horiz-adv-x="1085" 
d="M860 1061l-137 276h-4l-242 -276h-119l306 373h143l160 -373h-107zM802.5 759q-76.5 93 -216.5 93q-170 0 -274.5 -135.5t-104.5 -290.5t76.5 -246.5t230.5 -91.5t259.5 132t105.5 289t-76.5 250zM1008 522q0 -100 -38 -200.5t-105.5 -177t-164 -123t-200.5 -46.5
q-194 0 -307 121t-113 328t146.5 373t371.5 166q183 0 296.5 -122.5t113.5 -318.5z" />
    <glyph glyph-name="otilde" unicode="&#xf5;" horiz-adv-x="1085" 
d="M529 1212q-34 0 -58.5 -35.5t-46.5 -93.5h-92q31 104 80 169t128 65t145.5 -49t97 -71.5t63.5 -22.5t57.5 34.5t46.5 94.5h94q-33 -104 -82 -169t-127 -65t-144 49t-97 71.5t-65 22.5zM802.5 759q-76.5 93 -216.5 93q-170 0 -274.5 -135.5t-104.5 -290.5t76.5 -246.5
t230.5 -91.5t259.5 132t105.5 289t-76.5 250zM1008 522q0 -100 -38 -200.5t-105.5 -177t-164 -123t-200.5 -46.5q-194 0 -307 121t-113 328t146.5 373t371.5 166q183 0 296.5 -122.5t113.5 -318.5z" />
    <glyph glyph-name="odieresis" unicode="&#xf6;" horiz-adv-x="1085" 
d="M588 1214.5q0 -40.5 -27 -71.5t-71 -31t-70.5 31t-26.5 71.5t26.5 70.5t70.5 30t71 -30t27 -70.5zM983 1214.5q0 -40.5 -26.5 -71.5t-70.5 -31t-72 31t-28 71.5t28 70.5t72 30t70.5 -30t26.5 -70.5zM802.5 759q-76.5 93 -216.5 93q-170 0 -274.5 -135.5t-104.5 -290.5
t76.5 -246.5t230.5 -91.5t259.5 132t105.5 289t-76.5 250zM1008 522q0 -100 -38 -200.5t-105.5 -177t-164 -123t-200.5 -46.5q-194 0 -307 121t-113 328t146.5 373t371.5 166q183 0 296.5 -122.5t113.5 -318.5z" />
    <glyph glyph-name="divide" unicode="&#xf7;" horiz-adv-x="995" 
d="M606 766q0 -41 -29.5 -74t-76.5 -33t-76 33t-29 74t29 73.5t76 32.5t76.5 -32.5t29.5 -73.5zM606 192.5q0 -40.5 -28.5 -73.5t-75.5 -33t-77 33t-30 73.5t30 72.5t77 32t75.5 -32t28.5 -72.5zM84 426l6 111h817l6 -111h-829z" />
    <glyph glyph-name="oslash" unicode="&#xf8;" horiz-adv-x="1085" 
d="M505 88q171 0 277.5 132t106.5 284q0 151 -68 237l-481 -606q72 -47 165 -47zM592 852q-172 0 -278.5 -136.5t-106.5 -305.5q0 -127 67 -213l482 608q-72 47 -164 47zM1018 532q0 -226 -148 -391.5t-374 -165.5q-131 0 -232 64l-139 -176h-117l187 235q-115 119 -115 323
t147 373t373 169q131 0 229 -64l142 178h116q-98 -123 -186 -237q117 -121 117 -308z" />
    <glyph glyph-name="ugrave" unicode="&#xf9;" horiz-adv-x="1034" 
d="M100 225q0 42 17 127l114 586h127l-110 -569q-17 -82 -17 -113q0 -78 47.5 -121t129.5 -43q152 0 303 135l139 711h127l-182 -938l-133 -27l26 142q-168 -142 -305 -142t-210 70t-73 182zM580 1061l-240 366h164l170 -366h-94z" />
    <glyph glyph-name="uacute" unicode="&#xfa;" horiz-adv-x="1034" 
d="M659 1061h-100l315 366h168zM100 225q0 42 17 127l114 586h127l-110 -569q-17 -82 -17 -113q0 -78 47.5 -121t129.5 -43q152 0 303 135l139 711h127l-182 -938l-133 -27l26 142q-168 -142 -305 -142t-210 70t-73 182z" />
    <glyph glyph-name="ucircumflex" unicode="&#xfb;" horiz-adv-x="1034" 
d="M815 1061l-137 276h-4l-242 -276h-119l305 373h144l160 -373h-107zM100 225q0 42 17 127l114 586h127l-110 -569q-17 -82 -17 -113q0 -78 47.5 -121t129.5 -43q152 0 303 135l139 711h127l-182 -938l-133 -27l26 142q-168 -142 -305 -142t-210 70t-73 182z" />
    <glyph glyph-name="udieresis" unicode="&#xfc;" horiz-adv-x="1034" 
d="M543 1214.5q0 -40.5 -27 -71.5t-71 -31t-70.5 31t-26.5 71.5t26.5 70.5t70.5 30t71 -30t27 -70.5zM938 1214.5q0 -40.5 -26.5 -71.5t-70.5 -31t-72 31t-28 71.5t28 70.5t72 30t70.5 -30t26.5 -70.5zM100 225q0 42 17 127l114 586h127l-110 -569q-17 -82 -17 -113
q0 -78 47.5 -121t129.5 -43q152 0 303 135l139 711h127l-182 -938l-133 -27l26 142q-168 -142 -305 -142t-210 70t-73 182z" />
    <glyph glyph-name="yacute" unicode="&#xfd;" horiz-adv-x="866" 
d="M559 1061h-100l315 366h168zM-41 -371q91 0 195 183l122 206l-178 920h131l140 -776l442 776h141l-694 -1176q-124 -210 -195 -233t-117 -23q-83 0 -159 60l63 106q60 -43 109 -43z" />
    <glyph glyph-name="thorn" unicode="&#xfe;" horiz-adv-x="1058" 
d="M478 84q153 0 263.5 134t110.5 295t-76.5 248t-192.5 87t-253 -98l-109 -560q43 -47 110.5 -76.5t146.5 -29.5zM610 958q164 0 268.5 -115.5t104.5 -291.5q0 -243 -151 -410.5t-389 -167.5q-128 0 -248 93l-103 -543h-127l361 1857l133 27l-107 -549q53 39 113.5 69.5
t144.5 30.5z" />
    <glyph glyph-name="ydieresis" unicode="&#xff;" horiz-adv-x="866" 
d="M471 1214.5q0 -40.5 -26.5 -71.5t-70.5 -31t-71 31t-27 71.5t27 70.5t71 30t70.5 -30t26.5 -70.5zM866 1214.5q0 -40.5 -26.5 -71.5t-70.5 -31t-71.5 31t-27.5 71.5t27.5 70.5t71.5 30t70.5 -30t26.5 -70.5zM-41 -371q91 0 195 183l122 206l-178 920h131l140 -776
l442 776h141l-694 -1176q-124 -210 -195 -233t-117 -23q-83 0 -159 60l63 106q60 -43 109 -43z" />
    <glyph glyph-name="dotlessi" unicode="&#x131;" horiz-adv-x="428" 
d="M63 0l181 928l131 26l-185 -954h-127z" />
    <glyph glyph-name="Lslash" unicode="&#x141;" horiz-adv-x="1019" 
d="M352 547q-5 -30 -13.5 -72.5l-27.5 -137.5q-18 -95 -41 -212h633l-24 -125h-764q27 143 43 223t24 126t15.5 82t11.5 57l4 22l-150 -41v113l175 47l127 651h131q-32 -172 -52 -268q-25 -125 -62 -320l-5 -26l303 84v-115z" />
    <glyph glyph-name="lslash" unicode="&#x142;" horiz-adv-x="503" 
d="M332 545l-4 -23q-4 -23 -12.5 -61.5t-28 -145.5t-62.5 -315h-127l49 254q10 47 24 122.5t22 109.5l4 22l-154 -41v117l178 49l146 747l133 27l-144 -737l162 43v-117z" />
    <glyph glyph-name="OE" unicode="&#x152;" horiz-adv-x="1828" 
d="M268 563q0 -217 133.5 -328.5t360.5 -113.5h147l201 1038h-227q-267 0 -441 -157.5t-174 -438.5zM741 0q-264 0 -437 145t-173 404q0 318 201.5 524.5t574.5 206.5h979l-22 -121h-621l-90 -457h516l-22 -120h-517l-90 -461h623l-25 -121h-897z" />
    <glyph glyph-name="oe" unicode="&#x153;" horiz-adv-x="1738" 
d="M1550 653q0 90 -57 143.5t-156 53.5q-173 0 -238 -112t-81 -173h10l56 1l452 1q14 47 14 86zM283.5 179.5q76.5 -91.5 230.5 -91.5t259.5 132t105.5 289t-76.5 250t-216.5 93q-170 0 -274.5 -135.5t-104.5 -290.5t76.5 -246.5zM487 -25q-182 0 -294.5 121t-112.5 328
t146.5 373t371.5 166q135 0 226 -64.5t134 -175.5q61 106 162 174t239 68t229 -84.5t91 -200.5q0 -117 -43 -209l-637 -4q-2 -12 -2 -15v-30q0 -158 84 -244t211 -86t240 53l16 -114q-105 -58 -248 -58t-242.5 65.5t-146.5 182.5q-63 -111 -171.5 -178.5t-252.5 -67.5z" />
    <glyph glyph-name="Scaron" unicode="&#x160;" horiz-adv-x="1005" 
d="M520 1765l133 -278h4l244 278h119l-305 -372h-142l-159 372h106zM973 1067q-179 121 -380 121q-116 0 -198 -62t-82 -161t75.5 -153t169.5 -95q178 -77 260.5 -158t82.5 -211q0 -167 -125.5 -271t-316.5 -104q-123 0 -238 38t-198 93l32 127q88 -59 197 -100t195 -41
q149 0 238 67t89 184q0 118 -108.5 177.5t-211 104t-186.5 122t-84 197.5q0 169 125.5 266t300.5 97q113 0 217.5 -33t178.5 -80z" />
    <glyph glyph-name="scaron" unicode="&#x161;" horiz-adv-x="778" 
d="M360 1423l134 -278h4l243 278h119l-305 -372h-141l-160 372h106zM428 852q-80 0 -134 -39t-54 -104t50 -101.5t126 -72.5q143 -68 198.5 -122t55.5 -133q0 -143 -99 -225t-261 -82t-318 103l43 117q164 -107 302 -107t174 62.5t36 111.5t-50.5 87t-126.5 73
q-140 64 -196.5 118.5t-56.5 134.5q0 141 95 216.5t205 75.5q182 0 341 -95l-41 -116q-154 98 -289 98z" />
    <glyph glyph-name="Ydieresis" unicode="&#x178;" horiz-adv-x="1073" 
d="M614 1556.5q0 -40.5 -26.5 -71.5t-70.5 -31t-70.5 31t-26.5 71.5t26.5 70.5t70.5 30t70.5 -30t26.5 -70.5zM1010 1556.5q0 -40.5 -27 -71.5t-71 -31t-71.5 31t-27.5 71.5t27.5 70.5t71.5 30t71 -30t27 -70.5zM610 510l-100 -510h-127l100 518l-299 762h140l245 -643
l482 643h153z" />
    <glyph glyph-name="Zcaron" unicode="&#x17d;" horiz-adv-x="1044" 
d="M524 1765l133 -278h5l243 278h119l-305 -372h-141l-160 372h106zM-41 0l21 96l954 1063h-727l22 121h899l-18 -98l-952 -1061h745l-22 -121h-922z" />
    <glyph glyph-name="zcaron" unicode="&#x17e;" horiz-adv-x="796" 
d="M408 1423l133 -278h4l243 278h119l-305 -372h-141l-160 372h107zM-53 0l18 88l680 735h-520l22 115h695l-19 -88l-682 -735h539l-23 -115h-710z" />
    <glyph glyph-name="florin" unicode="&#x192;" horiz-adv-x="735" 
d="M641 1174q-68 0 -106.5 -47.5t-59.5 -145.5l-33 -164h244l-16 -112h-250l-86 -449q-27 -131 -91.5 -199.5t-191.5 -93.5l-28 117q92 16 134 62t58 126l84 434l-209 11l16 80l216 30l32 170q33 154 102.5 226.5t185.5 72.5t202 -65q-4 -7 -9 -19t-17.5 -34.5t-26.5 -53.5
q-82 54 -150 54z" />
    <glyph glyph-name="circumflex" unicode="&#x2c6;" 
d="M723 1061l-137 276h-4l-242 -276h-119l305 373h144l159 -373h-106z" />
    <glyph glyph-name="caron" unicode="&#x2c7;" 
d="M399 1423l133 -278h5l243 278h119l-305 -372h-141l-160 372h106z" />
    <glyph glyph-name="breve" unicode="&#x2d8;" 
d="M549 1161q145 0 252 271h100q-87 -263 -192 -318t-175 -55q-129 0 -187 103.5t-54 269.5h94q12 -271 162 -271z" />
    <glyph glyph-name="dotaccent" unicode="&#x2d9;" horiz-adv-x="811" 
d="M649 1212q0 -41 -26.5 -70.5t-69.5 -29.5t-68.5 29.5t-25.5 70.5t25.5 70t68.5 29t69.5 -29t26.5 -70z" />
    <glyph glyph-name="ring" unicode="&#x2da;" 
d="M721 1269q0 60 -42 97t-108 37t-110.5 -40t-44.5 -100t42 -97.5t106 -37.5t110.5 40.5t46.5 100.5zM567 1055q-104 0 -173.5 54t-69.5 148t71.5 157t175.5 63t172 -56.5t68 -150.5t-70 -154.5t-174 -60.5z" />
    <glyph glyph-name="ogonek" unicode="&#x2db;" 
d="M290 -416q61 0 161 39l-5 -82q-88 -47 -181 -47t-160.5 52.5t-67.5 130.5q0 137 128 239t269 131h129q-181 -71 -261.5 -130.5t-118.5 -110t-38 -108.5t42 -86t103 -28z" />
    <glyph glyph-name="tilde" unicode="&#x2dc;" 
d="M392 1212q-34 0 -58.5 -35.5t-46.5 -93.5h-92q31 104 80 169t128 65t145 -49t97 -71.5t64 -22.5t57.5 34.5t46.5 94.5h94q-33 -104 -82 -169t-127 -65t-144.5 49t-97 71.5t-64.5 22.5z" />
    <glyph glyph-name="hungarumlaut" unicode="&#x2dd;" 
d="M354 1051h-110l305 362h141zM674 1051h-113l330 362h141z" />
    <glyph glyph-name="endash" unicode="&#x2013;" horiz-adv-x="911" 
d="M66 440l6 101h774l6 -101h-786z" />
    <glyph glyph-name="emdash" unicode="&#x2014;" horiz-adv-x="1873" 
d="M66 440l6 101h1736l7 -101h-1749z" />
    <glyph glyph-name="quoteleft" unicode="&#x2018;" horiz-adv-x="382" 
d="M295 1015q0 -48 106 -97q-10 -39 -42.5 -64t-81.5 -25t-86 43.5t-37 101.5q0 111 99.5 206t225.5 157l45 -57q-152 -85 -190.5 -151t-38.5 -114z" />
    <glyph glyph-name="quoteright" unicode="&#x2019;" horiz-adv-x="382" 
d="M330 1147q0 64 -107 113q10 39 43 63.5t82 24.5t86 -43t37 -127.5t-98.5 -180t-227.5 -157.5l-45 57q153 86 191.5 151.5t38.5 98.5z" />
    <glyph glyph-name="quotesinglbase" unicode="&#x201a;" horiz-adv-x="382" 
d="M109 4q0 64 -107 113q10 39 43 63.5t82 24.5t86 -43t37 -126.5t-94.5 -176t-231.5 -162.5l-45 57q152 85 191 151t39 99z" />
    <glyph glyph-name="quotedblleft" unicode="&#x201c;" horiz-adv-x="772" 
d="M295 1015q0 -48 106 -97q-10 -39 -42.5 -64t-81.5 -25t-86 43.5t-37 101.5q0 111 99.5 206t225.5 157l45 -57q-152 -85 -190.5 -151t-38.5 -114zM698 1015q0 -48 107 -97q-10 -39 -42 -64t-82 -25t-87 43.5t-37 101.5q0 112 101.5 208t224.5 155l45 -57
q-153 -86 -191.5 -151.5t-38.5 -113.5z" />
    <glyph glyph-name="quotedblright" unicode="&#x201d;" horiz-adv-x="772" 
d="M330 1147q0 64 -107 113q10 39 43 63.5t82 24.5t86 -43t37 -127.5t-98.5 -180t-227.5 -157.5l-45 57q153 86 191.5 151.5t38.5 98.5zM733 1147q0 64 -106 113q10 39 42.5 63.5t81.5 24.5t87.5 -43t38.5 -127.5t-99 -179t-229 -158.5l-43 57q149 83 188 150t39 100z" />
    <glyph glyph-name="quotedblbase" unicode="&#x201e;" horiz-adv-x="772" 
d="M111 4q0 64 -107 113q10 39 43 63.5t82 24.5t86 -43t37 -126.5t-96 -177.5t-230 -161l-45 57q152 85 191 151t39 99zM514 4q0 64 -106 113q10 39 42.5 63.5t81.5 24.5t87 -43t38 -170.5t-327 -294.5l-43 57q147 83 187 150t40 100z" />
    <glyph glyph-name="dagger" unicode="&#x2020;" horiz-adv-x="954" 
d="M424 897v383h104v-383h357l-2 -96h-355v-1059h-104v1059h-352l-4 96h356z" />
    <glyph glyph-name="daggerdbl" unicode="&#x2021;" horiz-adv-x="954" 
d="M424 928v352h104v-352h357l-2 -97h-355v-643h355l2 -96h-357v-350h-104v350h-356l4 96h352v643h-352l-4 97h356z" />
    <glyph glyph-name="bullet" unicode="&#x2022;" horiz-adv-x="925" 
d="M814 330q-42 -106 -64 -127q-43 -41 -143.5 -82t-132.5 -41q-57 0 -156.5 40.5t-123.5 65.5t-44.5 63t-39 81t-30.5 83t-12 74.5t43 134.5t66 124q37 39 139.5 80.5t135.5 41.5q54 0 159 -42.5t130 -71.5q48 -42 81.5 -149t33.5 -138t-42 -137z" />
    <glyph glyph-name="ellipsis" unicode="&#x2026;" horiz-adv-x="1159" 
d="M221 80q0 -41 -27.5 -74t-73.5 -33t-75 33t-29 74t29 71.5t75 30.5t73.5 -30.5t27.5 -71.5zM610 80q0 -41 -28.5 -74t-73.5 -33t-73.5 33t-28.5 74t28.5 71.5t73.5 30.5t73.5 -30.5t28.5 -71.5zM997 80q0 -41 -27.5 -74t-73.5 -33t-74.5 33t-28.5 74t28.5 71.5t74.5 30.5
t73.5 -30.5t27.5 -71.5z" />
    <glyph glyph-name="perthousand" unicode="&#x2030;" horiz-adv-x="2291" 
d="M2090 483q-67 60 -175 60t-188 -83t-80 -193q0 -111 66.5 -170.5t176.5 -59.5t188.5 83t78.5 193t-67 170zM2140 61.5q-109 -110.5 -256 -110.5t-237.5 82.5t-90.5 229.5t108.5 257.5t256.5 110.5q149 0 238.5 -83.5t89.5 -229.5t-109 -256.5zM1316.5 483
q-67.5 60 -174.5 60t-187.5 -83.5t-80.5 -193.5t67 -169.5t177 -59.5t188 83.5t78 192.5q0 110 -67.5 170zM655.5 1175.5q-65.5 61.5 -174.5 61.5t-189.5 -82.5t-80.5 -193.5t66.5 -170.5t175.5 -59.5t188.5 81.5t79.5 191.5t-65.5 171.5zM1368 61.5
q-109 -110.5 -256 -110.5q-146 0 -237 81.5t-91 229.5t108.5 258.5t256.5 110.5t238 -84t90 -229q0 -146 -109 -256.5zM209 -31h-119l1294 1340h117zM702.5 754q-110.5 -109 -255.5 -109q-146 0 -237 82.5t-91 230.5q0 147 109 258t256 111t238 -83t91 -232t-110.5 -258z
" />
    <glyph glyph-name="guilsinglleft" unicode="&#x2039;" horiz-adv-x="671" 
d="M485 53l-432 359l27 135l571 356l-8 -110l-473 -324v-2l352 -328z" />
    <glyph glyph-name="guilsinglright" unicode="&#x203a;" horiz-adv-x="671" 
d="M25 51l8 111l471 321v2l-350 330l36 88l433 -360l-25 -135z" />
    <glyph glyph-name="fraction" unicode="&#x2044;" horiz-adv-x="1220" 
d="M68 -31h-109l1231 1340h108z" />
    <glyph glyph-name="Euro" unicode="&#x20ac;" horiz-adv-x="1032" 
d="M803 1292q92 0 184 -27.5t154 -74.5l-51 -107q-57 45 -138.5 71t-156.5 26q-255 0 -371 -326h483l-6 -92h-506q-27 -110 -33 -159.5t-10 -80.5h414l6 -92h-422q4 -168 80 -258t250 -90q125 0 223 43l-2 -113q-85 -39 -231 -43q-453 0 -453 461h-154l7 92h153
q6 104 39 240h-117l-6 92h152q113 315 266.5 376.5t245.5 61.5z" />
    <glyph glyph-name="trademark" unicode="&#x2122;" horiz-adv-x="1859" 
d="M578 1186v-670h-101v670h-287v96h687v-96h-299zM1718 516l-18 649h-14l-240 -639h-117l-213 639h-14l-25 -649h-94l31 766h170l202 -645h17l225 645h162l27 -766h-99z" />
    <glyph glyph-name="minus" unicode="&#x2212;" horiz-adv-x="995" 
d="M84 426l6 111h817l6 -111h-829z" />
    <glyph glyph-name="apple" unicode="&#xf8ff;" horiz-adv-x="1546" 
d="M1087 602l103 285l-285 -103l-129 273l-129 -273l-285 103l105 -285l-274 -129l274 -129l-105 -283l285 105l127 -277l131 277l285 -105l-103 287l271 127zM1194 303l141 -387l-387 141l-174 -370l-172 368l-383 -139l139 383l-370 176l370 170l-139 387l383 -141
l176 371l170 -371l387 141l-141 -387l369 -168z" />
    <glyph glyph-name="ff" unicode="&#xfb00;" horiz-adv-x="1214" 
d="M1206 1307q-134 0 -174 -201l-35 -172h271l-6 -115h-285l-160 -819h-127l160 819h-481l-160 -819h-125l158 819l-144 10l6 78l160 33l31 150q33 156 106.5 235.5t196.5 79.5t211 -66q-10 -24 -24.5 -50.5t-28.5 -57.5q-84 55 -161 55t-117 -58.5t-56 -142.5l-31 -151h479
l37 176q33 156 105.5 235.5t197.5 79.5t211 -65q-11 -28 -25 -53t-28 -56q-86 56 -162 56z" />
    <glyph glyph-name="fi" unicode="&#xfb01;" horiz-adv-x="1032" 
d="M405.5 1345.5q73.5 79.5 197.5 79.5t210 -65q-11 -28 -25 -53t-28 -56q-85 56 -162 56q-134 0 -172 -201l-35 -172h463l125 20l-184 -954h-127l159 819h-458l-160 -819h-125l158 819l-144 10l6 78l160 33l35 170q33 156 106.5 235.5z" />
    <glyph glyph-name="fl" unicode="&#xfb02;" horiz-adv-x="1030" 
d="M666 0l268 1380l133 27l-274 -1407h-127zM662 934v-115h-293l-160 -819h-125l158 819l-144 10l6 78l160 33l35 170q33 156 106.5 235.5t197.5 79.5t210 -65q-11 -28 -25 -53t-28 -56q-85 56 -162 56q-134 0 -172 -201l-35 -172h271z" />
    <glyph glyph-name="ffi" unicode="&#xfb03;" horiz-adv-x="1640" 
d="M1206 1307q-134 0 -174 -201l-35 -172h465l123 20l-184 -954h-125l160 819h-459l-160 -819h-127l160 819h-481l-160 -819h-125l158 819l-144 10l6 78l160 33l31 150q33 156 106.5 235.5t196.5 79.5t211 -66q-10 -24 -24.5 -50.5t-28.5 -57.5q-84 55 -161 55t-117 -58.5
t-56 -142.5l-31 -151h479l37 176q33 156 105.5 235.5t197.5 79.5t211 -65q-11 -28 -25 -53t-28 -56q-86 56 -162 56z" />
    <glyph glyph-name="ffl" unicode="&#xfb04;" horiz-adv-x="1636" 
d="M1206 1307q-134 0 -174 -201l-35 -172h271l-6 -115h-285l-160 -819h-127l160 819h-481l-160 -819h-125l158 819l-144 10l6 78l160 33l31 150q33 156 106.5 235.5t196.5 79.5t211 -66q-10 -24 -24.5 -50.5t-28.5 -57.5q-84 55 -161 55t-117 -58.5t-56 -142.5l-31 -151h479
l37 176q33 156 105.5 235.5t197.5 79.5t211 -65q-11 -28 -25 -53t-28 -56q-86 56 -162 56zM1274 0l268 1380l131 27l-274 -1407h-125z" />
    </font>
</defs>
</svg>
