<?xml version="1.0" standalone="no"?>
<!DOCTYPE svg PUBLIC "-//W3C//DTD SVG 1.1//EN" "http://www.w3.org/Graphics/SVG/1.1/DTD/svg11.dtd" >
<svg xmlns="http://www.w3.org/2000/svg">
<metadata>
Created by FontPrep 20130207 at Wed Sep  4 20:36:31 2013
 By Hendricks
Copyright  2004, Joshua Darden &#38; Phil's Fonts, Inc. All rights reserved. Published by Garagefonts USA 301-260-2285 www.garagefonts.com
</metadata>
<defs>
<font id="d43124cf73e2c91dd0805a3f1952972b" horiz-adv-x='1024' >
  <font-face 
    font-family="FreightSansLight"
    font-weight="400"
    font-stretch="normal"
    units-per-em="2048"
    panose-1="2 0 6 6 3 0 0 2 0 4"
    ascent="1638"
    descent="-410"
    x-height="938"
    cap-height="1280"
    bbox="-154 -528 2253 1759"
    underline-thickness="40"
    underline-position="-231"
    unicode-range="U+0020-FB04"
  />
<missing-glyph horiz-adv-x="1024" 
 />
    <glyph glyph-name=".notdef" horiz-adv-x="1024" 
 />
    <glyph glyph-name=".null" horiz-adv-x="0" 
 />
    <glyph glyph-name="nonmarkingreturn" horiz-adv-x="253" 
 />
    <glyph glyph-name="space" unicode=" " horiz-adv-x="253" 
 />
    <glyph glyph-name="exclam" unicode="!" horiz-adv-x="501" 
d="M324 56q0 -30 -20.5 -53t-53.5 -23t-52.5 23t-19.5 53t19.5 52.5t52.5 22.5t53.5 -22.5t20.5 -52.5zM201 1325h102l-27 -963h-47z" />
    <glyph glyph-name="quotedbl" unicode="&#x22;" horiz-adv-x="618" 
d="M-2 815l285 512l90 -45l-307 -467h-68zM299 815l285 512l90 -45l-307 -467h-68z" />
    <glyph glyph-name="numbersign" unicode="#" horiz-adv-x="1159" 
d="M416 770l-94 -348h376l95 348h-377zM84 770v70h278l127 475h74l-127 -475h375l127 475h74l-127 -475h188v-70h-209l-92 -348h260v-70h-280l-134 -504h-73l135 504h-377l-135 -504h-72l135 504h-188v70h207l94 348h-260z" />
    <glyph glyph-name="dollar" unicode="$" horiz-adv-x="974" 
d="M186 977q0 -145 112 -196.5t175 -73.5l70 516l-51 2q-143 0 -224.5 -73t-81.5 -175zM881 333q0 -154 -114.5 -253.5t-297.5 -99.5h-27l-30 -232h-76l33 238q-164 23 -291 108l33 74q120 -82 268 -107l78 566q-175 59 -234 106t-89 101.5t-30 130.5q0 147 111 241t277 94
h22q23 0 39 -2l27 197h75l-28 -209q134 -24 231 -92l-33 -76q-96 68 -209 92l-71 -526q158 -55 218 -108.5t89 -109.5t29 -133zM473 55q145 0 236.5 78.5t91.5 188.5q0 191 -275 280l-73 -547h20z" />
    <glyph glyph-name="percent" unicode="%" horiz-adv-x="1527" 
d="M1153 559q-123 0 -194.5 -79.5t-71.5 -191.5q0 -113 71.5 -191.5t194.5 -78.5t194.5 79t71.5 191q0 113 -71.5 192t-194.5 79zM181 1182q-72 -78 -72 -192t72 -192.5t194.5 -78.5t194 79.5t71.5 191.5q0 113 -71.5 191.5t-194 78.5t-194.5 -78zM1399 46.5
q-94 -97.5 -246 -97.5t-246 97.5t-94 241.5q0 143 94.5 242t245.5 99t245.5 -98.5t94.5 -242.5t-94 -241.5zM285 -31h-95l1057 1340h92zM620.5 747.5q-94.5 -98.5 -245.5 -98.5t-245.5 98.5t-94.5 242.5q0 143 94 241t246 98t246 -97.5t94 -241.5t-94.5 -242.5z" />
    <glyph glyph-name="ampersand" unicode="&#x26;" horiz-adv-x="1282" 
d="M691 68q-118 -88 -265 -88t-248.5 99.5t-101.5 235.5q0 248 323 373q-221 113 -221 301q0 123 97 216t239 93t233 -84t91 -200q0 -115 -73 -198t-202 -130q183 -91 336 -280l240 382h104l-301 -432l272 -340l-67 -41l-252 320q-86 -139 -204 -227zM162 315
q0 -103 78 -182.5t197 -79.5q217 0 417 289q-185 230 -397 313q-295 -129 -295 -340zM512 1225q-169 0 -208.5 -92.5t-39.5 -142.5q0 -96 68 -166t166 -111q123 51 189.5 118.5t66.5 164.5t-70 163t-172 66z" />
    <glyph glyph-name="quotesingle" unicode="'" horiz-adv-x="354" 
d="M-2 815l285 512l90 -45l-307 -467h-68z" />
    <glyph glyph-name="parenleft" unicode="(" horiz-adv-x="686" 
d="M141 479q0 180 52.5 333t131 272.5t171 204.5t174.5 128l45 -71q-80 -41 -167 -120t-159 -190.5t-119 -252t-47 -304.5t47 -304t119 -251.5t159 -190.5t167 -120l-45 -72q-82 43 -174.5 128t-171 205t-131 272.5t-52.5 332.5z" />
    <glyph glyph-name="parenright" unicode=")" horiz-adv-x="686" 
d="M463 479q0 164 -47 304.5t-119 252t-159 190.5t-167 120l45 71q82 -43 174.5 -128t171 -204.5t131 -272.5t52.5 -333t-52.5 -332.5t-131 -272.5t-171 -205t-174.5 -128l-45 72q80 41 167 120t159 190.5t119 251.5t47 304z" />
    <glyph glyph-name="asterisk" unicode="*" horiz-adv-x="684" 
d="M84 733l-51 72l258 166v10l-258 166l51 72l235 -207l7 2l80 301l83 -27l-122 -287l6 -6l299 27v-92l-299 26l-6 -6l122 -286l-83 -27l-80 301l-7 2z" />
    <glyph glyph-name="plus" unicode="+" horiz-adv-x="999" 
d="M543 442v-387h-82v387h-375l6 78h369v383h82v-383h364l6 -78h-370z" />
    <glyph glyph-name="comma" unicode="," horiz-adv-x="313" 
d="M174 -39q0 41 -27.5 61.5t-80.5 34.5q0 29 23.5 55.5t65.5 26.5t76.5 -36.5t34.5 -107.5t-55 -155t-150 -143l-38 35q151 111 151 229z" />
    <glyph glyph-name="hyphen" unicode="-" horiz-adv-x="561" 
d="M74 459v78h420v-78h-420z" />
    <glyph glyph-name="period" unicode="." horiz-adv-x="313" 
d="M229 56q0 -30 -20.5 -53t-53 -23t-52 23t-19.5 53t19.5 52.5t52 22.5t53 -22.5t20.5 -52.5z" />
    <glyph glyph-name="slash" unicode="/" horiz-adv-x="403" 
d="M-29 -408h-75l497 1846h78z" />
    <glyph glyph-name="zero" unicode="0" horiz-adv-x="1185" 
d="M885.5 784.5q-113.5 124.5 -292.5 124.5t-293 -123.5t-114 -301.5t114.5 -302.5t292.5 -124.5t292 125.5t114 301.5t-113.5 300.5zM940.5 124q-142.5 -144 -349.5 -144t-348 145t-141 358t141.5 358.5t347.5 145.5t349 -144.5t143 -359.5t-142.5 -359z" />
    <glyph glyph-name="one" unicode="1" horiz-adv-x="630" 
d="M418 0h-82v877l-238 -105l-6 80l326 135v-987z" />
    <glyph glyph-name="two" unicode="2" horiz-adv-x="864" 
d="M100 860q160 127 314 127t242.5 -82.5t88.5 -204.5q0 -86 -45 -160.5t-119.5 -148.5t-173 -149.5t-204.5 -161.5h590v-80h-693v88q147 113 253 197t205 184.5t99 218.5q0 92 -64.5 156.5t-170.5 64.5q-142 0 -291 -121z" />
    <glyph glyph-name="three" unicode="3" horiz-adv-x="821" 
d="M412 276q-113 0 -199 -20v63q211 53 321.5 143.5t110.5 209.5t-72.5 178t-172.5 59q-179 0 -328 -127l-33 68q66 55 161 96t181 41q166 0 258 -84t92 -219q0 -175 -122 -251t-183 -99q158 0 255 -93t97 -245t-122.5 -260.5t-299.5 -108.5q-84 0 -168 22.5t-141 57.5
l33 76q126 -78 274 -78t243 80t95 212t-84 205.5t-196 73.5z" />
    <glyph glyph-name="four" unicode="4" horiz-adv-x="978" 
d="M666 121v737l-551 -737h551zM750 43v-420h-84v420h-627l-16 74l655 882h72v-878h194l6 -78h-200z" />
    <glyph glyph-name="five" unicode="5" horiz-adv-x="837" 
d="M356 440q198 0 311 -107.5t113 -286.5t-125.5 -299t-299.5 -120t-314 80l18 82q150 -84 294 -84t243.5 95t99.5 243t-91.5 236t-228.5 88t-247 -41l-37 39l78 604h575l7 -80h-512l-68 -477q77 28 184 28z" />
    <glyph glyph-name="six" unicode="6" horiz-adv-x="1003" 
d="M178 505v-68q0 -48 22.5 -123.5t90.5 -168t218 -92.5t236 94.5t86 237.5t-81.5 221t-192.5 78q-112 0 -201.5 -39t-175.5 -125q-2 -12 -2 -15zM551 758q151 0 257.5 -92t106.5 -272q0 -181 -109 -297.5t-298 -116.5t-301.5 141.5t-112.5 349.5q0 271 184.5 513.5
t536.5 322.5l23 -76q-283 -67 -448 -240.5t-206 -388.5l2 -2q177 158 365 158z" />
    <glyph glyph-name="seven" unicode="7" horiz-adv-x="862" 
d="M813 969v-60l-582 -1286h-86l576 1264h-680l6 82h766z" />
    <glyph glyph-name="eight" unicode="8" horiz-adv-x="968" 
d="M872 325.5q0 -65.5 -23.5 -128t-70.5 -110.5t-120.5 -77.5t-220 -29.5t-244 94.5t-97.5 229.5q0 230 293 345q-126 53 -176.5 100.5t-73 95t-22.5 117.5t28.5 133.5t78.5 108.5t118 69.5t183 24.5t221 -88t106 -250t-110.5 -231.5t-151.5 -87.5q142 -64 188.5 -109
t70 -93t23.5 -113.5zM180 324q0 -123 76 -197t228 -74t228 71.5t76 188.5q0 161 -134 219.5t-197 85.5q-277 -98 -277 -294zM768 954q0 115 -78 193t-206 78t-205.5 -78.5t-77.5 -183.5q0 -145 131 -204.5t192 -86.5q244 93 244 282z" />
    <glyph glyph-name="nine" unicode="9" horiz-adv-x="1003" 
d="M825 461v70q0 49 -21.5 125.5t-87 166.5t-217.5 90t-239.5 -93.5t-87.5 -237.5q0 -143 83.5 -221t193.5 -78t199 38.5t175 124.5q2 12 2 15zM453 209q-151 0 -258 92t-107 273t110 297t297 116t300.5 -141t113.5 -350q0 -270 -184 -513t-537 -323l-22 76
q284 68 449.5 243t203.5 386l-2 2q-177 -158 -364 -158z" />
    <glyph glyph-name="colon" unicode=":" horiz-adv-x="313" 
d="M229 56q0 -30 -20.5 -53t-53 -23t-52 23t-19.5 53t19.5 52.5t52 22.5t53 -22.5t20.5 -52.5zM229 730q0 -30 -20.5 -53.5t-53 -23.5t-52 23.5t-19.5 53.5t19.5 52.5t52 22.5t53 -22.5t20.5 -52.5z" />
    <glyph glyph-name="semicolon" unicode=";" horiz-adv-x="313" 
d="M174 -39q0 41 -27.5 61.5t-80.5 34.5q0 29 23.5 55.5t65.5 26.5t76.5 -36.5t34.5 -107.5t-55 -155t-150 -143l-38 35q151 111 151 229zM229 730q0 -30 -20.5 -53.5t-53 -23.5t-52 23.5t-19.5 53.5t19.5 52.5t52 22.5t53 -22.5t20.5 -52.5z" />
    <glyph glyph-name="less" unicode="&#x3c;" horiz-adv-x="894" 
d="M811 39l-739 393v98l739 394v-86l-666 -349v-18l666 -348v-84z" />
    <glyph glyph-name="equal" unicode="=" horiz-adv-x="876" 
d="M74 268l6 78h719l6 -78h-731zM80 614l-6 78h731l-6 -78h-719z" />
    <glyph glyph-name="greater" unicode="&#x3e;" horiz-adv-x="894" 
d="M98 39v84l666 348v18l-666 349v86l740 -394v-98z" />
    <glyph glyph-name="question" unicode="?" horiz-adv-x="698" 
d="M369 56q0 -30 -20.5 -53t-53.5 -23t-52.5 23t-19.5 53t19.5 52.5t52.5 22.5t53.5 -22.5t20.5 -52.5zM267 1309q71 0 140.5 -31t138 -104t68.5 -205q0 -159 -86 -208.5t-150 -79.5t-102 -59.5t-38 -76.5q0 -91 133 -176l-52 -21q-155 96 -155 197q0 78 50 123.5t114 73.5
q115 49 162 95.5t47 114.5q0 122 -80 202.5t-207 80.5q-74 0 -139 -21v76q85 19 156 19z" />
    <glyph glyph-name="at" unicode="@" horiz-adv-x="1708" 
d="M1096 772q-90 90 -213.5 90t-220.5 -125t-97 -293q0 -113 57.5 -188.5t168 -75.5t213.5 135zM911 930q96 0 201 -80l92 59l-100 -481q-27 -125 17 -189.5t148 -64.5t192.5 121t88.5 332q0 139 -56 252.5t-201 237.5t-412 124q-150 0 -280 -60.5t-227.5 -163
t-152.5 -236.5t-55 -280t48 -271.5t135 -218.5t208 -147t253 -54t261 43l12 -58q-304 -92 -561.5 20t-339.5 318.5t-82 366.5t60.5 305t166 253.5t247.5 172t298 63.5t289 -47t234.5 -133t161 -210t59.5 -263q0 -254 -108 -393t-255 -139q-90 0 -149.5 46t-79.5 105
q-70 -86 -131.5 -118.5t-159.5 -32.5t-176 97t-78 238q0 201 127.5 343.5t304.5 142.5z" />
    <glyph glyph-name="A" unicode="A" horiz-adv-x="1179" 
d="M592 1204l-275 -727h543zM1128 0h-88l-149 399h-604l-150 -399h-86l490 1280h106z" />
    <glyph glyph-name="B" unicode="B" horiz-adv-x="1093" 
d="M920 352q0 113 -93.5 181.5t-302.5 68.5h-270v-524h309q277 0 317 107.5t40 166.5zM879 946q0 117 -80 186.5t-262 69.5h-283v-522h270q246 0 300.5 99t54.5 167zM1006 350q0 -247 -163 -298.5t-282 -51.5h-393v1280h373q325 0 374.5 -128t49.5 -186q0 -114 -69 -204.5
t-204 -112.5q156 -20 235 -101t79 -198z" />
    <glyph glyph-name="C" unicode="C" horiz-adv-x="1169" 
d="M1051 1124q-157 99 -368 99t-353 -155.5t-142 -427.5t138 -427.5t357 -155.5t366 105l20 -80q-157 -102 -377 -102q-273 0 -432.5 176.5t-159.5 479.5t167.5 483.5t426.5 180.5q215 0 383 -102z" />
    <glyph glyph-name="D" unicode="D" horiz-adv-x="1251" 
d="M907 1049.5q-160 152.5 -438 152.5h-215v-1124h215q272 0 435 140.5t163 409.5t-160 421.5zM973 170q-182 -170 -508 -170h-297v1280h309q308 0 493 -174.5t185 -469.5q0 -296 -182 -466z" />
    <glyph glyph-name="E" unicode="E" horiz-adv-x="1003" 
d="M168 0v1280h733v-78h-647v-524h541v-76h-541v-524h647v-78h-733z" />
    <glyph glyph-name="F" unicode="F" horiz-adv-x="948" 
d="M168 1280h715v-80h-629v-541h522v-77h-522v-582h-86v1280z" />
    <glyph glyph-name="G" unicode="G" horiz-adv-x="1249" 
d="M1114 109q-180 -129 -437 -129t-417 176.5t-160 479.5t167.5 483.5t426.5 180.5q215 0 383 -102l-26 -74q-157 99 -368 99t-353 -155.5t-142 -427.5t138 -427.5t368 -155.5q189 0 336 93v393h-383v75h467v-509z" />
    <glyph glyph-name="H" unicode="H" horiz-adv-x="1306" 
d="M1053 0v604h-799v-604h-86v1280h86v-600h799v600h86v-1280h-86z" />
    <glyph glyph-name="I" unicode="I" horiz-adv-x="425" 
d="M170 0v1280h86v-1280h-86z" />
    <glyph glyph-name="J" unicode="J" horiz-adv-x="837" 
d="M614 399v881h86v-883q0 -195 -92 -306t-291 -111q-155 0 -288 79l18 84q142 -88 280 -88t212.5 88t74.5 256z" />
    <glyph glyph-name="K" unicode="K" horiz-adv-x="1075" 
d="M254 616v-616h-86v1280h86v-618h2l643 618h115l-674 -637l686 -643h-115l-655 616h-2z" />
    <glyph glyph-name="L" unicode="L" horiz-adv-x="944" 
d="M168 0v1280h86v-1200h647v-80h-733z" />
    <glyph glyph-name="M" unicode="M" horiz-adv-x="1536" 
d="M1280 1171l-455 -1173h-110l-459 1176l-29 -1174h-88l43 1280h121l469 -1210l465 1210h119l39 -1280h-86z" />
    <glyph glyph-name="N" unicode="N" horiz-adv-x="1292" 
d="M1042 1280h82v-1292h-94l-780 1173v-1161h-82v1280h100l774 -1163v1163z" />
    <glyph glyph-name="O" unicode="O" horiz-adv-x="1429" 
d="M1241 639q0 129 -41 236.5t-111.5 185.5t-168 121t-210 43t-208.5 -43t-166 -120t-109 -183.5t-39 -235.5t41 -236.5t112 -185.5t168 -122t209.5 -44t209 43t166 121t108.5 184.5t39 235.5zM1154 163q-175 -183 -441 -183q-127 0 -239 49t-194.5 136t-131 209t-48.5 268
q0 291 173.5 474.5t438.5 183.5t441 -187t176 -477t-175 -473z" />
    <glyph glyph-name="P" unicode="P" horiz-adv-x="1024" 
d="M854 876q0 162 -104.5 244t-294.5 82h-201v-647l178 2q422 8 422 319zM944 880q0 -190 -137 -293.5t-375 -107.5l-178 -2v-477h-86v1280h287q244 0 366.5 -105t122.5 -295z" />
    <glyph glyph-name="Q" unicode="Q" horiz-adv-x="1429" 
d="M1241 639q0 129 -41 236.5t-111.5 185.5t-168 121t-210 43t-208.5 -43t-166 -120t-109 -183.5t-39 -235.5t41 -236.5t112 -185.5t168 -122t209.5 -44t209 43t166 121t108.5 184.5t39 235.5zM713 -20q-127 0 -239 49t-194.5 136t-131 209t-48.5 268q0 291 173.5 474.5
t438.5 183.5t441 -187t176 -470q0 -226 -107 -392.5t-288 -232.5l436 -225l-39 -74l-497 271q-73 -10 -121 -10z" />
    <glyph glyph-name="R" unicode="R" horiz-adv-x="1050" 
d="M461 1202h-207v-592l248 8q132 4 236 85t104 215t-94.5 209t-286.5 75zM254 0h-86v1280h303q240 0 349.5 -99.5t109.5 -262.5q0 -202 -124 -268t-183 -83l364 -567h-96l-346 551l-291 -19v-532z" />
    <glyph glyph-name="S" unicode="S" horiz-adv-x="964" 
d="M801 322q0 167 -135.5 222.5t-203.5 79.5q-177 62 -269.5 134t-92.5 212t112 235t297 95t347 -106l-33 -76q-157 107 -318 107t-242 -73t-81 -179t82 -164t201 -99t267.5 -105.5t148.5 -274.5q0 -149 -115.5 -249.5t-316.5 -100.5t-373 114l33 74q166 -113 362 -113
q147 0 238.5 78.5t91.5 188.5z" />
    <glyph glyph-name="T" unicode="T" horiz-adv-x="1105" 
d="M596 1200v-1200h-86v1200h-453v80h992v-80h-453z" />
    <glyph glyph-name="U" unicode="U" horiz-adv-x="1200" 
d="M1063 483q0 -359 -175 -431t-290 -72q-223 0 -342 128t-119 355v817h84v-811q0 -193 95.5 -303.5t285.5 -110.5t283.5 113t93.5 317v795h84v-797z" />
    <glyph glyph-name="V" unicode="V" horiz-adv-x="1120" 
d="M610 0h-102l-467 1280h88l432 -1196l432 1196h86z" />
    <glyph glyph-name="W" unicode="W" horiz-adv-x="1826" 
d="M549 0h-80l-365 1280h89l321 -1147l350 1147h109l356 -1147l303 1147h90l-354 -1280h-80l-370 1188z" />
    <glyph glyph-name="X" unicode="X" horiz-adv-x="1124" 
d="M129 0h-100l481 659l-447 621h99l401 -567l402 567h98l-451 -618l482 -662h-101l-434 608z" />
    <glyph glyph-name="Y" unicode="Y" horiz-adv-x="1038" 
d="M563 0h-86v518l-448 762h96l397 -678l393 678h95l-447 -760v-520z" />
    <glyph glyph-name="Z" unicode="Z" horiz-adv-x="1019" 
d="M53 0v61l795 1143h-764v76h870v-61l-794 -1143h792v-76h-899z" />
    <glyph glyph-name="bracketleft" unicode="[" horiz-adv-x="837" 
d="M233 -455v1837h502v-73h-416v-1690h416v-74h-502z" />
    <glyph glyph-name="backslash" unicode="\" horiz-adv-x="403" 
d="M14 1438l498 -1846h-76l-499 1846h77z" />
    <glyph glyph-name="bracketright" unicode="]" horiz-adv-x="837" 
d="M102 -381h416v1690h-416v73h502v-1837h-502v74z" />
    <glyph glyph-name="asciicircum" unicode="^" horiz-adv-x="735" 
d="M623 1055l-211 295h-4l-211 -295h-68l229 362h103l229 -362h-67z" />
    <glyph glyph-name="underscore" unicode="_" horiz-adv-x="878" 
d="M-18 -78v78h915v-78h-915z" />
    <glyph glyph-name="grave" unicode="`" horiz-adv-x="817" 
d="M471 1055l-324 362h119l269 -362h-64z" />
    <glyph glyph-name="a" unicode="a" horiz-adv-x="874" 
d="M415 958q316 0 316 -305v-508q0 -43 17.5 -71.5t80.5 -26.5l-6 -63q-70 -4 -115.5 30.5t-50.5 112.5h-2q-42 -56 -123 -101.5t-156 -45.5q-139 0 -222.5 68.5t-83.5 178.5q0 296 577 332v86q0 236 -229 236q-117 0 -202 -49.5t-114 -71.5l-20 84q66 47 161 80.5t172 33.5
zM154 236q0 -88 64.5 -135.5t153.5 -47.5t159.5 46t115.5 100v299q-389 -40 -441 -125.5t-52 -136.5z" />
    <glyph glyph-name="b" unicode="b" horiz-adv-x="1021" 
d="M500 55q157 0 255.5 117.5t98.5 297.5t-91.5 291t-247.5 111t-279 -118v-621q45 -35 116.5 -56.5t147.5 -21.5zM236 827q139 121 308 121t282.5 -126t113.5 -343t-127 -358t-324 -141q-134 0 -256 71l-81 -80v1411l84 25v-580z" />
    <glyph glyph-name="c" unicode="c" horiz-adv-x="911" 
d="M214.5 818q124.5 140 306.5 140t296 -77l-20 -76q-117 76 -268 76t-252 -116.5t-101 -297.5t103 -295.5t266 -114.5q127 0 250 78l20 -76q-129 -79 -249 -79q-121 0 -204 35.5t-177.5 136t-94.5 313.5t124.5 353z" />
    <glyph glyph-name="d" unicode="d" horiz-adv-x="1028" 
d="M530 872q-156 0 -255 -116t-99 -294t94 -293.5t245.5 -115.5t279.5 121v621q-45 35 -117 56t-148 21zM559 948q117 0 236 -71v503l84 27v-1407h-84v92q-43 -41 -117 -76.5t-165 -35.5q-187 0 -305 131.5t-118 348.5t127 352.5t342 135.5z" />
    <glyph glyph-name="e" unicode="e" horiz-adv-x="942" 
d="M499 881q-122 0 -208 -89.5t-109 -232.5h561q6 35 7 70q0 111 -64.5 181.5t-186.5 70.5zM803 59q-124 -79 -302 -79t-294.5 136.5t-116.5 349t117.5 352.5t302.5 140q141 0 233.5 -88.5t92.5 -234.5q0 -67 -21 -148l-639 -4v-14q0 -183 94 -297.5t243.5 -114.5t270.5 78z
" />
    <glyph glyph-name="f" unicode="f" horiz-adv-x="571" 
d="M420 1350q-170 0 -170 -238v-184h291l-6 -72h-285v-856h-84v852l-135 8l6 53l127 17l2 178q7 317 256 317q88 0 158 -36l-21 -76q-76 37 -139 37z" />
    <glyph glyph-name="g" unicode="g" horiz-adv-x="942" 
d="M705 844q88 -88 88 -240q0 -146 -102.5 -241t-254.5 -95q-73 0 -145 31q-45 -23 -81 -53.5t-36 -75.5q0 -104 211 -104h156q199 0 284.5 -67t85.5 -159q0 -161 -146.5 -254.5t-336.5 -93.5t-300 77t-110 195q0 77 59 148t148 100q-135 35 -135 140q0 59 47 103t105 71
q-59 41 -102.5 113.5t-43.5 160.5q0 166 102 262t237 96t218 -55l279 17l6 -86zM96 -238q0 -80 88 -140t251 -60t279.5 74t116.5 173t-75.5 139t-214.5 40h-87q-88 0 -137 4q-98 -25 -159.5 -87.5t-61.5 -142.5zM709 610.5q0 116.5 -68 197.5t-196 81t-197.5 -80t-69.5 -197
t70.5 -196.5t193.5 -79.5t195 79t72 195.5z" />
    <glyph glyph-name="h" unicode="h" horiz-adv-x="1007" 
d="M559 881q-163 0 -323 -162v-719h-84v1380l84 27v-610q82 84 174 122.5t159 38.5q139 0 217 -80.5t78 -236.5v-641h-84v623q0 258 -221 258z" />
    <glyph glyph-name="i" unicode="i" horiz-adv-x="395" 
d="M156 0v932l84 26v-958h-84zM258 1226q0 -24 -16.5 -44.5t-45 -20.5t-44 20.5t-15.5 44.5t15.5 43t44 19t45 -19t16.5 -43z" />
    <glyph glyph-name="j" unicode="j" horiz-adv-x="395" 
d="M156 -82v1014l84 26v-1052q0 -160 -52.5 -258.5t-173.5 -161.5l-59 59q117 66 159 145.5t42 227.5zM258 1226q0 -24 -16.5 -44.5t-45 -20.5t-44 20.5t-15.5 44.5t15.5 43t44 19t45 -19t16.5 -43z" />
    <glyph glyph-name="k" unicode="k" horiz-adv-x="843" 
d="M236 473v-473h-84v1380l84 27v-905h4l454 436h109l-473 -451l475 -487h-111l-454 473h-4z" />
    <glyph glyph-name="l" unicode="l" horiz-adv-x="385" 
d="M152 0v1380l84 27v-1407h-84z" />
    <glyph glyph-name="m" unicode="m" horiz-adv-x="1550" 
d="M526 958q195 0 265 -155q80 82 168 118.5t153 36.5q139 0 217 -80.5t78 -236.5v-641h-84v623q0 258 -221 258q-142 0 -291 -136q10 -45 10 -114v-631h-84v623q0 258 -221 258q-140 0 -280 -123v-758h-84v932l84 26v-127q76 66 153.5 96.5t136.5 30.5z" />
    <glyph glyph-name="n" unicode="n" horiz-adv-x="1007" 
d="M559 881q-163 0 -323 -162v-719h-84v932l84 26v-163q82 84 174 123.5t159 39.5q139 0 217 -80.5t78 -236.5v-641h-84v623q0 258 -221 258z" />
    <glyph glyph-name="o" unicode="o" horiz-adv-x="1093" 
d="M280 765.5q-106 -117.5 -106 -303.5q0 -185 105.5 -296t267.5 -111t267.5 118.5t105.5 300.5t-105 295.5t-267 113.5t-268 -117.5zM869.5 116.5q-134.5 -136.5 -328.5 -136.5t-322.5 133t-128.5 352.5t134.5 356t328.5 136.5t322.5 -133t128.5 -352.5t-134.5 -356z" />
    <glyph glyph-name="p" unicode="p" horiz-adv-x="1030" 
d="M500 55q156 0 255 116t99 295t-94 292.5t-210 113.5t-188.5 -33.5t-125.5 -84.5v-621q45 -35 116.5 -56.5t147.5 -21.5zM236 -477h-84v1421l84 25v-133q43 41 116.5 76.5t164.5 35.5q186 0 304.5 -131t118.5 -348q0 -218 -126 -353.5t-342 -135.5q-116 0 -236 71v-528z
" />
    <glyph glyph-name="q" unicode="q" horiz-adv-x="1028" 
d="M530 872q-156 0 -255 -116t-99 -295t94 -292.5t246.5 -113.5t278.5 119v621q-45 35 -117 56t-148 21zM560 948q118 0 237 -71l82 81v-1435h-84v569q-43 -41 -117 -76.5t-165 -35.5q-187 0 -305 131.5t-118 348.5t127 352.5t343 135.5z" />
    <glyph glyph-name="r" unicode="r" horiz-adv-x="675" 
d="M516 881q-173 0 -280 -291v-590h-84v932l84 26v-233q41 104 116.5 168.5t166.5 64.5t159 -38l-25 -76q-61 37 -137 37z" />
    <glyph glyph-name="s" unicode="s" horiz-adv-x="761" 
d="M381 887q-106 0 -163.5 -47t-57.5 -125q0 -116 100 -150.5t148 -50.5q125 -42 195.5 -98t70.5 -174t-91.5 -190t-236.5 -72q-146 0 -274 79l26 78q127 -84 262 -84q91 0 164.5 48.5t73.5 134.5q0 124 -145 174t-257 99t-112 196q0 119 83.5 186t216.5 67t261 -67l-29 -76
q-129 72 -235 72z" />
    <glyph glyph-name="t" unicode="t" horiz-adv-x="653" 
d="M382 45q83 0 191 55l17 -71q-97 -60 -219 -60q-232 0 -221 299l16 584l-129 8l6 53l125 17l6 223h82l-6 -225h334l-6 -72h-330l-17 -590q-4 -117 32 -169t119 -52z" />
    <glyph glyph-name="u" unicode="u" horiz-adv-x="1005" 
d="M449 57q161 0 323 162v719h84v-932l-84 -26v165q-82 -84 -174 -124.5t-160 -40.5q-139 0 -217 80.5t-78 236.5v641h84v-623q0 -258 222 -258z" />
    <glyph glyph-name="v" unicode="v" horiz-adv-x="831" 
d="M453 -2h-72l-371 940h90l320 -819l313 819h88z" />
    <glyph glyph-name="w" unicode="w" horiz-adv-x="1310" 
d="M317 -2l-284 940h88l235 -801l275 801h74l270 -805l221 805h88l-274 -940h-72l-270 813l-283 -813h-68z" />
    <glyph glyph-name="x" unicode="x" horiz-adv-x="765" 
d="M655 0l-272 424l-274 -424h-95l326 483l-303 455h92l254 -393l254 393h90l-301 -451l326 -487h-97z" />
    <glyph glyph-name="y" unicode="y" horiz-adv-x="831" 
d="M83 -412q44 0 99.5 20.5t124.5 211.5l70 188l-367 930h90l320 -821l313 821h88l-354 -907l-88 -240q-87 -230 -162.5 -254t-138.5 -24t-139 36l24 76q76 -37 120 -37z" />
    <glyph glyph-name="z" unicode="z" horiz-adv-x="765" 
d="M43 0v57l573 809h-555v72h656v-57l-574 -809h574v-72h-674z" />
    <glyph glyph-name="braceleft" unicode="{" horiz-adv-x="663" 
d="M201 -222q0 65 17.5 122t37.5 110t37.5 103.5t17.5 100.5q0 105 -62 151t-210 57l-6 53l6 53q154 12 213 57.5t59 149.5q0 51 -17.5 101.5t-55 150t-37.5 184.5q0 127 112.5 180.5t319.5 65.5v-69q-193 -14 -269.5 -53.5t-76.5 -112.5q0 -49 17.5 -105.5t37.5 -115
t37.5 -112.5t17.5 -132t-72 -156.5t-216 -85.5v-2q144 -7 216 -85.5t72 -188.5q0 -57 -37.5 -163t-55 -161t-17.5 -102q0 -78 76.5 -118t269.5 -54v-70q-326 19 -379 100.5t-53 146.5z" />
    <glyph glyph-name="bar" unicode="|" horiz-adv-x="548" 
d="M231 1438h86v-1846h-86v1846z" />
    <glyph glyph-name="braceright" unicode="}" horiz-adv-x="663" 
d="M350 211q0 -51 17.5 -101.5t39 -103.5t39 -110.5t17.5 -150.5t-108 -148t-326 -68v70q198 16 254.5 44.5t75 56.5t18.5 70q0 56 -55.5 214.5t-55.5 209.5q0 112 72.5 191t216.5 86v2q-144 7 -216.5 86t-72.5 189q0 47 17.5 101t55.5 160.5t38 156.5q0 49 -18.5 77.5
t-77 56.5t-252.5 46v69q328 -19 381 -100.5t53 -146.5q0 -93 -56.5 -232t-56.5 -197q0 -109 60.5 -156t214.5 -59l4 -53l-4 -53q-154 -12 -214.5 -57.5t-60.5 -149.5z" />
    <glyph glyph-name="asciitilde" unicode="~" horiz-adv-x="735" 
d="M557 358q-41 0 -82 24t-81 52.5t-74.5 52t-66.5 23.5t-53.5 -26.5t-52.5 -114.5h-51q39 213 166 213q60 0 132.5 -52.5t107 -76t64.5 -23.5t52.5 26.5t51.5 114.5h53q-39 -213 -166 -213z" />
    <glyph glyph-name="nonbreakingspace" unicode="&#xa0;" horiz-adv-x="243" 
 />
    <glyph glyph-name="exclamdown" unicode="&#xa1;" horiz-adv-x="501" 
d="M301 -45h-102l26 963h47zM178 1224q0 30 20.5 53t53.5 23t52.5 -23t19.5 -53t-19.5 -52.5t-52.5 -22.5t-53.5 22.5t-20.5 52.5z" />
    <glyph glyph-name="cent" unicode="&#xa2;" horiz-adv-x="911" 
d="M535 881q-157 0 -258 -116.5t-101 -282.5q0 -165 70.5 -271.5t193.5 -140.5l109 811h-14zM90 473q0 205 124.5 345t320.5 140h24l27 191h76l-27 -199q102 -18 182 -69l-20 -76q-70 46 -172 67l-111 -815h31q127 0 250 78l20 -76q-129 -79 -270 -79h-15q-16 0 -26 2
l-31 -234h-76l17 123q6 47 11 84t5 39q-239 57 -289.5 219t-50.5 260z" />
    <glyph glyph-name="sterling" unicode="&#xa3;" horiz-adv-x="980" 
d="M260 887q0 197 88 311.5t275 114.5q143 0 256 -66l-25 -73q-115 61 -238 61q-274 0 -274 -330q0 -104 8 -256h400l-7 -76h-389q4 -106 4 -212t-16 -156q110 -104 202.5 -132t123.5 -28q78 0 137 46t90 177l61 -14q-20 -139 -96 -211t-180 -72q-184 0 -363 170
q-60 -111 -266 -176l-18 72q142 49 192.5 114t50.5 185q0 119 -6 237h-192l-6 76h196q-8 132 -8 238z" />
    <glyph glyph-name="currency" unicode="&#xa4;" horiz-adv-x="1036" 
d="M211 640q0 66 6 128h-137l-6 72h151q35 221 152 347t297 126t295 -62l-19 -75q-119 63 -272 63q-152 0 -247 -100.5t-124 -298.5h498l-6 -72h-500q-4 -58 -4 -124t4 -128h438l6 -72h-436q58 -401 375 -401q149 0 270 57l13 -73q-118 -58 -302 -58t-295.5 125t-144.5 350
h-149l6 72h135q-4 58 -4 124z" />
    <glyph glyph-name="yen" unicode="&#xa5;" horiz-adv-x="1120" 
d="M563 543v-201h357l6 -74h-363v-268h-86v268h-364l6 74h358v201h-358l-6 73h325l-409 664h94l399 -664l396 664h92l-205 -332q-39 -61 -91 -148.5t-96 -154.5l-18 -29h326l-6 -73h-357z" />
    <glyph glyph-name="brokenbar" unicode="&#xa6;" horiz-adv-x="768" 
d="M543 375v905h86v-911q0 -389 -350 -389q-70 0 -138.5 21.5t-109.5 45.5l16 86q114 -78 236 -78q260 0 260 320z" />
    <glyph glyph-name="section" unicode="&#xa7;" horiz-adv-x="958" 
d="M838 569q0 68 -44 109t-111 68.5t-146.5 50t-151.5 49.5q-172 -56 -218 -118t-46 -115t46 -93.5t116.5 -68t153.5 -50t157 -53.5q244 83 244 221zM262 1073q0 -106 121 -145.5t183 -57.5q165 -50 257 -109t92 -181q0 -96 -70.5 -164.5t-189.5 -100.5q119 -70 119 -189
t-95 -190t-242 -71t-273 80l26 73q126 -79 243 -79t190 49.5t73 130.5q0 120 -126 160.5t-187 58.5q-161 49 -250.5 106t-89.5 166q0 148 107.5 202t164.5 67q-59 31 -95 73.5t-36 109.5q0 125 88 189t219 64q132 0 263 -68l-29 -71q-128 67 -235 67t-167.5 -46t-60.5 -124z
" />
    <glyph glyph-name="dieresis" unicode="&#xa8;" 
d="M295 1226.5q0 -28.5 -19.5 -52t-52.5 -23.5t-51 23.5t-18 52t18 50t51 21.5t52.5 -21.5t19.5 -50zM666 1226.5q0 -28.5 -19.5 -52t-51.5 -23.5t-52.5 23.5t-20.5 52t20.5 50t52.5 21.5t51.5 -21.5t19.5 -50z" />
    <glyph glyph-name="copyright" unicode="&#xa9;" horiz-adv-x="1497" 
d="M516 360.5q-96 100.5 -96 272.5t97 276.5t243 104.5t237 -60l-26 -71q-90 57 -203 57t-188.5 -79t-75.5 -221t73.5 -224t191.5 -82t208 65l14 -80q-83 -59 -231 -59t-244 100.5zM1364 640q0 126 -48 237.5t-131 195.5t-195.5 133t-239.5 49t-239 -49t-243 -181.5
t-131 -385.5q0 -125 48 -237.5t131 -195.5t195 -132t239 -49t239.5 49t195.5 132t131 195.5t48 238.5zM749.5 -33q-139.5 0 -261 53.5t-213 143.5t-143.5 213t-52 261t52 260t143.5 213t213 144.5t261 53.5t261.5 -53.5t213 -144.5t143 -213t52 -260t-52 -261t-143 -213
t-213 -143.5t-261.5 -53.5z" />
    <glyph glyph-name="ordfeminine" unicode="&#xaa;" horiz-adv-x="671" 
d="M121 723q0 -66 44 -101.5t101 -35.5t121 28.5t105 73.5v236q-371 -28 -371 -201zM563 711q0 -109 72 -181l-76 -14q-43 33 -59 113h-2q-62 -70 -134.5 -91.5t-107.5 -21.5q-98 0 -152.5 60.5t-54.5 140.5q0 117 104.5 183.5t338.5 82.5v49q0 94 -37 145.5t-142 51.5
t-227 -92l-33 59q136 104 271 104q239 0 239 -262v-327z" />
    <glyph glyph-name="guillemotleft" unicode="&#xab;" horiz-adv-x="1159" 
d="M508 78l-445 366v70l445 367l16 -72l-385 -328v-2l385 -329zM1057 57l-467 385v74l467 385l16 -72l-407 -348v-2l407 -350z" />
    <glyph glyph-name="logicalnot" unicode="&#xac;" horiz-adv-x="1028" 
d="M807 106q-142 -126 -312 -126q-169 0 -287 131.5t-118 348.5t127 352.5t324 135.5q137 0 256 -71l82 81l-2 -813q0 -43 17 -71.5t81 -26.5l-6 -63q-141 -7 -162 122zM530 872q-156 0 -255 -116t-99 -295t94 -292.5t246.5 -113.5t278.5 119v621q-45 35 -117 56t-148 21z
" />
    <glyph glyph-name="registered" unicode="&#xae;" horiz-adv-x="1497" 
d="M928 784q0 154 -205 154h-123v-317l133 6q92 4 143.5 45t51.5 112zM602 283h-78v725h205q139 0 207 -58t68 -150q0 -163 -150 -218l188 -299h-92l-174 280l-174 -10v-270zM1364 640q0 126 -48 237.5t-131 195.5t-195.5 133t-239.5 49t-239 -49t-243 -181.5t-131 -385.5
q0 -125 48 -237.5t131 -195.5t195 -132t239 -49t239.5 49t195.5 132t131 195.5t48 238.5zM749.5 -33q-139.5 0 -261 53.5t-213 143.5t-143.5 213t-52 261t52 260t143.5 213t213 144.5t261 53.5t261.5 -53.5t213 -144.5t143 -213t52 -260t-52 -261t-143 -213t-213 -143.5
t-261.5 -53.5z" />
    <glyph glyph-name="macron" unicode="&#xaf;" 
d="M172 1092l6 77h469l6 -77h-481z" />
    <glyph glyph-name="degree" unicode="&#xb0;" horiz-adv-x="694" 
d="M549 1035q0 85 -53.5 146.5t-149.5 61.5t-149.5 -61.5t-53.5 -146.5t53.5 -146.5t149.5 -61.5t149.5 61.5t53.5 146.5zM541.5 840.5q-74.5 -78.5 -194.5 -78.5t-195.5 79t-75.5 194t74 194.5t197 79.5t196 -79t73 -195t-74.5 -194.5z" />
    <glyph glyph-name="plusminus" unicode="&#xb1;" horiz-adv-x="1497" 
d="M965 758q0 78 -53.5 119t-153.5 41h-121v-330h117q211 0 211 170zM1042 750q0 -112 -78.5 -172t-215.5 -60h-111v-256h-78v725h201q143 0 212.5 -62.5t69.5 -174.5zM1364 640q0 126 -48 237.5t-131 195.5t-195.5 133t-239.5 49t-239 -49t-243 -181.5t-131 -385.5
q0 -125 48 -237.5t131 -195.5t195 -132t239 -49t239.5 49t195.5 132t131 195.5t48 238.5zM749.5 -33q-139.5 0 -261 53.5t-213 143.5t-143.5 213t-52 261t52 260t143.5 213t213 144.5t261 53.5t261.5 -53.5t213 -144.5t143 -213t52 -260t-52 -261t-143 -213t-213 -143.5
t-261.5 -53.5z" />
    <glyph glyph-name="acute" unicode="&#xb4;" horiz-adv-x="817" 
d="M348 1055h-63l268 362h119z" />
    <glyph glyph-name="mu" unicode="&#xb5;" horiz-adv-x="1028" 
d="M530 872q-156 0 -255 -116t-99 -295t94 -292.5t246.5 -113.5t278.5 119v621q-45 35 -117 56t-148 21zM560 948q118 0 237 -71l82 81v-985q0 -354 -152 -407t-277 -53t-251 55l20 78q119 -58 268 -58q308 0 308 387v117q-43 -41 -117 -76.5t-165 -35.5q-187 0 -305 131.5
t-118 348.5t127 352.5t343 135.5z" />
    <glyph glyph-name="paragraph" unicode="&#xb6;" horiz-adv-x="1032" 
d="M566 520q-223 0 -345.5 103.5t-122.5 281.5q0 177 127 276t332 99h283v-1411h-82v674q-80 -23 -192 -23z" />
    <glyph glyph-name="periodcentered" unicode="&#xb7;" horiz-adv-x="313" 
d="M229 468q0 -30 -20.5 -53.5t-53 -23.5t-52 23.5t-19.5 53.5t19.5 52.5t52 22.5t53 -22.5t20.5 -52.5z" />
    <glyph glyph-name="cedilla" unicode="&#xb8;" 
d="M557 -315q0 84 -84 106.5t-207 -4.5l-6 33l223 221h82l-184 -178q166 14 208 -54.5t42 -117.5q0 -80 -82 -144.5t-236 -74.5l-8 61q252 16 252 152z" />
    <glyph glyph-name="ordmasculine" unicode="&#xba;" horiz-adv-x="872" 
d="M647 1149q-82 88 -209 88t-210 -91t-83 -240t82 -235.5t209 -86.5t210 91t83 239q0 147 -82 235zM434 518q-156 0 -259 106.5t-103 281.5q0 176 105 285t263 109t260.5 -106t102.5 -281t-106.5 -285t-262.5 -110z" />
    <glyph glyph-name="guillemotright" unicode="&#xbb;" horiz-adv-x="1159" 
d="M104 57l-16 72l406 350v2l-406 348l16 72l467 -385v-74zM651 78l-16 72l387 329v2l-387 328l16 72l447 -367v-70z" />
    <glyph glyph-name="onequarter" unicode="&#xbc;" horiz-adv-x="1146" 
d="M995 1350q-170 0 -170 -238v-184h291l-6 -74h-285v-854h-84v854h-491v-854h-84v854l-135 8l6 51l127 17l2 157q6 248 104.5 283t168.5 35t141 -37l-21 -76q-76 37 -139 37q-170 0 -170 -237v-164l489 2l2 178q7 317 256 317q88 0 158 -36l-20 -76q-76 37 -140 37z" />
    <glyph glyph-name="onehalf" unicode="&#xbd;" horiz-adv-x="1517" 
d="M995 1350q-170 0 -170 -238v-184h441l96 30v-958h-84v854h-453v-854h-84v854h-491v-854h-84v854l-135 8l6 51l127 17l2 157q0 162 68.5 240t171.5 78t174 -37l-21 -76q-76 37 -139 37q-170 0 -170 -237v-164l489 2l2 178q7 317 256 317q88 0 158 -36l-20 -76
q-76 37 -140 37z" />
    <glyph glyph-name="threequarters" unicode="&#xbe;" horiz-adv-x="1511" 
d="M995 1350q-170 0 -170 -238v-184h291l-6 -74h-285v-854h-84v854h-491v-854h-84v854l-135 8l6 51l127 17l2 157q6 248 104.5 283t168.5 35t141 -37l-21 -76q-76 37 -139 37q-170 0 -170 -237v-164l489 2l2 178q7 317 256 317q88 0 158 -36l-20 -76q-76 37 -140 37zM1278 0
v1380l84 27v-1407h-84z" />
    <glyph glyph-name="questiondown" unicode="&#xbf;" horiz-adv-x="698" 
d="M330 1222q0 30 20.5 53t53 23t52 -23t19.5 -53t-19.5 -52.5t-52 -22.5t-53 22.5t-20.5 52.5zM432 -31q-71 0 -141 32t-138.5 105t-68.5 203q0 159 86 208.5t150 80.5t102.5 59.5t38.5 75.5q0 89 -133 176l51 21q156 -97 156 -197q0 -78 -50.5 -123.5t-114.5 -73.5
q-116 -50 -162 -94.5t-46 -113.5q0 -125 79 -205t208 -80q69 0 139 20v-75q-85 -19 -156 -19z" />
    <glyph glyph-name="Agrave" unicode="&#xc0;" horiz-adv-x="1179" 
d="M551 1397l-324 362h119l268 -362h-63zM592 1204l-275 -727h543zM1128 0h-88l-149 399h-604l-150 -399h-86l490 1280h106z" />
    <glyph glyph-name="Aacute" unicode="&#xc1;" horiz-adv-x="1179" 
d="M610 1397h-63l268 362h119zM592 1204l-275 -727h543zM1128 0h-88l-149 399h-604l-150 -399h-86l490 1280h106z" />
    <glyph glyph-name="Acircumflex" unicode="&#xc2;" horiz-adv-x="1179" 
d="M803 1397l-211 295h-4l-211 -295h-68l230 362h102l229 -362h-67zM592 1204l-275 -727h543zM1128 0h-88l-149 399h-604l-150 -399h-86l490 1280h106z" />
    <glyph glyph-name="Atilde" unicode="&#xc3;" horiz-adv-x="1179" 
d="M737 1407q-58 0 -130 52t-107 76t-67 24t-53.5 -27t-51.5 -115h-52q39 213 166 213q59 0 132 -52t107.5 -75.5t64.5 -23.5t52.5 26.5t51.5 114.5h53q-39 -213 -166 -213zM592 1204l-275 -727h543zM1128 0h-88l-149 399h-604l-150 -399h-86l490 1280h106z" />
    <glyph glyph-name="Adieresis" unicode="&#xc4;" horiz-adv-x="1179" 
d="M471 1568.5q0 -28.5 -19.5 -52t-52 -23.5t-51 23.5t-18.5 52t18.5 50t51 21.5t52 -21.5t19.5 -50zM842 1568.5q0 -28.5 -19.5 -52t-51.5 -23.5t-52.5 23.5t-20.5 52t20.5 50t52.5 21.5t51.5 -21.5t19.5 -50zM592 1204l-275 -727h543zM1128 0h-88l-149 399h-604l-150 -399
h-86l490 1280h106z" />
    <glyph glyph-name="Aring" unicode="&#xc5;" horiz-adv-x="1179" 
d="M752 1413q0 57 -43 101.5t-115 44.5t-115 -41t-43 -98.5t43 -99.5t115 -42t115 39t43 96zM365 1426q0 74 61 133t167.5 59t168 -59.5t61.5 -133.5t-41 -126t-114 -72l460 -1227h-86l-149 399h-604l-152 -399h-86q133 344 206 536t115 303t74.5 197t53.5 139l20 52
q-74 20 -114.5 72.5t-40.5 126.5zM594 1204l-275 -727h543z" />
    <glyph glyph-name="AE" unicode="&#xc6;" horiz-adv-x="1644" 
d="M1542 1280v-78h-647v-522h541v-78h-541v-524h647v-78h-733v379h-483l-220 -379h-86l738 1280h784zM809 457v753l-438 -753h438z" />
    <glyph glyph-name="Ccedilla" unicode="&#xc7;" horiz-adv-x="1169" 
d="M782 -315q0 84 -84 106.5t-206 -4.5l-7 33l162 162q-254 12 -400.5 189t-146.5 473t167.5 476t426.5 180q215 0 383 -102l-26 -74q-157 99 -368 99t-353 -155.5t-142 -427.5t138 -427.5t357 -155.5t366 105l20 -80q-136 -94 -342 -102l-121 -117q166 14 208 -54.5
t42 -117.5q0 -80 -82 -144.5t-235 -74.5l-9 61q252 16 252 152z" />
    <glyph glyph-name="Egrave" unicode="&#xc8;" horiz-adv-x="1003" 
d="M516 1397l-323 362h118l269 -362h-64zM168 0v1280h733v-78h-647v-524h541v-76h-541v-524h647v-78h-733z" />
    <glyph glyph-name="Eacute" unicode="&#xc9;" horiz-adv-x="1003" 
d="M498 1397h-64l268 362h119zM168 0v1280h733v-78h-647v-524h541v-76h-541v-524h647v-78h-733z" />
    <glyph glyph-name="Ecircumflex" unicode="&#xca;" horiz-adv-x="1003" 
d="M758 1397l-211 295h-4l-211 -295h-68l230 362h102l229 -362h-67zM168 0v1280h733v-78h-647v-524h541v-76h-541v-524h647v-78h-733z" />
    <glyph glyph-name="Edieresis" unicode="&#xcb;" horiz-adv-x="1003" 
d="M410 1568.5q0 -28.5 -19.5 -52t-52.5 -23.5t-51.5 23.5t-18.5 52t18.5 50t51.5 21.5t52.5 -21.5t19.5 -50zM780 1568.5q0 -28.5 -19 -52t-51 -23.5t-52.5 23.5t-20.5 52t20.5 50t52.5 21.5t51 -21.5t19 -50zM168 0v1280h733v-78h-647v-524h541v-76h-541v-524h647v-78
h-733z" />
    <glyph glyph-name="Igrave" unicode="&#xcc;" horiz-adv-x="425" 
d="M190 1397l-323 362h119l268 -362h-64zM170 0v1280h86v-1280h-86z" />
    <glyph glyph-name="Iacute" unicode="&#xcd;" horiz-adv-x="425" 
d="M242 1397h-64l268 362h119zM170 0v1280h86v-1280h-86z" />
    <glyph glyph-name="Icircumflex" unicode="&#xce;" horiz-adv-x="425" 
d="M426 1397l-211 295h-4l-211 -295h-68l230 362h102l230 -362h-68zM170 0v1280h86v-1280h-86z" />
    <glyph glyph-name="Idieresis" unicode="&#xcf;" horiz-adv-x="425" 
d="M98 1568.5q0 -28.5 -19.5 -52t-52 -23.5t-51 23.5t-18.5 52t18.5 50t51 21.5t52 -21.5t19.5 -50zM469 1568.5q0 -28.5 -19.5 -52t-51.5 -23.5t-52 23.5t-20 52t20 50t52 21.5t51.5 -21.5t19.5 -50zM170 0v1280h86v-1280h-86z" />
    <glyph glyph-name="Eth" unicode="&#xd0;" horiz-adv-x="1296" 
d="M33 604v76h176v600h309q308 0 493 -174.5t185 -469.5q0 -296 -182 -466t-508 -170h-297v604h-176zM684 680v-76h-389v-526h215q272 0 435 140.5t163 409.5t-160 421.5t-438 152.5h-215v-522h389z" />
    <glyph glyph-name="Ntilde" unicode="&#xd1;" horiz-adv-x="1292" 
d="M793 1407q-41 0 -82 23.5t-81 52t-75 52.5t-67 24t-53 -27t-52 -115h-51q39 213 166 213q60 0 132 -52t107 -75.5t65 -23.5t52.5 26.5t50.5 114.5h53q-39 -213 -165 -213zM1042 1280h82v-1292h-94l-780 1173v-1161h-82v1280h100l774 -1163v1163z" />
    <glyph glyph-name="Ograve" unicode="&#xd2;" horiz-adv-x="1429" 
d="M702 1397l-323 362h119l268 -362h-64zM1241 639q0 129 -41 236.5t-111.5 185.5t-168 121t-210 43t-208.5 -43t-166 -120t-109 -183.5t-39 -235.5t41 -236.5t112 -185.5t168 -122t209.5 -44t209 43t166 121t108.5 184.5t39 235.5zM1154 163q-175 -183 -441 -183
q-127 0 -239 49t-194.5 136t-131 209t-48.5 268q0 291 173.5 474.5t438.5 183.5t441 -187t176 -477t-175 -473z" />
    <glyph glyph-name="Oacute" unicode="&#xd3;" horiz-adv-x="1429" 
d="M729 1397h-63l268 362h119zM1241 639q0 129 -41 236.5t-111.5 185.5t-168 121t-210 43t-208.5 -43t-166 -120t-109 -183.5t-39 -235.5t41 -236.5t112 -185.5t168 -122t209.5 -44t209 43t166 121t108.5 184.5t39 235.5zM1154 163q-175 -183 -441 -183q-127 0 -239 49
t-194.5 136t-131 209t-48.5 268q0 291 173.5 474.5t438.5 183.5t441 -187t176 -477t-175 -473z" />
    <glyph glyph-name="Ocircumflex" unicode="&#xd4;" horiz-adv-x="1429" 
d="M928 1397l-211 295h-4l-211 -295h-68l230 362h102l229 -362h-67zM1241 639q0 129 -41 236.5t-111.5 185.5t-168 121t-210 43t-208.5 -43t-166 -120t-109 -183.5t-39 -235.5t41 -236.5t112 -185.5t168 -122t209.5 -44t209 43t166 121t108.5 184.5t39 235.5zM1154 163
q-175 -183 -441 -183q-127 0 -239 49t-194.5 136t-131 209t-48.5 268q0 291 173.5 474.5t438.5 183.5t441 -187t176 -477t-175 -473z" />
    <glyph glyph-name="Otilde" unicode="&#xd5;" horiz-adv-x="1429" 
d="M862 1407q-41 0 -82 23.5t-81 52t-74.5 52.5t-66.5 24t-53.5 -27t-51.5 -115h-52q39 213 166 213q59 0 132 -52t108 -75.5t65 -23.5t52 26.5t51 114.5h53q-39 -213 -166 -213zM1241 639q0 129 -41 236.5t-111.5 185.5t-168 121t-210 43t-208.5 -43t-166 -120t-109 -183.5
t-39 -235.5t41 -236.5t112 -185.5t168 -122t209.5 -44t209 43t166 121t108.5 184.5t39 235.5zM1154 163q-175 -183 -441 -183q-127 0 -239 49t-194.5 136t-131 209t-48.5 268q0 291 173.5 474.5t438.5 183.5t441 -187t176 -477t-175 -473z" />
    <glyph glyph-name="Odieresis" unicode="&#xd6;" horiz-adv-x="1429" 
d="M600 1568.5q0 -28.5 -19.5 -52t-52 -23.5t-51 23.5t-18.5 52t18.5 50t51 21.5t52 -21.5t19.5 -50zM971 1568.5q0 -28.5 -19.5 -52t-51.5 -23.5t-52.5 23.5t-20.5 52t20.5 50t52.5 21.5t51.5 -21.5t19.5 -50zM1241 639q0 129 -41 236.5t-111.5 185.5t-168 121t-210 43
t-208.5 -43t-166 -120t-109 -183.5t-39 -235.5t41 -236.5t112 -185.5t168 -122t209.5 -44t209 43t166 121t108.5 184.5t39 235.5zM1154 163q-175 -183 -441 -183q-127 0 -239 49t-194.5 136t-131 209t-48.5 268q0 291 173.5 474.5t438.5 183.5t441 -187t176 -477t-175 -473z
" />
    <glyph glyph-name="multiply" unicode="&#xd7;" horiz-adv-x="999" 
d="M868 55l-368 369l-369 -369l-53 54l368 368l-368 369l53 53l369 -369l372 373l54 -53l-373 -373l369 -368z" />
    <glyph glyph-name="Oslash" unicode="&#xd8;" horiz-adv-x="1429" 
d="M1241 639q0 154 -56.5 276.5t-154.5 200.5l-575 -991q121 -72 249 -72q243 0 390 165t147 421zM728 1227q-245 0 -392.5 -164.5t-147.5 -419.5q0 -154 56.5 -276.5t154.5 -200.5l576 989q-117 72 -247 72zM730 1300q146 0 284 -77l112 194h80l-135 -231
q117 -86 187.5 -225.5t70.5 -303.5q0 -311 -175 -494t-441 -183q-162 0 -297 77l-113 -194h-80q37 66 66 113t49 83l20 35q-117 88 -187.5 227.5t-70.5 303.5t46.5 285.5t129 208.5t195.5 134t259 47z" />
    <glyph glyph-name="Ugrave" unicode="&#xd9;" horiz-adv-x="1200" 
d="M596 1397l-324 362h119l268 -362h-63zM1063 483q0 -359 -175 -431t-290 -72q-223 0 -342 128t-119 355v817h84v-811q0 -193 95.5 -303.5t285.5 -110.5t283.5 113t93.5 317v795h84v-797z" />
    <glyph glyph-name="Uacute" unicode="&#xda;" horiz-adv-x="1200" 
d="M586 1397h-64l269 362h118zM1063 483q0 -359 -175 -431t-290 -72q-223 0 -342 128t-119 355v817h84v-811q0 -193 95.5 -303.5t285.5 -110.5t283.5 113t93.5 317v795h84v-797z" />
    <glyph glyph-name="Ucircumflex" unicode="&#xdb;" horiz-adv-x="1200" 
d="M813 1397l-211 295h-4l-211 -295h-68l230 362h102l230 -362h-68zM1063 483q0 -359 -175 -431t-290 -72q-223 0 -342 128t-119 355v817h84v-811q0 -193 95.5 -303.5t285.5 -110.5t283.5 113t93.5 317v795h84v-797z" />
    <glyph glyph-name="Udieresis" unicode="&#xdc;" horiz-adv-x="1200" 
d="M485 1568.5q0 -28.5 -19.5 -52t-52 -23.5t-51 23.5t-18.5 52t18.5 50t51 21.5t52 -21.5t19.5 -50zM856 1568.5q0 -28.5 -19.5 -52t-51.5 -23.5t-52 23.5t-20 52t20.5 50t52.5 21.5t51 -21.5t19 -50zM1063 483q0 -359 -175 -431t-290 -72q-223 0 -342 128t-119 355v817h84
v-811q0 -193 95.5 -303.5t285.5 -110.5t283.5 113t93.5 317v795h84v-797z" />
    <glyph glyph-name="Yacute" unicode="&#xdd;" horiz-adv-x="1038" 
d="M518 1397h-63l268 362h119zM563 0h-86v518l-448 762h96l397 -678l393 678h95l-447 -760v-520z" />
    <glyph glyph-name="Thorn" unicode="&#xde;" horiz-adv-x="1024" 
d="M854 646q0 162 -104.5 243.5t-294.5 81.5h-201v-647l178 2q422 9 422 320zM944 650q0 -190 -137 -294t-375 -108l-178 -2v-246h-86v1280h86v-231h201q244 0 366.5 -104.5t122.5 -294.5z" />
    <glyph glyph-name="germandbls" unicode="&#xdf;" horiz-adv-x="1159" 
d="M779 887q-107 0 -164.5 -47t-57.5 -125q0 -116 100.5 -150.5t147.5 -50.5q126 -43 196 -98.5t70 -173.5t-91.5 -190t-236.5 -72q-146 0 -274 79l27 78q127 -84 262 -84q92 0 164.5 49t72.5 134q0 124 -147 175t-257 99t-110 195q0 119 83.5 186t216.5 67t261 -67l-28 -76
q-128 72 -235 72zM420 1350q-170 0 -170 -238v-1112h-84v852l-135 8l6 53l127 17l2 178q7 317 256 317q88 0 158 -36l-21 -76q-76 37 -139 37z" />
    <glyph glyph-name="agrave" unicode="&#xe0;" horiz-adv-x="874" 
d="M415 958q316 0 316 -305v-508q0 -43 17.5 -71.5t80.5 -26.5l-6 -63q-70 -4 -115.5 30.5t-50.5 112.5h-2q-42 -56 -123 -101.5t-156 -45.5q-139 0 -222.5 68.5t-83.5 178.5q0 296 577 332v86q0 236 -229 236q-117 0 -202 -49.5t-114 -71.5l-20 84q66 47 161 80.5t172 33.5
zM154 236q0 -88 64.5 -135.5t153.5 -47.5t159.5 46t115.5 100v299q-389 -40 -441 -125.5t-52 -136.5zM449 1055l-324 362h119l268 -362h-63z" />
    <glyph glyph-name="aacute" unicode="&#xe1;" horiz-adv-x="874" 
d="M385 1055h-63l268 362h119zM415 958q316 0 316 -305v-508q0 -43 17.5 -71.5t80.5 -26.5l-6 -63q-70 -4 -115.5 30.5t-50.5 112.5h-2q-42 -56 -123 -101.5t-156 -45.5q-139 0 -222.5 68.5t-83.5 178.5q0 296 577 332v86q0 236 -229 236q-117 0 -202 -49.5t-114 -71.5
l-20 84q66 47 161 80.5t172 33.5zM154 236q0 -88 64.5 -135.5t153.5 -47.5t159.5 46t115.5 100v299q-389 -40 -441 -125.5t-52 -136.5z" />
    <glyph glyph-name="acircumflex" unicode="&#xe2;" horiz-adv-x="874" 
d="M633 1055l-211 295h-4l-211 -295h-68l230 362h102l229 -362h-67zM415 958q316 0 316 -305v-508q0 -43 17.5 -71.5t80.5 -26.5l-6 -63q-70 -4 -115.5 30.5t-50.5 112.5h-2q-42 -56 -123 -101.5t-156 -45.5q-139 0 -222.5 68.5t-83.5 178.5q0 296 577 332v86
q0 236 -229 236q-117 0 -202 -49.5t-114 -71.5l-20 84q66 47 161 80.5t172 33.5zM154 236q0 -88 64.5 -135.5t153.5 -47.5t159.5 46t115.5 100v299q-389 -40 -441 -125.5t-52 -136.5z" />
    <glyph glyph-name="atilde" unicode="&#xe3;" horiz-adv-x="874" 
d="M567 1065q-58 0 -130 52t-107 76t-67 24t-53.5 -27t-51.5 -115h-52q39 213 166 213q59 0 132 -52t107.5 -75.5t64.5 -23.5t52.5 26.5t51.5 114.5h53q-39 -213 -166 -213zM415 958q316 0 316 -305v-508q0 -43 17.5 -71.5t80.5 -26.5l-6 -63q-70 -4 -115.5 30.5
t-50.5 112.5h-2q-42 -56 -123 -101.5t-156 -45.5q-139 0 -222.5 68.5t-83.5 178.5q0 296 577 332v86q0 236 -229 236q-117 0 -202 -49.5t-114 -71.5l-20 84q66 47 161 80.5t172 33.5zM154 236q0 -88 64.5 -135.5t153.5 -47.5t159.5 46t115.5 100v299q-389 -40 -441 -125.5
t-52 -136.5z" />
    <glyph glyph-name="adieresis" unicode="&#xe4;" horiz-adv-x="874" 
d="M305 1226.5q0 -28.5 -19.5 -52t-52 -23.5t-51 23.5t-18.5 52t18.5 50t51 21.5t52 -21.5t19.5 -50zM676 1226.5q0 -28.5 -19.5 -52t-51.5 -23.5t-52.5 23.5t-20.5 52t20.5 50t52.5 21.5t51.5 -21.5t19.5 -50zM415 958q316 0 316 -305v-508q0 -43 17.5 -71.5t80.5 -26.5
l-6 -63q-70 -4 -115.5 30.5t-50.5 112.5h-2q-42 -56 -123 -101.5t-156 -45.5q-139 0 -222.5 68.5t-83.5 178.5q0 296 577 332v86q0 236 -229 236q-117 0 -202 -49.5t-114 -71.5l-20 84q66 47 161 80.5t172 33.5zM154 236q0 -88 64.5 -135.5t153.5 -47.5t159.5 46t115.5 100
v299q-389 -40 -441 -125.5t-52 -136.5z" />
    <glyph glyph-name="aring" unicode="&#xe5;" horiz-adv-x="874" 
d="M580 1233q0 57 -43 101t-115 44t-115 -41t-43 -98t43 -99t115 -42t115 39t43 96zM651 1237q0 -82 -61.5 -140.5t-168 -58.5t-167.5 58.5t-61 140.5t61 141.5t167.5 59.5t168 -59.5t61.5 -141.5zM415 958q316 0 316 -305v-508q0 -43 17.5 -71.5t80.5 -26.5l-6 -63
q-70 -4 -115.5 30.5t-50.5 112.5h-2q-42 -56 -123 -101.5t-156 -45.5q-139 0 -222.5 68.5t-83.5 178.5q0 296 577 332v86q0 236 -229 236q-117 0 -202 -49.5t-114 -71.5l-20 84q66 47 161 80.5t172 33.5zM154 236q0 -88 64.5 -135.5t153.5 -47.5t159.5 46t115.5 100v299
q-389 -40 -441 -125.5t-52 -136.5z" />
    <glyph glyph-name="ae" unicode="&#xe6;" horiz-adv-x="1474" 
d="M152 223q0 -84 55 -123t129 -39t163 43t165 138q-41 104 -41 231q-471 -28 -471 -250zM1282 629q0 111 -64.5 181.5t-186.5 70.5t-208 -89.5t-108 -232.5h561q6 35 6 70zM330 -20q-125 0 -192.5 69.5t-67.5 167.5q0 147 132 228t425 96l4 84q4 119 -48.5 185.5
t-185.5 66.5t-282 -117l-39 69q167 129 336 129q243 0 284 -200q55 92 144.5 146t180.5 54q163 0 255 -88t92 -235q0 -70 -20 -148l-639 -4v-14q0 -183 94 -297.5t243.5 -114.5t270.5 78l18 -76q-129 -79 -268 -79q-266 0 -377 206q-95 -138 -206 -172t-154 -34z" />
    <glyph glyph-name="ccedilla" unicode="&#xe7;" horiz-adv-x="911" 
d="M633 -315q0 84 -84 106.5t-207 -4.5l-6 33l164 162q-183 16 -296.5 150t-113.5 340t124.5 346t306.5 140t296 -77l-20 -76q-117 76 -268 76t-252 -116.5t-101 -297.5t103 -295.5t266 -114.5q127 0 250 78l20 -76q-114 -70 -235 -77l-123 -119q166 14 208 -54.5t42 -117.5
q0 -80 -82 -144.5t-236 -74.5l-8 61q252 16 252 152z" />
    <glyph glyph-name="egrave" unicode="&#xe8;" horiz-adv-x="942" 
d="M498 1055l-324 362h119l268 -362h-63zM499 881q-122 0 -208 -89.5t-109 -232.5h561q6 35 7 70q0 111 -64.5 181.5t-186.5 70.5zM803 59q-124 -79 -302 -79t-294.5 136.5t-116.5 349t117.5 352.5t302.5 140q141 0 233.5 -88.5t92.5 -234.5q0 -67 -21 -148l-639 -4v-14
q0 -183 94 -297.5t243.5 -114.5t270.5 78z" />
    <glyph glyph-name="eacute" unicode="&#xe9;" horiz-adv-x="942" 
d="M500 1055h-64l269 362h118zM499 881q-122 0 -208 -89.5t-109 -232.5h561q6 35 7 70q0 111 -64.5 181.5t-186.5 70.5zM803 59q-124 -79 -302 -79t-294.5 136.5t-116.5 349t117.5 352.5t302.5 140q141 0 233.5 -88.5t92.5 -234.5q0 -67 -21 -148l-639 -4v-14
q0 -183 94 -297.5t243.5 -114.5t270.5 78z" />
    <glyph glyph-name="ecircumflex" unicode="&#xea;" horiz-adv-x="942" 
d="M684 1055l-211 295h-4l-211 -295h-68l230 362h102l230 -362h-68zM499 881q-122 0 -208 -89.5t-109 -232.5h561q6 35 7 70q0 111 -64.5 181.5t-186.5 70.5zM803 59q-124 -79 -302 -79t-294.5 136.5t-116.5 349t117.5 352.5t302.5 140q141 0 233.5 -88.5t92.5 -234.5
q0 -67 -21 -148l-639 -4v-14q0 -183 94 -297.5t243.5 -114.5t270.5 78z" />
    <glyph glyph-name="edieresis" unicode="&#xeb;" horiz-adv-x="942" 
d="M365 1226.5q0 -28.5 -19.5 -52t-52.5 -23.5t-51.5 23.5t-18.5 52t18.5 50t51.5 21.5t52.5 -21.5t19.5 -50zM735 1226.5q0 -28.5 -19.5 -52t-51.5 -23.5t-52 23.5t-20 52t20.5 50t52.5 21.5t51 -21.5t19 -50zM499 881q-122 0 -208 -89.5t-109 -232.5h561q6 35 7 70
q0 111 -64.5 181.5t-186.5 70.5zM803 59q-124 -79 -302 -79t-294.5 136.5t-116.5 349t117.5 352.5t302.5 140q141 0 233.5 -88.5t92.5 -234.5q0 -67 -21 -148l-639 -4v-14q0 -183 94 -297.5t243.5 -114.5t270.5 78z" />
    <glyph glyph-name="igrave" unicode="&#xec;" horiz-adv-x="395" 
d="M170 1055l-324 362h119l268 -362h-63zM156 0v932l84 26v-958h-84z" />
    <glyph glyph-name="iacute" unicode="&#xed;" horiz-adv-x="395" 
d="M219 1055h-63l268 362h119zM156 0v932l84 26v-958h-84z" />
    <glyph glyph-name="icircumflex" unicode="&#xee;" horiz-adv-x="395" 
d="M416 1055l-211 295h-4l-211 -295h-68l230 362h102l229 -362h-67zM156 0v932l84 26v-958h-84z" />
    <glyph glyph-name="idieresis" unicode="&#xef;" horiz-adv-x="395" 
d="M88 1226.5q0 -28.5 -19.5 -52t-52 -23.5t-51 23.5t-18.5 52t18.5 50t51 21.5t52 -21.5t19.5 -50zM459 1226.5q0 -28.5 -19.5 -52t-51.5 -23.5t-52.5 23.5t-20.5 52t20.5 50t52.5 21.5t51.5 -21.5t19.5 -50zM156 0v932l84 26v-958h-84z" />
    <glyph glyph-name="eth" unicode="&#xf0;" horiz-adv-x="1054" 
d="M881 504q0 102 -37 209q-59 41 -140 69.5t-163 28.5q-174 0 -269.5 -103.5t-95.5 -272.5t98 -275.5t246 -106.5q180 0 270.5 124t90.5 327zM641 1192q324 -362 324 -698q0 -219 -114.5 -366.5t-317.5 -147.5t-323 125.5t-120 330.5t126.5 328t309.5 123q146 0 281 -80h2
q-84 179 -254 362l-272 -73l-19 73l230 62q-106 102 -199 170l90 24q98 -72 197 -170l221 60l18 -74l-90 -24q-87 -25 -90 -25z" />
    <glyph glyph-name="ntilde" unicode="&#xf1;" horiz-adv-x="1007" 
d="M651 1065q-58 0 -130 52t-107 76t-67 24t-53.5 -27t-51.5 -115h-52q39 213 166 213q59 0 132 -52t107.5 -75.5t64.5 -23.5t52.5 26.5t51.5 114.5h53q-39 -213 -166 -213zM559 881q-163 0 -323 -162v-719h-84v932l84 26v-163q82 84 174 123.5t159 39.5q139 0 217 -80.5
t78 -236.5v-641h-84v623q0 258 -221 258z" />
    <glyph glyph-name="ograve" unicode="&#xf2;" horiz-adv-x="1093" 
d="M547 1055l-324 362h119l268 -362h-63zM280 765.5q-106 -117.5 -106 -303.5q0 -185 105.5 -296t267.5 -111t267.5 118.5t105.5 300.5t-105 295.5t-267 113.5t-268 -117.5zM869.5 116.5q-134.5 -136.5 -328.5 -136.5t-322.5 133t-128.5 352.5t134.5 356t328.5 136.5
t322.5 -133t128.5 -352.5t-134.5 -356z" />
    <glyph glyph-name="oacute" unicode="&#xf3;" horiz-adv-x="1093" 
d="M549 1055h-64l269 362h118zM280 765.5q-106 -117.5 -106 -303.5q0 -185 105.5 -296t267.5 -111t267.5 118.5t105.5 300.5t-105 295.5t-267 113.5t-268 -117.5zM869.5 116.5q-134.5 -136.5 -328.5 -136.5t-322.5 133t-128.5 352.5t134.5 356t328.5 136.5t322.5 -133
t128.5 -352.5t-134.5 -356z" />
    <glyph glyph-name="ocircumflex" unicode="&#xf4;" horiz-adv-x="1093" 
d="M760 1055l-211 295h-4l-211 -295h-68l230 362h102l229 -362h-67zM280 765.5q-106 -117.5 -106 -303.5q0 -185 105.5 -296t267.5 -111t267.5 118.5t105.5 300.5t-105 295.5t-267 113.5t-268 -117.5zM869.5 116.5q-134.5 -136.5 -328.5 -136.5t-322.5 133t-128.5 352.5
t134.5 356t328.5 136.5t322.5 -133t128.5 -352.5t-134.5 -356z" />
    <glyph glyph-name="otilde" unicode="&#xf5;" horiz-adv-x="1093" 
d="M694 1065q-58 0 -130 52t-107 76t-67 24t-53.5 -27t-51.5 -115h-52q39 213 166 213q59 0 132 -52t108 -75.5t65 -23.5t52 26.5t51 114.5h53q-39 -213 -166 -213zM280 765.5q-106 -117.5 -106 -303.5q0 -185 105.5 -296t267.5 -111t267.5 118.5t105.5 300.5t-105 295.5
t-267 113.5t-268 -117.5zM869.5 116.5q-134.5 -136.5 -328.5 -136.5t-322.5 133t-128.5 352.5t134.5 356t328.5 136.5t322.5 -133t128.5 -352.5t-134.5 -356z" />
    <glyph glyph-name="odieresis" unicode="&#xf6;" horiz-adv-x="1093" 
d="M432 1226.5q0 -28.5 -19.5 -52t-52 -23.5t-51 23.5t-18.5 52t18.5 50t51 21.5t52 -21.5t19.5 -50zM803 1226.5q0 -28.5 -19.5 -52t-51.5 -23.5t-52.5 23.5t-20.5 52t20.5 50t52.5 21.5t51.5 -21.5t19.5 -50zM280 765.5q-106 -117.5 -106 -303.5q0 -185 105.5 -296
t267.5 -111t267.5 118.5t105.5 300.5t-105 295.5t-267 113.5t-268 -117.5zM869.5 116.5q-134.5 -136.5 -328.5 -136.5t-322.5 133t-128.5 352.5t134.5 356t328.5 136.5t322.5 -133t128.5 -352.5t-134.5 -356z" />
    <glyph glyph-name="divide" unicode="&#xf7;" horiz-adv-x="999" 
d="M575 738q0 -30 -20 -53t-53 -23t-52.5 23t-19.5 53t19.5 52.5t52.5 22.5t53 -22.5t20 -52.5zM575 218q0 -30 -20 -53.5t-53 -23.5t-52.5 23.5t-19.5 53.5t19.5 52.5t52.5 22.5t53 -22.5t20 -52.5zM86 444l6 74h817l6 -74h-829z" />
    <glyph glyph-name="oslash" unicode="&#xf8;" horiz-adv-x="1093" 
d="M920 480q0 100 -37 185t-103 138l-409 -707q82 -41 169 -41t155.5 31t117.5 86t78 131.5t29 176.5zM557 883q-171 0 -277 -117.5t-106 -296.5q0 -221 139 -334l205 352q84 143 127 218t61 105l17 30q-76 43 -166 43zM1004 485q0 -232 -134.5 -368.5t-326.5 -136.5
q-115 0 -211 49l-96 -166h-80l116 203q-84 61 -133 162.5t-49 224.5q0 232 134.5 368.5t326.5 136.5q117 0 211 -49q83 141 98 168h80l-119 -205q84 -61 133.5 -162.5t49.5 -224.5z" />
    <glyph glyph-name="ugrave" unicode="&#xf9;" horiz-adv-x="1005" 
d="M498 1055l-324 362h119l268 -362h-63zM449 57q161 0 323 162v719h84v-932l-84 -26v165q-82 -84 -174 -124.5t-160 -40.5q-139 0 -217 80.5t-78 236.5v641h84v-623q0 -258 222 -258z" />
    <glyph glyph-name="uacute" unicode="&#xfa;" horiz-adv-x="1005" 
d="M487 1055h-63l268 362h119zM449 57q161 0 323 162v719h84v-932l-84 -26v165q-82 -84 -174 -124.5t-160 -40.5q-139 0 -217 80.5t-78 236.5v641h84v-623q0 -258 222 -258z" />
    <glyph glyph-name="ucircumflex" unicode="&#xfb;" horiz-adv-x="1005" 
d="M715 1055l-211 295h-4l-211 -295h-68l230 362h102l229 -362h-67zM449 57q161 0 323 162v719h84v-932l-84 -26v165q-82 -84 -174 -124.5t-160 -40.5q-139 0 -217 80.5t-78 236.5v641h84v-623q0 -258 222 -258z" />
    <glyph glyph-name="udieresis" unicode="&#xfc;" horiz-adv-x="1005" 
d="M379 1226.5q0 -28.5 -19.5 -52t-52.5 -23.5t-51 23.5t-18 52t18 50t51 21.5t52.5 -21.5t19.5 -50zM750 1226.5q0 -28.5 -19.5 -52t-51.5 -23.5t-52.5 23.5t-20.5 52t20.5 50t52.5 21.5t51.5 -21.5t19.5 -50zM449 57q161 0 323 162v719h84v-932l-84 -26v165
q-82 -84 -174 -124.5t-160 -40.5q-139 0 -217 80.5t-78 236.5v641h84v-623q0 -258 222 -258z" />
    <glyph glyph-name="yacute" unicode="&#xfd;" horiz-adv-x="831" 
d="M385 1055h-63l268 362h119zM83 -412q44 0 99.5 20.5t124.5 211.5l70 188l-367 930h90l320 -821l313 821h88l-354 -907l-88 -240q-87 -230 -162.5 -254t-138.5 -24t-139 36l24 76q76 -37 120 -37z" />
    <glyph glyph-name="thorn" unicode="&#xfe;" horiz-adv-x="1030" 
d="M500 55q156 0 255 116t99 295t-94 292.5t-210 113.5t-188.5 -33.5t-125.5 -84.5v-621q45 -35 116.5 -56.5t147.5 -21.5zM236 -477h-84v1859l84 25v-571q43 41 116.5 76.5t164.5 35.5q186 0 304.5 -131t118.5 -348q0 -218 -126 -353.5t-342 -135.5q-116 0 -236 71v-528z
" />
    <glyph glyph-name="ydieresis" unicode="&#xff;" horiz-adv-x="831" 
d="M299 1226.5q0 -28.5 -19.5 -52t-52 -23.5t-51 23.5t-18.5 52t18.5 50t51 21.5t52 -21.5t19.5 -50zM670 1226.5q0 -28.5 -19.5 -52t-51.5 -23.5t-52.5 23.5t-20.5 52t20.5 50t52.5 21.5t51.5 -21.5t19.5 -50zM83 -412q44 0 99.5 20.5t124.5 211.5l70 188l-367 930h90
l320 -821l313 821h88l-354 -907l-88 -240q-87 -230 -162.5 -254t-138.5 -24t-139 36l24 76q76 -37 120 -37z" />
    <glyph glyph-name="dotlessi" unicode="&#x131;" horiz-adv-x="395" 
d="M156 0v932l84 26v-958h-84z" />
    <glyph glyph-name="Lslash" unicode="&#x141;" horiz-adv-x="985" 
d="M295 80h627v-80h-713v530l-176 -49v76l176 49v674h86v-651l307 84v-76l-307 -84v-473z" />
    <glyph glyph-name="lslash" unicode="&#x142;" horiz-adv-x="466" 
d="M276 0h-83v530l-177 -49v76l177 47v776l83 27v-780l177 49v-76l-177 -47v-553z" />
    <glyph glyph-name="OE" unicode="&#x152;" horiz-adv-x="1837" 
d="M188 648q0 -265 160 -417.5t438 -152.5h215v1124h-215q-425 0 -511.5 -209t-86.5 -345zM1735 1202h-648v-522h541v-78h-541v-524h648v-78h-957q-307 0 -492.5 174.5t-185.5 469.5t182.5 465.5t508.5 170.5h944v-78z" />
    <glyph glyph-name="oe" unicode="&#x153;" horiz-adv-x="1769" 
d="M566 -20q-116 0 -199.5 33.5t-145 97t-96.5 153.5t-35 255.5t134.5 302t326.5 136.5q141 0 248.5 -71.5t161.5 -200.5q47 125 145 198.5t235 73.5t229.5 -88t92.5 -235q0 -76 -21 -148l-638 -4v-14q0 -183 94 -297.5t243.5 -114.5t270.5 78l18 -76q-129 -79 -278 -79
q-150 0 -249.5 73.5t-146.5 200.5q-53 -129 -163.5 -201.5t-226.5 -72.5zM547 55q162 0 267.5 118.5t105.5 300.5t-105 295.5t-267 113.5t-268 -117.5t-106 -303.5q0 -185 105.5 -296t267.5 -111zM1577 629q0 111 -64.5 181.5t-186.5 70.5t-208 -89.5t-108 -232.5h561
q6 35 6 70z" />
    <glyph glyph-name="Scaron" unicode="&#x160;" horiz-adv-x="964" 
d="M532 1376h-102l-229 363h67l211 -295h4l211 295h68zM801 322q0 167 -135.5 222.5t-203.5 79.5q-177 62 -269.5 134t-92.5 212t112 235t297 95t347 -106l-33 -76q-157 107 -318 107t-242 -73t-81 -179t82 -164t201 -99t267.5 -105.5t148.5 -274.5q0 -149 -115.5 -249.5
t-316.5 -100.5t-373 114l33 74q166 -113 362 -113q147 0 238.5 78.5t91.5 188.5z" />
    <glyph glyph-name="scaron" unicode="&#x161;" horiz-adv-x="761" 
d="M426 1034h-102l-230 363h68l211 -295h4l211 295h67zM381 887q-106 0 -163.5 -47t-57.5 -125q0 -116 100 -150.5t148 -50.5q125 -42 195.5 -98t70.5 -174t-91.5 -190t-236.5 -72q-146 0 -274 79l26 78q127 -84 262 -84q91 0 164.5 48.5t73.5 134.5q0 124 -145 174t-257 99
t-112 196q0 119 83.5 186t216.5 67t261 -67l-29 -76q-129 72 -235 72z" />
    <glyph glyph-name="Ydieresis" unicode="&#x178;" horiz-adv-x="1038" 
d="M403 1568.5q0 -28.5 -19 -52t-52 -23.5t-51.5 23.5t-18.5 52t18.5 50t51.5 21.5t52 -21.5t19 -50zM774 1568.5q0 -28.5 -19 -52t-51 -23.5t-52.5 23.5t-20.5 52t20.5 50t52.5 21.5t51 -21.5t19 -50zM563 0h-86v518l-448 762h96l397 -678l393 678h95l-447 -760v-520z" />
    <glyph glyph-name="Zcaron" unicode="&#x17d;" horiz-adv-x="1019" 
d="M578 1376h-103l-229 363h67l211 -295h4l211 295h68zM53 0v61l795 1143h-764v76h870v-61l-794 -1143h792v-76h-899z" />
    <glyph glyph-name="zcaron" unicode="&#x17e;" horiz-adv-x="765" 
d="M436 1034h-102l-230 363h68l211 -295h4l211 295h68zM43 0v57l573 809h-555v72h656v-57l-574 -809h574v-72h-674z" />
    <glyph glyph-name="florin" unicode="&#x192;" horiz-adv-x="741" 
d="M605 1214q-148 0 -195 -221l-41 -188h243l-8 -74h-250l-96 -493q-35 -179 -107.5 -220t-125.5 -53l-19 76q88 23 123 72t51 135l94 483l-194 8l6 52l203 16l37 190q51 232 143 263.5t142 31.5q109 0 184 -59l-35 -72q-76 53 -155 53z" />
    <glyph glyph-name="circumflex" unicode="&#x2c6;" 
d="M623 1055l-211 295h-4l-211 -295h-68l229 362h103l229 -362h-67z" />
    <glyph glyph-name="caron" unicode="&#x2c7;" 
d="M461 1034h-103l-229 363h68l211 -295h4l211 295h67z" />
    <glyph glyph-name="breve" unicode="&#x2d8;" 
d="M384 1053q-91 0 -154.5 102.5t-100.5 259.5h59q45 -160 97.5 -227.5t124 -67.5t124 67.5t97.5 227.5h59q-37 -157 -79 -225t-89 -102.5t-138 -34.5z" />
    <glyph glyph-name="dotaccent" unicode="&#x2d9;" 
d="M479 1226.5q0 -28.5 -19.5 -52t-52 -23.5t-51 23.5t-18.5 52t18.5 50t51 21.5t52 -21.5t19.5 -50z" />
    <glyph glyph-name="ring" unicode="&#x2da;" 
d="M569 1233q0 57 -43 101t-114.5 44t-114.5 -41t-43 -98t43 -99t114.5 -42t114.5 39t43 96zM641 1237q0 -82 -61.5 -140.5t-168 -58.5t-168 58.5t-61.5 140.5t61.5 141.5t168 59.5t168 -59.5t61.5 -141.5z" />
    <glyph glyph-name="ogonek" unicode="&#x2db;" 
d="M621 -420q-80 -67 -177 -67t-162 56.5t-65 150.5t83.5 180t201.5 133h80q-135 -66 -212 -139.5t-77 -176.5q0 -66 46.5 -103.5t102.5 -37.5t91.5 14.5t74.5 32.5z" />
    <glyph glyph-name="tilde" unicode="&#x2dc;" 
d="M557 1065q-41 0 -82 23.5t-81 52t-74.5 52.5t-66.5 24t-53.5 -27t-52.5 -115h-51q39 213 166 213q59 0 132 -52t107.5 -75.5t64.5 -23.5t52.5 26.5t51.5 114.5h53q-39 -213 -166 -213z" />
    <glyph glyph-name="hungarumlaut" unicode="&#x2dd;" 
d="M193 1034h-66l242 363h100zM496 1034h-66l242 363h100z" />
    <glyph glyph-name="endash" unicode="&#x2013;" horiz-adv-x="876" 
d="M66 459l6 78h735l6 -78h-747z" />
    <glyph glyph-name="emdash" unicode="&#x2014;" horiz-adv-x="1839" 
d="M66 459l6 78h1697l7 -78h-1710z" />
    <glyph glyph-name="quoteleft" unicode="&#x2018;" horiz-adv-x="313" 
d="M139 1061q0 -41 28 -61.5t81 -34.5q0 -29 -23.5 -55.5t-65.5 -26.5t-77 36.5t-35 107.5t55.5 155t149.5 143l39 -35q-152 -111 -152 -229z" />
    <glyph glyph-name="quoteright" unicode="&#x2019;" horiz-adv-x="313" 
d="M174 1151q0 41 -27.5 61.5t-80.5 34.5q0 29 23.5 55.5t65.5 26.5t76.5 -37.5t34.5 -107.5t-55 -154t-150 -143l-38 35q151 111 151 229z" />
    <glyph glyph-name="quotesinglbase" unicode="&#x201a;" horiz-adv-x="313" 
d="M174 -39q0 41 -27.5 61.5t-80.5 34.5q0 29 23.5 55.5t65.5 26.5t76.5 -36.5t34.5 -107.5t-55 -155t-150 -143l-38 35q151 111 151 229z" />
    <glyph glyph-name="quotedblleft" unicode="&#x201c;" horiz-adv-x="681" 
d="M139 1061q0 -41 28 -61.5t81 -34.5q0 -29 -23.5 -55.5t-65.5 -26.5t-77 36.5t-35 107.5t55.5 155t149.5 143l39 -35q-152 -111 -152 -229zM508 1061q0 -41 27.5 -61.5t80.5 -34.5q0 -29 -23.5 -55.5t-65.5 -26.5t-76.5 36.5t-34.5 107.5t55 155t150 143l38 -35
q-151 -111 -151 -229z" />
    <glyph glyph-name="quotedblright" unicode="&#x201d;" horiz-adv-x="681" 
d="M174 1151q0 41 -27.5 61.5t-80.5 34.5q0 29 23.5 55.5t65.5 26.5t76.5 -37.5t34.5 -107.5t-55 -154t-150 -143l-38 35q151 111 151 229zM543 1151q0 41 -28 61.5t-81 34.5q0 29 23.5 55.5t65.5 26.5t77 -37.5t35 -107.5t-55.5 -154t-149.5 -143l-39 35q152 111 152 229z
" />
    <glyph glyph-name="quotedblbase" unicode="&#x201e;" horiz-adv-x="681" 
d="M174 -39q0 41 -27.5 61.5t-80.5 34.5q0 29 23.5 55.5t65.5 26.5t76.5 -36.5t34.5 -107.5t-55 -155t-150 -143l-38 35q151 111 151 229zM543 -39q0 41 -28 61.5t-81 34.5q0 29 23.5 55.5t65.5 26.5t77 -36.5t35 -107.5t-55.5 -155t-149.5 -143l-39 35q152 111 152 229z
" />
    <glyph glyph-name="dagger" unicode="&#x2020;" horiz-adv-x="960" 
d="M438 887v393h82v-393h369l-6 -74h-363v-1071h-82v1071h-360l-6 74h366z" />
    <glyph glyph-name="daggerdbl" unicode="&#x2021;" horiz-adv-x="960" 
d="M438 918v362h82v-362h369l-6 -74h-363v-668h363l6 -74h-369v-360h-82v360h-366l6 74h360v668h-360l-6 74h366z" />
    <glyph glyph-name="bullet" unicode="&#x2022;" horiz-adv-x="931" 
d="M860 475.5q0 -43.5 -42.5 -148t-64.5 -125.5q-42 -40 -142.5 -81t-132.5 -41q-57 0 -156.5 40.5t-123.5 65.5t-44.5 63t-39 81t-30.5 83t-12 74.5t43 134.5t66 124q36 38 139.5 80t136.5 42q53 0 158 -42.5t130 -71.5q30 -26 72.5 -130.5t42.5 -148z" />
    <glyph glyph-name="ellipsis" unicode="&#x2026;" horiz-adv-x="940" 
d="M229 56q0 -30 -20.5 -53t-53 -23t-52 23t-19.5 53t19.5 52.5t52 22.5t53 -22.5t20.5 -52.5zM543 56q0 -30 -20.5 -53t-53.5 -23t-52.5 23t-19.5 53t19.5 52.5t52.5 22.5t53.5 -22.5t20.5 -52.5zM856 56q0 -30 -20.5 -53t-53 -23t-52 23t-19.5 53t19.5 52.5t52 22.5
t53 -22.5t20.5 -52.5z" />
    <glyph glyph-name="perthousand" unicode="&#x2030;" horiz-adv-x="2287" 
d="M1719 480.5q-72 -78.5 -72 -192.5t72 -192t194.5 -78t194 79t71.5 191q0 113 -71.5 192t-194 79t-194.5 -78.5zM2159 46.5q-94 -97.5 -246 -97.5t-246 97.5t-94 241.5q0 143 94.5 242t245.5 99t245.5 -98.5t94.5 -242.5t-94 -241.5zM1153 559q-123 0 -194.5 -79.5
t-71.5 -191.5q0 -113 71.5 -191.5t194.5 -78.5t194.5 79t71.5 191q0 113 -71.5 192t-194.5 79zM181 1182q-72 -78 -72 -192t72 -192.5t194.5 -78.5t194 79.5t71.5 191.5q0 113 -71.5 191.5t-194 78.5t-194.5 -78zM1399 46.5q-94 -97.5 -246 -97.5t-246 97.5t-94 241.5
q0 143 94.5 242t245.5 99t245.5 -98.5t94.5 -242.5t-94 -241.5zM285 -31h-95l1057 1340h92zM620.5 747.5q-94.5 -98.5 -245.5 -98.5t-245.5 98.5t-94.5 242.5q0 143 94 241t246 98t246 -97.5t94 -241.5t-94.5 -242.5z" />
    <glyph glyph-name="guilsinglleft" unicode="&#x2039;" horiz-adv-x="641" 
d="M532 57l-466 385v74l466 385l17 -72l-408 -348v-2l408 -350z" />
    <glyph glyph-name="guilsinglright" unicode="&#x203a;" horiz-adv-x="641" 
d="M109 57l-17 72l408 350v2l-408 348l17 72l466 -385v-74z" />
    <glyph glyph-name="fraction" unicode="&#x2044;" horiz-adv-x="1189" 
d="M115 -31h-95l1057 1340h92z" />
    <glyph glyph-name="Euro" unicode="&#x20ac;" horiz-adv-x="1036" 
d="M211 640q0 66 6 128h-137l-6 72h151q35 221 152 347t297 126t295 -62l-19 -75q-119 63 -272 63q-152 0 -247 -100.5t-124 -298.5h498l-6 -72h-500q-4 -58 -4 -124t4 -128h438l6 -72h-436q58 -401 375 -401q149 0 270 57l13 -73q-118 -58 -302 -58t-295.5 125t-144.5 350
h-149l6 72h135q-4 58 -4 124z" />
    <glyph glyph-name="trademark" unicode="&#x2122;" horiz-adv-x="1775" 
d="M408 1214v-700h-70v700h-291v66h649v-66h-288zM1554 514l-38 678h-7l-262 -678h-88l-237 678h-7l-36 -678h-70l47 766h107l241 -696h6l265 696h102l45 -766h-68z" />
    <glyph glyph-name="minus" unicode="&#x2212;" horiz-adv-x="999" 
d="M86 444l6 74h817l6 -74h-829z" />
    <glyph glyph-name="apple" unicode="&#xf8ff;" horiz-adv-x="1552" 
d="M1087 602l103 285l-285 -103l-129 273l-129 -273l-285 103l105 -285l-274 -129l274 -129l-105 -283l285 105l127 -277l131 277l285 -105l-103 287l271 127zM1194 303l141 -387l-387 141l-174 -370l-172 368l-383 -139l139 383l-370 176l370 170l-139 387l383 -141
l176 371l170 -371l387 141l-141 -387l369 -168z" />
    <glyph glyph-name="ff" unicode="&#xfb00;" horiz-adv-x="1146" 
d="M995 1350q-170 0 -170 -238v-184h291l-6 -74h-285v-854h-84v854h-491v-854h-84v854l-135 8l6 51l127 17l2 157q6 248 104.5 283t168.5 35t141 -37l-21 -76q-76 37 -139 37q-170 0 -170 -237v-164l489 2l2 178q7 317 256 317q88 0 158 -36l-20 -76q-76 37 -140 37z" />
    <glyph glyph-name="fi" unicode="&#xfb01;" horiz-adv-x="942" 
d="M420 1350q-170 0 -170 -238v-184h440l96 30v-958h-84v854h-452v-854h-84v854l-135 8l6 51l127 17l2 178q7 317 256 317q88 0 158 -36l-21 -76q-76 37 -139 37z" />
    <glyph glyph-name="fl" unicode="&#xfb02;" horiz-adv-x="935" 
d="M702 0v1380l84 27v-1407h-84zM420 1350q-170 0 -170 -238v-184h291l-6 -74h-285v-854h-84v854l-135 8l6 51l127 17l2 178q7 317 256 317q88 0 158 -36l-21 -76q-76 37 -139 37z" />
    <glyph glyph-name="ffi" unicode="&#xfb03;" horiz-adv-x="1517" 
d="M995 1350q-170 0 -170 -238v-184h441l96 30v-958h-84v854h-453v-854h-84v854h-491v-854h-84v854l-135 8l6 51l127 17l2 157q0 162 68.5 240t171.5 78t174 -37l-21 -76q-76 37 -139 37q-170 0 -170 -237v-164l489 2l2 178q7 317 256 317q88 0 158 -36l-20 -76
q-76 37 -140 37z" />
    <glyph glyph-name="ffl" unicode="&#xfb04;" horiz-adv-x="1511" 
d="M995 1350q-170 0 -170 -238v-184h291l-6 -74h-285v-854h-84v854h-491v-854h-84v854l-135 8l6 51l127 17l2 157q6 248 104.5 283t168.5 35t141 -37l-21 -76q-76 37 -139 37q-170 0 -170 -237v-164l489 2l2 178q7 317 256 317q88 0 158 -36l-20 -76q-76 37 -140 37zM1278 0
v1380l84 27v-1407h-84z" />
    </font>
</defs>
</svg>
