<?xml version="1.0" standalone="no"?>
<!DOCTYPE svg PUBLIC "-//W3C//DTD SVG 1.1//EN" "http://www.w3.org/Graphics/SVG/1.1/DTD/svg11.dtd" >
<svg xmlns="http://www.w3.org/2000/svg">
<metadata>
Created by FontPrep 20130207 at Wed Sep  4 20:36:23 2013
 By Hendricks
Copyright  2004, Joshua Darden &#38; Phil's Fonts, Inc. All rights reserved. Published by Garagefonts USA 301-260-2285 www.garagefonts.com
</metadata>
<defs>
<font id="178d95d0e6a7b57f6938df6e2b563b7f" horiz-adv-x='1024' >
  <font-face 
    font-family="FreightSansMedium"
    font-weight="400"
    font-stretch="normal"
    units-per-em="2048"
    panose-1="2 0 6 6 3 0 0 2 0 4"
    ascent="1638"
    descent="-410"
    x-height="938"
    cap-height="1280"
    bbox="-111 -535 2265 1790"
    underline-thickness="40"
    underline-position="-231"
    unicode-range="U+0020-FB04"
  />
<missing-glyph horiz-adv-x="1024" 
 />
    <glyph glyph-name=".notdef" horiz-adv-x="1024" 
 />
    <glyph glyph-name=".null" horiz-adv-x="0" 
 />
    <glyph glyph-name="nonmarkingreturn" horiz-adv-x="315" 
 />
    <glyph glyph-name="space" unicode=" " horiz-adv-x="315" 
 />
    <glyph glyph-name="exclam" unicode="!" horiz-adv-x="563" 
d="M414 102.5q0 -53.5 -36 -93.5t-94 -40t-96 40t-38 93.5t38 91t96 37.5t94 -37.5t36 -91zM182 1335h203l-51 -938h-98z" />
    <glyph glyph-name="quotedbl" unicode="&#x22;" horiz-adv-x="622" 
d="M-10 815l235 506l154 -74l-320 -432h-69zM297 815l235 506l154 -74l-319 -432h-70z" />
    <glyph glyph-name="numbersign" unicode="#" horiz-adv-x="1146" 
d="M453 745l-80 -299h327l82 299h-329zM78 745v119h284l121 451h123l-121 -451h328l121 451h123l-121 -451h182v-119h-215l-80 -299h254v-118h-284l-129 -480h-123l129 480h-328l-129 -480h-123l129 480h-182v118h213l82 299h-254z" />
    <glyph glyph-name="dollar" unicode="$" horiz-adv-x="1034" 
d="M512 1153q-139 0 -198.5 -55.5t-59.5 -135t54 -124.5t163 -78l53 393h-12zM814.5 77.5q-125.5 -108.5 -325.5 -108.5h-38q2 0 -10 -76.5t-19 -144.5h-98l30 234q-162 25 -291 108l58 158q125 -82 254 -113l61 449q-160 44 -256 125.5t-96 241.5t116.5 260t309.5 100h35
l24 184h99l-27 -195q156 -25 274 -102l-61 -151q-98 67 -233 96l-56 -410q169 -43 272 -130.5t103 -251.5q0 -165 -125.5 -273.5zM494 125q123 0 200.5 59.5t77.5 151.5t-58.5 138t-183.5 83l-57 -432h21z" />
    <glyph glyph-name="percent" unicode="%" horiz-adv-x="1515" 
d="M1147 522q-105 0 -167 -67t-62 -165q0 -97 60 -166t168.5 -69t169 69t60.5 166t-62 164.5t-167 67.5zM368.5 1223q-108.5 0 -169 -69t-60.5 -165t62 -164.5t167.5 -68.5t167.5 68t62 165q0 96 -60.5 165t-169 69zM1393 46.5q-94 -97.5 -246 -97.5t-246 97.5t-94 241.5
q0 143 94.5 242t245.5 99t245.5 -98.5t94.5 -242.5t-94 -241.5zM313 -31h-129l1020 1340h129zM614 747.5q-95 -98.5 -246 -98.5t-245 98.5t-94 242.5q0 143 94 241t245 98q152 0 246.5 -97.5t94.5 -241.5t-95 -242.5z" />
    <glyph glyph-name="ampersand" unicode="&#x26;" horiz-adv-x="1273" 
d="M436 -31q-177 0 -283 102.5t-106 241.5t85 229.5t226 133.5q-211 113 -211 301q0 129 103.5 230.5t271.5 101.5q167 0 262 -91.5t95 -209.5q0 -117 -70 -194t-174 -120q121 -62 266 -227l197 307h196l-313 -399l311 -375l-182 -31l-225 289q-203 -289 -449 -289zM219 344
q0 -92 61.5 -159.5t169.5 -67.5q199 0 361 231q-194 221 -352 277q-104 -49 -172 -119t-68 -162zM713 981q0 80 -53.5 132t-145.5 52t-143.5 -53t-51.5 -132t52.5 -134.5t156.5 -100.5q185 79 185 236z" />
    <glyph glyph-name="quotesingle" unicode="'" horiz-adv-x="315" 
d="M-10 815l235 506l154 -74l-320 -432h-69z" />
    <glyph glyph-name="parenleft" unicode="(" horiz-adv-x="745" 
d="M137 448.5q0 190.5 55.5 350t140.5 283.5t185 211t191 132l73 -106q-82 -45 -171 -126t-160.5 -192.5t-118.5 -251t-47 -301t47 -300t118.5 -250t160.5 -192.5t171 -126l-71 -106q-92 45 -192.5 131t-185.5 210t-140.5 283.5t-55.5 350z" />
    <glyph glyph-name="parenright" unicode=")" horiz-adv-x="745" 
d="M308 982q-153 234 -345 337l74 106q90 -45 191.5 -132t185.5 -211t139 -283.5t55 -350t-55 -350t-140 -283.5t-185.5 -210t-192.5 -131l-72 106q192 103 345 337t153 532.5t-153 532.5z" />
    <glyph glyph-name="asterisk" unicode="*" horiz-adv-x="702" 
d="M133 702l-113 144l289 125v10l-280 129l102 145l209 -237l8 2l39 307l166 -53l-160 -270l6 -7l295 60v-172l-295 61l-6 -6l154 -272l-166 -50l-35 310l-6 2z" />
    <glyph glyph-name="plus" unicode="+" horiz-adv-x="991" 
d="M571 408v-349h-143v349h-346l6 145h340v346h143v-346h336l6 -145h-342z" />
    <glyph glyph-name="comma" unicode="," horiz-adv-x="450" 
d="M342 196.5q55 -53.5 55 -126.5q0 -124 -82 -219.5t-221 -188.5l-71 72q209 152 208 260q0 39 -31.5 67.5t-115.5 67.5q6 49 40 85t99 36q64 0 119 -53.5z" />
    <glyph glyph-name="hyphen" unicode="-" horiz-adv-x="634" 
d="M68 418v157h503v-157h-503z" />
    <glyph glyph-name="period" unicode="." horiz-adv-x="450" 
d="M358 102.5q0 -53.5 -36 -93.5t-94 -40t-95 40t-37 93.5t37 91t95 37.5t94 -37.5t36 -91z" />
    <glyph glyph-name="slash" unicode="/" horiz-adv-x="444" 
d="M16 -408h-122l497 1846h123z" />
    <glyph glyph-name="zero" unicode="0" horiz-adv-x="1181" 
d="M355 738.5q-91 -99.5 -91 -255.5t90.5 -255t236 -99t236.5 99.5t91 254.5t-91.5 255t-236 100t-235.5 -99.5zM1085 483.5q0 -114.5 -36.5 -209t-102 -162t-157 -105.5t-200 -38t-199.5 38t-156.5 105.5t-101.5 162t-36 209t36 208.5t101.5 162t156.5 105.5t199.5 37.5
t200 -37.5t157 -105.5t102 -162t36.5 -208.5z" />
    <glyph glyph-name="one" unicode="1" horiz-adv-x="702" 
d="M496 0h-166v786l-238 -75l-6 153l410 135v-999z" />
    <glyph glyph-name="two" unicode="2" horiz-adv-x="935" 
d="M465 997q157 0 255.5 -81t98.5 -224t-98 -239.5t-184 -159t-187 -133.5h514v-160h-770v145q109 80 207 151t219 173.5t121 208.5q0 72 -51 117t-144 45q-133 0 -290 -117l-60 143q165 131 369 131z" />
    <glyph glyph-name="three" unicode="3" horiz-adv-x="894" 
d="M39 864q168 133 362 133t301 -89.5t107 -243.5t-102.5 -225t-153.5 -91q142 -22 221.5 -114.5t79.5 -198.5q0 -197 -134 -307.5t-345 -110.5q-212 0 -338 78l31 158q120 -82 317 -82q129 0 211 59.5t82 173.5t-105 184.5t-362 22.5v145q285 64 349.5 149t64.5 144
q0 92 -60.5 141.5t-182.5 49.5t-284 -119z" />
    <glyph glyph-name="four" unicode="4" horiz-adv-x="1071" 
d="M684 180v557l-412 -557h412zM848 20v-397h-164v397h-631l-16 99l661 880h150v-819h194l7 -160h-201z" />
    <glyph glyph-name="five" unicode="5" horiz-adv-x="878" 
d="M423 451q80 0 162.5 -29t170.5 -107.5t88 -265.5t-132 -309.5t-319 -122.5q-102 0 -197.5 25.5t-158.5 62.5l31 166q168 -94 308 -94t218 73.5t78 190.5t-77 190.5t-214 73.5t-250 -35l-45 41l84 658h639l6 -166h-508l-49 -363q85 11 165 11z" />
    <glyph glyph-name="six" unicode="6" horiz-adv-x="1056" 
d="M266 442q0 -128 77 -222.5t200 -94.5t192.5 72.5t69.5 189.5t-69.5 186.5t-169.5 69.5t-174.5 -35t-115.5 -73q-10 -37 -10 -93zM274 666q136 127 310 127q173 0 282 -111.5t109 -289.5t-119 -300.5t-324 -122.5q-204 0 -324 152.5t-120 392.5q0 121 44 248t181 296.5
t478 248.5l51 -160q-473 -117 -572 -479z" />
    <glyph glyph-name="seven" unicode="7" horiz-adv-x="933" 
d="M891 969v-146l-578 -1200h-172l568 1180h-674l6 166h850z" />
    <glyph glyph-name="eight" unicode="8" horiz-adv-x="1038" 
d="M948 324q0 -147 -115.5 -251t-317.5 -104t-313.5 100t-111.5 246q0 113 78.5 204.5t167.5 113.5q-110 61 -167.5 125t-57.5 155q0 173 113.5 274t307.5 101t295 -100t101 -246q0 -106 -65 -189t-150 -118q110 -56 154 -106t62.5 -94.5t18.5 -110.5zM260 329
q0 -93 75 -151.5t195 -58.5t183 50t63 142q0 127 -127 184.5t-186 82.5q-92 -31 -147.5 -93.5t-55.5 -155.5zM758 934q0 92 -67.5 148.5t-176.5 56.5t-171 -57.5t-62 -137.5q0 -118 123 -172.5t182 -79.5q172 73 172 242z" />
    <glyph glyph-name="nine" unicode="9" horiz-adv-x="1056" 
d="M791 526q0 126 -77.5 221t-200.5 95q-122 0 -191.5 -73t-69.5 -189.5t69 -186t169 -69.5t174.5 34.5t115.5 73.5q11 36 11 94zM782 301q-136 -127 -308 -127q-174 0 -283 111t-109 291t120.5 300.5t323.5 120.5t323 -152.5t120 -391.5q0 -121 -43 -248t-181.5 -296.5
t-478.5 -248.5l-51 160q474 117 571 479z" />
    <glyph glyph-name="colon" unicode=":" horiz-adv-x="450" 
d="M358 102.5q0 -53.5 -36 -93.5t-94 -40t-95 40t-37 93.5t37 91t95 37.5t94 -37.5t36 -91zM358 733q0 -53 -36 -93t-94 -40t-95 40t-37 93t37 91t95 38t94 -38t36 -91z" />
    <glyph glyph-name="semicolon" unicode=";" horiz-adv-x="450" 
d="M342 196.5q55 -53.5 55 -126.5q0 -124 -82 -219.5t-221 -188.5l-71 72q209 152 208 260q0 39 -31.5 67.5t-115.5 67.5q6 49 40 85t99 36q64 0 119 -53.5zM358 733q0 -53 -36 -93t-94 -40t-95 40t-37 93t37 91t95 38t94 -38t36 -91z" />
    <glyph glyph-name="less" unicode="&#x3c;" horiz-adv-x="970" 
d="M891 35l-823 387v121l821 387v-162l-608 -276v-21l610 -274v-162z" />
    <glyph glyph-name="equal" unicode="=" horiz-adv-x="950" 
d="M70 221l10 146h794l11 -146h-815zM80 594l-10 145h815l-11 -145h-794z" />
    <glyph glyph-name="greater" unicode="&#x3e;" horiz-adv-x="970" 
d="M59 35v162l611 274v21l-609 276v162l822 -387v-121z" />
    <glyph glyph-name="question" unicode="?" horiz-adv-x="729" 
d="M440 102.5q0 -53.5 -36 -93.5t-94 -40t-96 40t-38 93.5t38 91t96 37.5t94 -37.5t36 -91zM259 1309q165 0 277.5 -96.5t112.5 -233.5q0 -170 -88.5 -212.5t-140.5 -62.5t-98 -45.5t-46 -76.5t35 -94.5t78 -84.5l-80 -24q-104 58 -131.5 125t-27.5 112q0 88 53 133t119 71
q122 48 160 74.5t38 89.5t-67.5 114t-204.5 51q-28 0 -144 -16v157q68 19 155 19z" />
    <glyph glyph-name="at" unicode="@" horiz-adv-x="1695" 
d="M1047 725q-71 76 -186 76q-114 0 -192.5 -101t-78.5 -218t57.5 -179.5t125.5 -62.5t109.5 20.5t82.5 54.5zM1538 627q0 261 -197.5 430.5t-476.5 169.5q-137 0 -267 -59.5t-225.5 -159t-150.5 -231.5t-55 -275q0 -287 184 -482.5t465 -195.5q120 0 252 41l23 -76
q-315 -101 -583 15.5t-349.5 325t-81.5 370.5t61.5 309t169 258t253.5 175.5t306 64.5q321 0 541.5 -189.5t220.5 -490.5q0 -249 -119 -393t-286 -144q-84 0 -145.5 39t-90.5 111q-105 -121 -239 -121t-216.5 96.5t-82.5 239.5q0 191 126 328t307 137q91 0 195 -48l142 48
l-99 -498q-42 -219 125 -219q125 0 209 112.5t84 311.5z" />
    <glyph glyph-name="A" unicode="A" horiz-adv-x="1175" 
d="M590 1100l-221 -606h440zM1165 0h-178l-121 336h-555l-121 -336h-180l482 1280h198z" />
    <glyph glyph-name="B" unicode="B" horiz-adv-x="1159" 
d="M899 360q0 201 -311 201h-252v-401h278q285 -1 285 200zM858 925q0 93 -65.5 144t-192.5 51h-264v-401h237q139 0 212 56.5t73 149.5zM1073 376q0 -184 -119 -280t-356 -96h-436v1280h424q231 0 338.5 -94t107.5 -246q0 -199 -219 -281q129 -33 194.5 -110t65.5 -173z
" />
    <glyph glyph-name="C" unicode="C" horiz-adv-x="1230" 
d="M1085 1047q-169 108 -366 108t-323 -139t-126 -373t129 -376t287 -142t253 36t163 89l28 -174q-170 -107 -395 -107q-286 0 -463.5 183t-177.5 485t180 488t461 186q111 0 219.5 -29t186.5 -78z" />
    <glyph glyph-name="D" unicode="D" horiz-adv-x="1318" 
d="M1051 637q0 238 -134.5 359.5t-377.5 121.5h-203v-956h211q359 0 431.5 179t72.5 296zM1043 172.5q-182 -172.5 -504 -172.5h-377v1280h385q313 0 495.5 -171t182.5 -467q0 -297 -182 -469.5z" />
    <glyph glyph-name="E" unicode="E" horiz-adv-x="1071" 
d="M162 0v1280h811v-162h-637v-395h530v-162h-530v-399h637v-162h-811z" />
    <glyph glyph-name="F" unicode="F" horiz-adv-x="1013" 
d="M162 1280h790v-164h-616v-416h510v-161h-510v-539h-174v1280z" />
    <glyph glyph-name="G" unicode="G" horiz-adv-x="1310" 
d="M1186 92q-202 -123 -469 -123q-123 0 -241 47t-203 134.5t-132 210t-47 350.5t180 414t461 186q113 0 229.5 -30t196.5 -81l-57 -160q-183 115 -382 115t-325.5 -139t-126.5 -373t129 -376t361 -142q125 0 258 65v304h-359v161h527v-563z" />
    <glyph glyph-name="H" unicode="H" horiz-adv-x="1372" 
d="M1038 0v565h-702v-565h-174v1280h174v-557h702v557h172v-1280h-172z" />
    <glyph glyph-name="I" unicode="I" horiz-adv-x="505" 
d="M166 0v1280h172v-1280h-172z" />
    <glyph glyph-name="J" unicode="J" horiz-adv-x="856" 
d="M302 127q118 0 170 67.5t52 202.5v883h172v-891q0 -299 -142 -359.5t-234 -60.5q-167 0 -291 80l26 168q129 -90 247 -90z" />
    <glyph glyph-name="K" unicode="K" horiz-adv-x="1122" 
d="M336 608v-608h-174v1280h174v-610h2l543 610h219l-592 -633l598 -647h-223l-545 608h-2z" />
    <glyph glyph-name="L" unicode="L" horiz-adv-x="1011" 
d="M162 0v1280h174v-1116h618v-164h-792z" />
    <glyph glyph-name="M" unicode="M" horiz-adv-x="1581" 
d="M1266 1065l-389 -1047h-175l-391 1049l-14 -1067h-170l43 1280h231l394 -1053l391 1053h227l41 -1280h-176z" />
    <glyph glyph-name="N" unicode="N" horiz-adv-x="1368" 
d="M1036 1280h170v-1292h-188l-686 1044v-1032h-170v1280h192l682 -1032v1032z" />
    <glyph glyph-name="O" unicode="O" horiz-adv-x="1474" 
d="M1074.5 1013q-131.5 142 -338.5 142t-336.5 -140.5t-129.5 -373.5q0 -234 131 -375t338 -141q208 0 337.5 142.5t129.5 373.5q0 230 -131.5 372zM272.5 153q-178.5 184 -178.5 479t181.5 487t464.5 192t461.5 -184t178.5 -479t-183 -487t-464.5 -192t-460 184z" />
    <glyph glyph-name="P" unicode="P" horiz-adv-x="1099" 
d="M848 858q0 260 -340 260h-172v-530l186 4q162 4 244 72.5t82 193.5zM336 0h-174v1280h354q255 0 381.5 -112t126.5 -316q0 -203 -140.5 -312.5t-379.5 -113.5l-168 -2v-424z" />
    <glyph glyph-name="Q" unicode="Q" horiz-adv-x="1474" 
d="M1074.5 1013q-131.5 142 -338.5 142t-336.5 -140.5t-129.5 -373.5t130.5 -375.5t338.5 -142.5t337.5 142.5t129.5 374.5q0 231 -131.5 373zM737 -31q-286 0 -464.5 184t-178.5 479t181.5 487t464.5 192t461.5 -184t178.5 -489t-140 -434.5t-224 -168.5l403 -201l-76 -151
l-550 290q-24 -4 -56 -4z" />
    <glyph glyph-name="R" unicode="R" horiz-adv-x="1116" 
d="M842 897q0 115 -85 169t-233 54h-188v-473l211 6q204 6 249.5 95.5t45.5 148.5zM336 0h-174v1280h383q233 0 352 -102t119 -260t-78 -248t-211 -133l346 -537h-207l-311 508l-219 -14v-494z" />
    <glyph glyph-name="S" unicode="S" horiz-adv-x="1042" 
d="M544 1153q-159 0 -219.5 -55.5t-60.5 -143.5t80 -134t190 -76t264 -93t154 -299q0 -167 -126 -275t-344 -108q-219 0 -408 121l57 158q82 -53 172 -88t208 -35t195.5 59.5t77.5 156.5t-74.5 145.5t-187.5 77.5t-181.5 55t-157.5 95.5t-89 232.5t118 263.5t324 100.5
q207 0 390 -113l-62 -151q-161 106 -320 106z" />
    <glyph glyph-name="T" unicode="T" horiz-adv-x="1146" 
d="M659 1116v-1116h-172v1116h-448v164h1069v-164h-449z" />
    <glyph glyph-name="U" unicode="U" horiz-adv-x="1323" 
d="M1163 494q0 -377 -188.5 -451t-312.5 -74q-241 0 -371.5 136.5t-130.5 369.5v805h172v-778q0 -174 83 -271.5t244 -97.5t246.5 88t85.5 268v791h172v-786z" />
    <glyph glyph-name="V" unicode="V" horiz-adv-x="1153" 
d="M674 0h-201l-473 1280h178l397 -1094l398 1094h180z" />
    <glyph glyph-name="W" unicode="W" horiz-adv-x="1839" 
d="M598 0h-170l-365 1280h183l276 -1042l301 1042h201l309 -1042l273 1042h170l-363 -1280h-174l-317 1065z" />
    <glyph glyph-name="X" unicode="X" horiz-adv-x="1175" 
d="M229 0h-204l458 643l-444 637h213l334 -502l344 502h207l-449 -627l463 -653h-217l-350 526z" />
    <glyph glyph-name="Y" unicode="Y" horiz-adv-x="1105" 
d="M641 0h-174v510l-447 770h197l340 -598l336 598h192l-444 -772v-508z" />
    <glyph glyph-name="Z" unicode="Z" horiz-adv-x="1067" 
d="M47 0v131l725 987h-713v162h930v-135l-723 -983h721v-162h-940z" />
    <glyph glyph-name="bracketleft" unicode="[" horiz-adv-x="749" 
d="M170 -455v1837h561v-133h-416v-1571h416v-133h-561z" />
    <glyph glyph-name="backslash" unicode="\" horiz-adv-x="444" 
d="M53 1438l498 -1846h-123l-498 1846h123z" />
    <glyph glyph-name="bracketright" unicode="]" horiz-adv-x="749" 
d="M20 -322h416v1571h-416v133h562v-1837h-562v133z" />
    <glyph glyph-name="asciicircum" unicode="^" 
d="M612 1065l-200 260h-2l-203 -260h-123l235 383h181l235 -383h-123z" />
    <glyph glyph-name="underscore" unicode="_" horiz-adv-x="944" 
d="M-25 -121v121h994v-121h-994z" />
    <glyph glyph-name="grave" unicode="`" 
d="M444 1065l-299 371h205l217 -371h-123z" />
    <glyph glyph-name="a" unicode="a" horiz-adv-x="923" 
d="M68 238q0 308 559 335v27q0 115 -48.5 164t-141.5 49q-174 0 -324 -104l-33 151q61 43 156.5 76t195.5 33q193 0 280 -86t83 -279v-393q0 -57 15 -74.5t77 -17.5l-10 -142q-203 -18 -244 123h-8q-110 -131 -250 -131t-223.5 76t-83.5 193zM412 113q120 0 215 100v254
q-209 -27 -295 -75t-86 -134q0 -63 44 -104t122 -41z" />
    <glyph glyph-name="b" unicode="b" horiz-adv-x="1071" 
d="M544 813q-128 0 -231 -90v-535q84 -68 216 -68t211 99.5t79 252.5t-73.5 247t-201.5 94zM575 969q192 0 305 -138t113 -357t-134.5 -362t-342.5 -143q-103 0 -203 31l-168 -31v1411l168 27v-555q127 117 262 117z" />
    <glyph glyph-name="c" unicode="c" horiz-adv-x="933" 
d="M564 125q145 0 259 78l31 -156q-127 -78 -309 -78q-220 0 -340.5 137t-120.5 361t133 363t324 139q192 0 319 -80l-43 -154q-115 78 -260 78t-222 -91t-77 -253t81 -253t225 -91z" />
    <glyph glyph-name="d" unicode="d" horiz-adv-x="1077" 
d="M533 125q127 0 231 90v535q-82 68 -214 68t-212 -99t-80 -253q0 -153 74 -247t201 -94zM561 969q104 0 203 -31v442l168 27v-1407h-168v86q-127 -117 -262 -117q-192 0 -305 138t-113 356.5t135.5 362t341.5 143.5z" />
    <glyph glyph-name="e" unicode="e" horiz-adv-x="983" 
d="M743 590q0 104 -51 167.5t-163 63.5t-183 -73.5t-84 -176.5l481 4v15zM874 47q-126 -78 -326 -78t-332 138t-132 356t131 362t318 144q186 0 279 -99.5t93 -267.5q0 -89 -20 -149h-125l-506 -4v-9q4 -137 89 -226t235 -89t266 78z" />
    <glyph glyph-name="f" unicode="f" horiz-adv-x="647" 
d="M478 1268q-130 0 -130 -199v-131h297l-6 -152h-291v-786h-168v784l-164 13l9 106l153 45l2 119q7 358 309 358q91 0 189 -45q0 -11 -14.5 -59.5t-20.5 -72.5l-6 -21q-96 41 -159 41z" />
    <glyph glyph-name="g" unicode="g" horiz-adv-x="974" 
d="M92 143q0 59 42 108.5t114 74.5q-156 91 -156 288q0 145 103.5 250t277.5 105q126 0 242 -54l241 23l7 -166l-181 33q29 -27 46.5 -83t17.5 -118t-27.5 -125t-108.5 -137t-239 -74q-52 0 -131 23q-29 -10 -60.5 -37t-31.5 -54q0 -54 45.5 -75t167.5 -21h86
q409 0 409 -251q0 -155 -146.5 -258t-346.5 -103t-324.5 76.5t-124.5 198.5q0 80 51.5 140.5t149.5 78.5q-123 56 -123 157zM528 -53q-124 0 -186 8q-72 -20 -117 -59t-45 -93q0 -76 81 -125t216 -49t225.5 54t90.5 134q0 81 -70.5 105.5t-194.5 24.5zM260 614
q0 -96 58.5 -153.5t155.5 -57.5t151.5 60.5t54.5 156.5t-53.5 155t-153.5 59t-156.5 -62t-56.5 -158z" />
    <glyph glyph-name="h" unicode="h" horiz-adv-x="1058" 
d="M629 969q135 0 214 -85t79 -239v-645h-168v590q0 123 -46 170t-134 47q-151 0 -261 -102v-705h-168v1380l168 27v-576q138 138 316 138z" />
    <glyph glyph-name="i" unicode="i" horiz-adv-x="458" 
d="M145 0v942l168 27v-969h-168zM340 1266q0 -47 -26.5 -84t-84 -37t-84 37t-26.5 84t26.5 83.5t84 36.5t84 -36.5t26.5 -83.5z" />
    <glyph glyph-name="j" unicode="j" horiz-adv-x="452" 
d="M145 -51v993l168 27v-1008q0 -202 -48.5 -303t-170.5 -168l-112 119q88 41 125.5 115t37.5 225zM340 1266q0 -47 -26.5 -84t-84 -37t-84 37t-26.5 84t26.5 83.5t84 36.5t84 -36.5t26.5 -83.5z" />
    <glyph glyph-name="k" unicode="k" horiz-adv-x="933" 
d="M313 463v-463h-168v1380l168 27v-899h4l388 430h213l-431 -444l433 -494h-215l-388 463h-4z" />
    <glyph glyph-name="l" unicode="l" horiz-adv-x="458" 
d="M145 0v1380l168 27v-1407h-168z" />
    <glyph glyph-name="m" unicode="m" horiz-adv-x="1622" 
d="M1200 969q129 0 207 -86t78 -242v-641h-168v586q0 123 -44 173t-136 50q-126 0 -238 -107v-702h-168v586q0 123 -44 173t-136 50q-137 0 -238 -96v-713h-168v942l168 27v-129q135 129 306 129t241 -156q156 156 340 156z" />
    <glyph glyph-name="n" unicode="n" horiz-adv-x="1058" 
d="M608 969q153 0 233.5 -85t80.5 -239v-645h-168v590q0 123 -47.5 170t-134.5 47q-149 0 -259 -102v-705h-168v942l168 27v-142q142 142 295 142z" />
    <glyph glyph-name="o" unicode="o" horiz-adv-x="1081" 
d="M831 467q0 76 -19 140.5t-57 111.5t-92.5 73.5t-124 26.5t-124 -25.5t-91 -71.5t-55 -110.5t-18.5 -140.5t19.5 -139.5t57.5 -110.5t92 -73.5t123.5 -26.5t124 25.5t91.5 71.5t55 109.5t18 139.5zM867 107q-130 -138 -330 -138q-201 0 -327 137.5t-126 360.5t129 363.5
t332 140.5t327.5 -137.5t124.5 -362.5q0 -226 -130 -364z" />
    <glyph glyph-name="p" unicode="p" horiz-adv-x="1077" 
d="M544 813q-128 0 -231 -90v-535q84 -68 216 -68t211 99.5t79 252.5t-73.5 247t-201.5 94zM575 969q192 0 305 -138t113 -357t-134.5 -362t-342.5 -143q-109 0 -203 25v-471h-168v1419l168 27v-117q127 117 262 117z" />
    <glyph glyph-name="q" unicode="q" horiz-adv-x="1077" 
d="M258 467q0 -154 74 -250t199 -96t233 94v535q-83 71 -215 71t-211.5 -100t-79.5 -254zM563 969q106 0 238 -35l131 35v-1446h-168v563q-127 -117 -262 -117q-192 0 -305 138t-113 356.5t135 362t344 143.5z" />
    <glyph glyph-name="r" unicode="r" horiz-adv-x="780" 
d="M313 0h-168v942l168 27v-166q49 78 110.5 122t156.5 44t172 -47l-43 -158q-73 43 -150 43q-140 0 -246 -195v-612z" />
    <glyph glyph-name="s" unicode="s" horiz-adv-x="821" 
d="M678 745q-124 70 -276 70q-68 0 -113 -29.5t-45 -75.5q0 -76 52 -104t134 -50q82 -23 133 -43.5t91 -52.5t65.5 -79t25.5 -146.5t-99 -183.5t-270 -84t-313 88l43 154q128 -88 294 -88q76 0 129 34.5t53 98.5q0 89 -35 100l-191 56q-122 37 -198 97t-76 183t97 201
t249 78q153 0 293 -70z" />
    <glyph glyph-name="t" unicode="t" horiz-adv-x="694" 
d="M438 123q86 0 170 35q2 0 6 -22.5t12 -53.5t13 -72q-106 -41 -211 -41q-280 0 -272 293l14 524l-156 11l6 106l156 47l4 203h162l-6 -215h293l-6 -152h-293l-15 -530q-4 -133 123 -133z" />
    <glyph glyph-name="u" unicode="u" horiz-adv-x="1058" 
d="M430 -31q-135 0 -214 85t-79 239v645h168v-590q0 -123 46 -170t133 -47t154 32t107 70v705h168v-942l-168 -27v137q-137 -137 -315 -137z" />
    <glyph glyph-name="v" unicode="v" horiz-adv-x="903" 
d="M530 -2h-155l-371 940h180l275 -729l262 729h178z" />
    <glyph glyph-name="w" unicode="w" horiz-adv-x="1400" 
d="M317 -4l-288 942h180l199 -696l217 692h153l240 -694l172 698h186l-282 -942h-154l-240 700l-229 -700h-154z" />
    <glyph glyph-name="x" unicode="x" horiz-adv-x="847" 
d="M657 0l-233 367l-229 -367h-193l322 479l-304 459h189l215 -338l205 338h192l-297 -455l322 -483h-189z" />
    <glyph glyph-name="y" unicode="y" horiz-adv-x="903" 
d="M116 -328q42 0 64.5 8.5t53 42t77.5 152.5l58 145l-365 918h180l273 -729l264 729h178l-375 -948l-63 -168q-91 -248 -183 -278.5t-168 -30.5t-178 49l50 155q92 -45 134 -45z" />
    <glyph glyph-name="z" unicode="z" horiz-adv-x="839" 
d="M43 0v143l545 641h-527v154h730v-139l-545 -645h545v-154h-748z" />
    <glyph glyph-name="braceleft" unicode="{" horiz-adv-x="694" 
d="M659 1300q-305 -22 -305 -140q0 -56 15.5 -102t49.5 -135t34 -189q0 -99 -71 -170.5t-206 -80.5v-20q135 -10 206 -82t71 -172t-34 -186t-49.5 -131.5t-15.5 -90.5q0 -70 70 -107.5t235 -47.5v-115q-221 10 -338.5 71.5t-117.5 202.5q0 84 32.5 179.5t48 142.5t15.5 96
q0 88 -59.5 123t-190.5 45l-6 82l6 82q131 10 190.5 44t59.5 124q0 49 -15.5 97t-48 142t-32.5 179q0 141 117.5 203.5t338.5 72.5v-117z" />
    <glyph glyph-name="bar" unicode="|" horiz-adv-x="464" 
d="M164 1438h137v-1846h-137v1846z" />
    <glyph glyph-name="braceright" unicode="}" horiz-adv-x="694" 
d="M393 223q0 -49 15.5 -96t49.5 -141.5t34 -180.5q0 -141 -117 -202.5t-340 -71.5v115q166 10 235.5 48t69.5 105q0 45 -15.5 90t-48 135t-32.5 188t68.5 169.5t205.5 81.5v20q-137 8 -205.5 80t-68.5 170t32.5 188.5t48 136.5t15.5 102q0 117 -305 140v117
q223 -10 340 -72.5t117 -203.5q0 -87 -34 -180t-49.5 -141t-15.5 -97q0 -90 60.5 -124t191.5 -44l6 -82l-6 -82q-131 -10 -191.5 -45t-60.5 -123z" />
    <glyph glyph-name="asciitilde" unicode="~" 
d="M584 496q43 0 61 127h115q-14 -131 -59.5 -194.5t-139.5 -63.5q-47 0 -91 22.5t-84 48t-75 48t-79 22.5t-62 -127h-113q14 133 59.5 196.5t126.5 63.5t154.5 -49t108.5 -71.5t78 -22.5z" />
    <glyph glyph-name="nonbreakingspace" unicode="&#xa0;" horiz-adv-x="315" 
 />
    <glyph glyph-name="exclamdown" unicode="&#xa1;" horiz-adv-x="563" 
d="M383 -57h-205l53 938h99zM150 1175.5q0 53.5 36 93.5t94 40t96 -40t38 -93.5t-38 -91t-96 -37.5t-94 37.5t-36 91z" />
    <glyph glyph-name="cent" unicode="&#xa2;" horiz-adv-x="911" 
d="M258 484q0 -146 53.5 -232t147.5 -115l92 676q-143 -2 -218 -92.5t-75 -236.5zM549 -31h-12q2 0 -10 -76.5t-19 -144.5h-100l30 232q-164 35 -259 165.5t-95 338.5t132 346.5t337 138.5h18l25 184h100l-26 -195q101 -15 190 -69l-43 -154q-76 51 -168 68l-90 -678
q154 0 264 78l31 -156q-127 -78 -305 -78z" />
    <glyph glyph-name="sterling" unicode="&#xa3;" horiz-adv-x="1044" 
d="M264 351q0 105 -6 210h-190l-7 111h193q-6 111 -6 212q0 203 113 315t288 112q174 0 309 -88l-40 -150q-130 86 -259 86t-186 -76.5t-57 -180.5t8 -230h401l-6 -111h-391q4 -94 4 -179t-14 -142q70 -57 147 -87t141 -30t120.5 46t78.5 173l129 -29q-12 -162 -103 -253
t-216 -91q-171 0 -346 158q-84 -112 -285 -162q-22 89 -39 135q131 36 175 91t44 160z" />
    <glyph glyph-name="currency" unicode="&#xa4;" horiz-adv-x="1028" 
d="M211 638q0 60 4 118h-147l-7 112h170q44 226 166.5 334.5t303.5 108.5t309 -78l-41 -150q-115 76 -252 76q-138 0 -211.5 -70.5t-104.5 -220.5h465l-6 -112h-473q-4 -50 -4 -112t6 -116h410l6 -112h-399q35 -154 109.5 -224.5t178.5 -70.5q164 0 281 76l29 -152
q-127 -76 -314 -76q-394 0 -463 447h-166l7 112h147q-4 50 -4 110z" />
    <glyph glyph-name="yen" unicode="&#xa5;" horiz-adv-x="1112" 
d="M635 539v-160h356l6 -111h-360v-268h-166v268h-360l6 111h356v160h-356l-6 112h315l-401 629h194l338 -563l336 563h188l-397 -629h313l-6 -112h-356z" />
    <glyph glyph-name="brokenbar" unicode="&#xa6;" horiz-adv-x="759" 
d="M631 362q0 -393 -355 -393q-131 0 -241 68l24 166q111 -74 210 -74t144.5 55.5t45.5 180.5v915h172v-918z" />
    <glyph glyph-name="section" unicode="&#xa7;" horiz-adv-x="964" 
d="M774 567q0 49 -42 81t-105.5 55.5t-139 45t-143.5 52.5q-135 -85 -135 -170q0 -47 44 -78t110.5 -54.5t145.5 -46t146 -55.5q119 73 119 170zM193 106q127 -88 293 -88q76 0 129 35t53 99q0 80 -107 114.5t-165 50.5q-162 45 -252.5 101.5t-90.5 177.5t85 176t126 70
q-110 74 -110 195t96.5 200.5t249.5 79.5t293 -70l-43 -153q-123 69 -269 69q-76 0 -121 -29.5t-45 -74.5t22.5 -67.5t68.5 -43t141 -46.5q196 -54 290.5 -116t94.5 -182q0 -92 -53.5 -156.5t-143.5 -97.5q96 -74 96 -194q0 -121 -100 -206t-271 -85t-310 88z" />
    <glyph glyph-name="dieresis" unicode="&#xa8;" 
d="M324 1201q0 -52 -35 -90t-89 -38t-89 38t-35 90t35 90t89 38t89 -38t35 -90zM741 1201q0 -52 -33.5 -90t-89 -38t-89 38t-33.5 90t33.5 90t89 38t89 -38t33.5 -90z" />
    <glyph glyph-name="copyright" unicode="&#xa9;" horiz-adv-x="1490" 
d="M1006 315q-88 -57 -243 -57t-256 102t-101 273q0 172 102 277.5t256 105.5t248 -58l-41 -110q-90 57 -198 57t-174.5 -70.5t-66.5 -194.5t68 -197.5t178 -73.5t203 67zM1354 638q0 126 -48.5 237.5t-130 194.5t-192.5 132t-237 49t-237.5 -49t-193.5 -132t-130 -194.5
t-48 -237.5t48 -237.5t130 -195.5t193.5 -132t237.5 -48t237 48t192.5 132t130 195.5t48.5 237.5zM745.5 -33q-139.5 0 -261.5 53.5t-213 143.5t-143 213t-52 261t52 260t143 213t213 144.5t261.5 53.5t261 -53.5t213 -144.5t143.5 -213t52 -260t-52 -261t-143.5 -213
t-213 -143.5t-261 -53.5z" />
    <glyph glyph-name="ordfeminine" unicode="&#xaa;" horiz-adv-x="720" 
d="M299 631q105 0 174 67v195q-229 -11 -262 -69t-33 -83q0 -59 37 -84.5t84 -25.5zM271 510q-107 0 -166.5 60.5t-59.5 152.5q0 182 154.5 225t273.5 47v47q0 70 -38 105t-105 35q-113 0 -230 -90l-49 114q141 105 293 105q182 0 222 -93.5t40 -168.5v-295q0 -72 28 -124
t56 -89l-141 -33q-39 45 -66 110h-2q-103 -108 -210 -108z" />
    <glyph glyph-name="guillemotleft" unicode="&#xab;" horiz-adv-x="1187" 
d="M551 74l-510 313v184l510 314l16 -115l-379 -289v-4l379 -289zM1120 51l-536 332v192l536 332l15 -123l-398 -303v-4l398 -303z" />
    <glyph glyph-name="logicalnot" unicode="&#xac;" horiz-adv-x="1077" 
d="M502 -31q-192 0 -305 138t-113 356.5t135 362t342 143.5q109 0 240 -35l131 35v-758q0 -57 15.5 -74.5t76.5 -17.5l-10 -142q-113 -10 -174.5 30t-75.5 93q-110 -131 -262 -131zM258 467q0 -154 74 -250t199 -96t233 94v535q-83 71 -215 71t-211.5 -100t-79.5 -254z" />
    <glyph glyph-name="registered" unicode="&#xae;" horiz-adv-x="1490" 
d="M901 776q0 62 -41 90.5t-125 28.5h-123v-256l123 2q166 4 166 135zM1028 780q0 -153 -139 -211l178 -286h-145l-158 258l-150 -9v-249h-127v725h263q135 0 206.5 -59.5t71.5 -168.5zM1354 638q0 126 -48.5 237.5t-130 194.5t-192.5 132t-237 49t-237.5 -49t-193.5 -132
t-130 -194.5t-48 -237.5t48 -237.5t130 -195.5t193.5 -132t237.5 -48t237 48t192.5 132t130 195.5t48.5 237.5zM745.5 -33q-139.5 0 -261.5 53.5t-213 143.5t-143 213t-52 261t52 260t143 213t213 144.5t261.5 53.5t261 -53.5t213 -144.5t143.5 -213t52 -260t-52 -261
t-143.5 -213t-213 -143.5t-261 -53.5z" />
    <glyph glyph-name="macron" unicode="&#xaf;" 
d="M127 1102l8 108h545l10 -108h-563z" />
    <glyph glyph-name="degree" unicode="&#xb0;" horiz-adv-x="763" 
d="M548.5 1140.5q-59.5 67.5 -164.5 67.5t-166.5 -66.5t-61.5 -164.5t61 -165t165 -67t165 67t61 164t-59.5 164.5zM625.5 738.5q-91.5 -97.5 -243.5 -97.5t-243.5 97.5t-91.5 237t91.5 237.5t243.5 98t243.5 -98t91.5 -237.5t-91.5 -237z" />
    <glyph glyph-name="plusminus" unicode="&#xb1;" horiz-adv-x="1490" 
d="M934 741q0 133 -174 133h-105v-272l113 2q166 4 166 137zM1063 736q0 -116 -81 -180t-222 -64h-103v-230h-127v725h238q152 0 223.5 -67.5t71.5 -183.5zM1354 638q0 126 -48.5 237.5t-130 194.5t-192.5 132t-237 49t-237.5 -49t-193.5 -132t-130 -194.5t-48 -237.5
t48 -237.5t130 -195.5t193.5 -132t237.5 -48t237 48t192.5 132t130 195.5t48.5 237.5zM745.5 -33q-139.5 0 -261.5 52.5t-213 143.5t-143 213t-52 261t52 261t143 213t213 144.5t261.5 53.5t261 -53.5t213 -144.5t143.5 -213t52 -261t-52 -261t-143.5 -213t-213 -143.5
t-261 -52.5z" />
    <glyph glyph-name="acute" unicode="&#xb4;" 
d="M375 1065h-123l217 371h205z" />
    <glyph glyph-name="mu" unicode="&#xb5;" horiz-adv-x="1081" 
d="M258 466q0 -153 76 -247t201 -94t233 94v531q-83 71 -216 71t-213.5 -101t-80.5 -254zM567 969q106 0 238 -35l131 35v-977q0 -250 -113 -364.5t-303 -114.5t-344 77l43 156q133 -76 277 -76t208 76t64 231v113q-127 -117 -262 -117q-194 0 -308 137t-114 353t136 361
t347 145z" />
    <glyph glyph-name="paragraph" unicode="&#xb6;" horiz-adv-x="1019" 
d="M533 520q-87 0 -177 29t-177 104t-87 252t133.5 276t356.5 99h252v-1411h-142v666q-72 -15 -159 -15z" />
    <glyph glyph-name="periodcentered" unicode="&#xb7;" horiz-adv-x="450" 
d="M358 467q0 -53 -36 -93t-94 -40t-95 40t-37 93t37 91t95 38t94 -38t36 -91z" />
    <glyph glyph-name="cedilla" unicode="&#xb8;" 
d="M516 -317q0 47 -58.5 68.5t-187.5 0.5l-16 86l246 242h121l-226 -219q121 0 186.5 -45t65.5 -127t-77.5 -141.5t-258.5 -82.5l-12 107q217 11 217 111z" />
    <glyph glyph-name="ordmasculine" unicode="&#xba;" horiz-adv-x="862" 
d="M664 907q0 194 -89.5 238.5t-144.5 44.5q-113 0 -172 -78t-59 -201q0 -191 89 -235.5t144 -44.5q113 0 172.5 76.5t59.5 199.5zM170 1201q104 110 265 110t261.5 -109t100.5 -290q0 -180 -103.5 -291t-265 -111t-262 110t-100.5 290.5t104 290.5z" />
    <glyph glyph-name="guillemotright" unicode="&#xbb;" horiz-adv-x="1200" 
d="M80 51l-14 123l397 303v4l-397 303l14 123l536 -332v-192zM649 74l-16 114l379 289v4l-379 289l16 115l510 -314v-184z" />
    <glyph glyph-name="onequarter" unicode="&#xbc;" horiz-adv-x="1314" 
d="M1016 1069v-131h297l-6 -152h-291v-786h-168v786h-500v-786h-168v784l-164 13l9 106l153 45l2 99q7 358 309 358q91 0 189 -45q0 -10 -14.5 -59.5t-20.5 -72.5l-6 -22q-97 41 -159 41q-130 0 -130 -198v-111h498l2 129q7 358 309 358q96 0 189 -45q0 -5 -14.5 -56.5
t-20.5 -75.5l-6 -21q-97 41 -159 41q-130 0 -130 -199z" />
    <glyph glyph-name="onehalf" unicode="&#xbd;" horiz-adv-x="1767" 
d="M1016 1069v-131h444l168 31v-969h-168v786h-444v-786h-168v786h-500v-786h-168v784l-164 13l9 106l153 45l2 99q7 358 309 358q91 0 189 -45q0 -10 -14.5 -59.5t-20.5 -72.5l-6 -22q-97 41 -159 41q-130 0 -130 -198v-111h498l2 129q7 358 309 358q96 0 189 -45
q0 -5 -14.5 -56.5t-20.5 -75.5l-6 -21q-97 41 -159 41q-130 0 -130 -199z" />
    <glyph glyph-name="threequarters" unicode="&#xbe;" horiz-adv-x="1773" 
d="M1016 1069v-131h297l-6 -152h-291v-786h-168v786h-500v-786h-168v784l-164 13l9 106l153 45l2 99q7 358 309 358q91 0 189 -45q0 -10 -14.5 -59.5t-20.5 -72.5l-6 -22q-97 41 -159 41q-130 0 -130 -198v-111h498l2 129q7 358 309 358q96 0 189 -45q0 -5 -14.5 -56.5
t-20.5 -75.5l-6 -21q-97 41 -159 41q-130 0 -130 -199zM1460 0v1380l168 27v-1407h-168z" />
    <glyph glyph-name="questiondown" unicode="&#xbf;" horiz-adv-x="729" 
d="M289 1175.5q0 53.5 35.5 93.5t93.5 40t96.5 -40t38.5 -93.5t-38 -91t-96 -37.5t-94 37.5t-36 91zM468 -31q-165 0 -277.5 96.5t-112.5 233.5q0 172 89 213.5t141 61.5t97.5 45.5t45.5 76.5t-34 94.5t-77 83.5l78 25q106 -58 134 -125t28 -112q0 -136 -173 -204
q-122 -48 -160 -75t-38 -89q0 -63 67.5 -114t204.5 -51q34 0 142 16v-157q-68 -19 -155 -19z" />
    <glyph glyph-name="Agrave" unicode="&#xc0;" horiz-adv-x="1175" 
d="M526 1407l-299 371h205l217 -371h-123zM590 1100l-221 -606h440zM1165 0h-178l-121 336h-555l-121 -336h-180l482 1280h198z" />
    <glyph glyph-name="Aacute" unicode="&#xc1;" horiz-adv-x="1175" 
d="M641 1407h-123l217 371h205zM590 1100l-221 -606h440zM1165 0h-178l-121 336h-555l-121 -336h-180l482 1280h198z" />
    <glyph glyph-name="Acircumflex" unicode="&#xc2;" horiz-adv-x="1175" 
d="M797 1407l-201 260h-2l-203 -260h-123l236 383h180l236 -383h-123zM590 1100l-221 -606h440zM1165 0h-178l-121 336h-555l-121 -336h-180l482 1280h198z" />
    <glyph glyph-name="Atilde" unicode="&#xc3;" horiz-adv-x="1175" 
d="M768 1544q43 0 61 127h115q-14 -131 -59 -194.5t-140 -63.5q-47 0 -91 22.5t-84 48t-74.5 48t-78.5 22.5t-63 -127h-112q14 133 59 197t139 64q47 0 91 -23t84 -49.5t75 -49t78 -22.5zM590 1100l-221 -606h440zM1165 0h-178l-121 336h-555l-121 -336h-180l482 1280h198z
" />
    <glyph glyph-name="Adieresis" unicode="&#xc4;" horiz-adv-x="1175" 
d="M504 1543q0 -52 -35 -90t-89 -38t-89 38t-35 90t35 90t89 38t89 -38t35 -90zM922 1543q0 -52 -34 -90t-89.5 -38t-89 38t-33.5 90t33.5 90t89 38t89.5 -38t34 -90zM590 1100l-221 -606h440zM1165 0h-178l-121 336h-555l-121 -336h-180l482 1280h198z" />
    <glyph glyph-name="Aring" unicode="&#xc5;" horiz-adv-x="1175" 
d="M739 1398.5q0 55.5 -40.5 95.5t-108.5 40t-107 -40t-39 -95.5t39 -96t108 -40.5t108.5 40.5t39.5 96zM338 1388q0 104 68.5 168t182.5 64t183.5 -64t69.5 -159q2 -61 -31 -113.5t-92 -81.5l446 -1202h-178l-121 336h-555l-121 -336h-180l451 1202q-57 29 -90 80.5
t-33 105.5zM590 1100l-221 -606h440z" />
    <glyph glyph-name="AE" unicode="&#xc6;" horiz-adv-x="1703" 
d="M1618 1280v-162h-639v-395h532v-162h-532v-399h639v-162h-811v334h-445l-186 -334h-192l731 1280h903zM807 496v624l-352 -624h352z" />
    <glyph glyph-name="Ccedilla" unicode="&#xc7;" horiz-adv-x="1230" 
d="M791 -317q0 47 -58.5 68.5t-187.5 0.5l-17 86l138 135q-255 20 -413.5 201.5t-158.5 472.5t180 477.5t461 186.5q111 0 219.5 -29t186.5 -78l-56 -157q-169 108 -366 108t-323 -139t-126 -373t129 -376t287 -142t253 36t163 89l28 -174q-152 -93 -348 -105l-112 -110
q121 0 186.5 -45t65.5 -127t-78 -141.5t-258 -82.5l-13 107q218 11 218 111z" />
    <glyph glyph-name="Egrave" unicode="&#xc8;" horiz-adv-x="1071" 
d="M535 1407l-299 371h204l217 -371h-122zM162 0v1280h811v-162h-637v-395h530v-162h-530v-399h637v-162h-811z" />
    <glyph glyph-name="Eacute" unicode="&#xc9;" horiz-adv-x="1071" 
d="M586 1407h-123l217 371h205zM162 0v1280h811v-162h-637v-395h530v-162h-530v-399h637v-162h-811z" />
    <glyph glyph-name="Ecircumflex" unicode="&#xca;" horiz-adv-x="1071" 
d="M764 1407l-201 260h-2l-203 -260h-122l235 383h180l236 -383h-123zM162 0v1280h811v-162h-637v-395h530v-162h-530v-399h637v-162h-811z" />
    <glyph glyph-name="Edieresis" unicode="&#xcb;" horiz-adv-x="1071" 
d="M475 1543q0 -52 -34.5 -90t-88.5 -38t-89.5 38t-35.5 90t35 90t89 38t89 -38t35 -90zM893 1543q0 -52 -34 -90t-89 -38t-89 38t-34 90t34 90t89 38t89 -38t34 -90zM162 0v1280h811v-162h-637v-395h530v-162h-530v-399h637v-162h-811z" />
    <glyph glyph-name="Igrave" unicode="&#xcc;" horiz-adv-x="505" 
d="M211 1407l-299 371h205l217 -371h-123zM166 0v1280h172v-1280h-172z" />
    <glyph glyph-name="Iacute" unicode="&#xcd;" horiz-adv-x="505" 
d="M305 1407h-123l217 371h205zM166 0v1280h172v-1280h-172z" />
    <glyph glyph-name="Icircumflex" unicode="&#xce;" horiz-adv-x="505" 
d="M461 1407l-201 260h-2l-203 -260h-123l236 383h180l236 -383h-123zM166 0v1280h172v-1280h-172z" />
    <glyph glyph-name="Idieresis" unicode="&#xcf;" horiz-adv-x="505" 
d="M172 1543q0 -52 -35 -90t-89 -38t-89 38t-35 90t35 90t89 38t89 -38t35 -90zM590 1543q0 -52 -34 -90t-89 -38t-89 38t-34 90t34 90t89 38t89 -38t34 -90zM166 0v1280h172v-1280h-172z" />
    <glyph glyph-name="Eth" unicode="&#xd0;" horiz-adv-x="1349" 
d="M33 573v150h170v557h385q313 0 495.5 -171t182.5 -467t-182 -469t-504 -173h-377v573h-170zM702 723v-150h-325v-411h211q359 0 431.5 179t72.5 296q0 238 -134.5 359.5t-377.5 121.5h-203v-395h325z" />
    <glyph glyph-name="Ntilde" unicode="&#xd1;" horiz-adv-x="1368" 
d="M511 1554q-44 0 -62 -127h-113q14 133 59 197t140 64q47 0 91 -23t84 -49.5t74.5 -49t63.5 -22.5t47 27.5t29 99.5h114q-14 -131 -59 -194.5t-139 -63.5q-47 0 -91 22.5t-84 48t-75 48t-79 22.5zM1036 1280h170v-1292h-188l-686 1044v-1032h-170v1280h192l682 -1032v1032
z" />
    <glyph glyph-name="Ograve" unicode="&#xd2;" horiz-adv-x="1474" 
d="M696 1407l-299 371h205l217 -371h-123zM1074.5 1013q-131.5 142 -338.5 142t-336.5 -140.5t-129.5 -373.5q0 -234 131 -375t338 -141q208 0 337.5 142.5t129.5 373.5q0 230 -131.5 372zM272.5 153q-178.5 184 -178.5 479t181.5 487t464.5 192t461.5 -184t178.5 -479
t-183 -487t-464.5 -192t-460 184z" />
    <glyph glyph-name="Oacute" unicode="&#xd3;" horiz-adv-x="1474" 
d="M791 1407h-123l217 371h205zM1074.5 1013q-131.5 142 -338.5 142t-336.5 -140.5t-129.5 -373.5q0 -234 131 -375t338 -141q208 0 337.5 142.5t129.5 373.5q0 230 -131.5 372zM272.5 153q-178.5 184 -178.5 479t181.5 487t464.5 192t461.5 -184t178.5 -479t-183 -487
t-464.5 -192t-460 184z" />
    <glyph glyph-name="Ocircumflex" unicode="&#xd4;" horiz-adv-x="1474" 
d="M946 1407l-201 260h-2l-202 -260h-123l235 383h181l235 -383h-123zM1074.5 1013q-131.5 142 -338.5 142t-336.5 -140.5t-129.5 -373.5q0 -234 131 -375t338 -141q208 0 337.5 142.5t129.5 373.5q0 230 -131.5 372zM272.5 153q-178.5 184 -178.5 479t181.5 487t464.5 192
t461.5 -184t178.5 -479t-183 -487t-464.5 -192t-460 184z" />
    <glyph glyph-name="Otilde" unicode="&#xd5;" horiz-adv-x="1474" 
d="M917.5 1544q43.5 0 61.5 127h115q-14 -131 -59.5 -194.5t-139.5 -63.5q-47 0 -91 22.5t-84 48t-75 48t-79 22.5t-62 -127h-113q14 133 59.5 197t139.5 64q47 0 91 -23t84 -49.5t74.5 -49t78 -22.5zM1074.5 1013q-131.5 142 -338.5 142t-336.5 -140.5t-129.5 -373.5
q0 -234 131 -375t338 -141q208 0 337.5 142.5t129.5 373.5q0 230 -131.5 372zM272.5 153q-178.5 184 -178.5 479t181.5 487t464.5 192t461.5 -184t178.5 -479t-183 -487t-464.5 -192t-460 184z" />
    <glyph glyph-name="Odieresis" unicode="&#xd6;" horiz-adv-x="1474" 
d="M657 1543q0 -52 -34.5 -90t-88.5 -38t-89 38t-35 90t34.5 90t88.5 38t89 -38t35 -90zM1075 1543q0 -52 -33.5 -90t-89 -38t-89.5 38t-34 90t34 90t89.5 38t89 -38t33.5 -90zM1074.5 1013q-131.5 142 -338.5 142t-336.5 -140.5t-129.5 -373.5q0 -234 131 -375t338 -141
q208 0 337.5 142.5t129.5 373.5q0 230 -131.5 372zM272.5 153q-178.5 184 -178.5 479t181.5 487t464.5 192t461.5 -184t178.5 -479t-183 -487t-464.5 -192t-460 184z" />
    <glyph glyph-name="multiply" unicode="&#xd7;" horiz-adv-x="991" 
d="M823 59l-321 326l-322 -326l-98 99l326 321l-326 322l98 98l322 -326l321 326l99 -98l-326 -322l326 -321z" />
    <glyph glyph-name="Oslash" unicode="&#xd8;" horiz-adv-x="1474" 
d="M740 125q213 0 341.5 141.5t128.5 370.5q0 267 -166 412l-507 -879q93 -45 203 -45zM748 1155q-212 0 -343 -141.5t-131 -368.5q0 -266 168 -414l508 879q-92 45 -202 45zM749 1311q147 0 281 -60l96 166h131l-127 -221q119 -86 187.5 -226t68.5 -304q0 -311 -182.5 -504
t-460.5 -193q-156 0 -286 60l-95 -166h-131l127 221q-121 86 -189.5 227t-68.5 305t47.5 287t133.5 214t203.5 142.5t264.5 51.5z" />
    <glyph glyph-name="Ugrave" unicode="&#xd9;" horiz-adv-x="1323" 
d="M639 1407l-299 371h205l217 -371h-123zM1163 494q0 -377 -188.5 -451t-312.5 -74q-241 0 -371.5 136.5t-130.5 369.5v805h172v-778q0 -174 83 -271.5t244 -97.5t246.5 88t85.5 268v791h172v-786z" />
    <glyph glyph-name="Uacute" unicode="&#xda;" horiz-adv-x="1323" 
d="M692 1407h-123l217 371h205zM1163 494q0 -377 -188.5 -451t-312.5 -74q-241 0 -371.5 136.5t-130.5 369.5v805h172v-778q0 -174 83 -271.5t244 -97.5t246.5 88t85.5 268v791h172v-786z" />
    <glyph glyph-name="Ucircumflex" unicode="&#xdb;" horiz-adv-x="1323" 
d="M868 1407l-200 260h-2l-203 -260h-123l235 383h181l235 -383h-123zM1163 494q0 -377 -188.5 -451t-312.5 -74q-241 0 -371.5 136.5t-130.5 369.5v805h172v-778q0 -174 83 -271.5t244 -97.5t246.5 88t85.5 268v791h172v-786z" />
    <glyph glyph-name="Udieresis" unicode="&#xdc;" horiz-adv-x="1323" 
d="M580 1543q0 -52 -35 -90t-89 -38t-89 38t-35 90t35 90t89 38t89 -38t35 -90zM997 1543q0 -52 -33.5 -90t-89 -38t-89 38t-33.5 90t33.5 90t89 38t89 -38t33.5 -90zM1163 494q0 -377 -188.5 -451t-312.5 -74q-241 0 -371.5 136.5t-130.5 369.5v805h172v-778
q0 -174 83 -271.5t244 -97.5t246.5 88t85.5 268v791h172v-786z" />
    <glyph glyph-name="Yacute" unicode="&#xdd;" horiz-adv-x="1105" 
d="M604 1407h-123l217 371h205zM641 0h-174v510l-447 770h197l340 -598l336 598h192l-444 -772v-508z" />
    <glyph glyph-name="Thorn" unicode="&#xde;" horiz-adv-x="1087" 
d="M848 649q0 260 -340 260h-172v-530l186 4q162 4 244 72.5t82 193.5zM336 0h-174v1280h174v-209h180q255 0 381.5 -112t126.5 -316q0 -203 -140.5 -312.5t-379.5 -113.5l-168 -2v-215z" />
    <glyph glyph-name="germandbls" unicode="&#xdf;" horiz-adv-x="1290" 
d="M1147 745q-125 70 -277 70q-68 0 -112.5 -29.5t-44.5 -75.5q0 -76 52 -104t134 -50q82 -23 133 -43.5t91 -52.5t65.5 -79t25.5 -146.5t-99 -183.5t-270 -84t-313 88l43 154q127 -88 293 -88q76 0 129.5 34.5t53.5 98.5q0 89 -35 100l-191 56q-122 37 -198 97t-76 183
t97 201t249 78q153 0 293 -70zM478 1268q-130 0 -130 -199v-1069h-168v784l-164 13l9 106l153 45l2 119q6 283 123 320.5t197 37.5t178 -45q0 -11 -14.5 -59.5t-20.5 -72.5l-6 -21q-96 41 -159 41z" />
    <glyph glyph-name="agrave" unicode="&#xe0;" horiz-adv-x="923" 
d="M391 1065l-299 371h205l217 -371h-123zM68 238q0 308 559 335v27q0 115 -48.5 164t-141.5 49q-174 0 -324 -104l-33 151q61 43 156.5 76t195.5 33q193 0 280 -86t83 -279v-393q0 -57 15 -74.5t77 -17.5l-10 -142q-203 -18 -244 123h-8q-110 -131 -250 -131t-223.5 76
t-83.5 193zM412 113q120 0 215 100v254q-209 -27 -295 -75t-86 -134q0 -63 44 -104t122 -41z" />
    <glyph glyph-name="aacute" unicode="&#xe1;" horiz-adv-x="923" 
d="M465 1065h-123l217 371h205zM68 238q0 308 559 335v27q0 115 -48.5 164t-141.5 49q-174 0 -324 -104l-33 151q61 43 156.5 76t195.5 33q193 0 280 -86t83 -279v-393q0 -57 15 -74.5t77 -17.5l-10 -142q-203 -18 -244 123h-8q-110 -131 -250 -131t-223.5 76t-83.5 193z
M412 113q120 0 215 100v254q-209 -27 -295 -75t-86 -134q0 -63 44 -104t122 -41z" />
    <glyph glyph-name="acircumflex" unicode="&#xe2;" horiz-adv-x="923" 
d="M641 1065l-201 260h-2l-202 -260h-123l235 383h180l236 -383h-123zM68 238q0 308 559 335v27q0 115 -48.5 164t-141.5 49q-174 0 -324 -104l-33 151q61 43 156.5 76t195.5 33q193 0 280 -86t83 -279v-393q0 -57 15 -74.5t77 -17.5l-10 -142q-203 -18 -244 123h-8
q-110 -131 -250 -131t-223.5 76t-83.5 193zM412 113q120 0 215 100v254q-209 -27 -295 -75t-86 -134q0 -63 44 -104t122 -41z" />
    <glyph glyph-name="atilde" unicode="&#xe3;" horiz-adv-x="923" 
d="M612.5 1202q43.5 0 61.5 127h114q-14 -131 -59 -194.5t-139 -63.5q-47 0 -91 22.5t-84 48t-75 48t-79 22.5t-62 -127h-113q14 133 59 197t140 64q47 0 91 -23t84 -49.5t74.5 -49t78 -22.5zM68 238q0 308 559 335v27q0 115 -48.5 164t-141.5 49q-174 0 -324 -104l-33 151
q61 43 156.5 76t195.5 33q193 0 280 -86t83 -279v-393q0 -57 15 -74.5t77 -17.5l-10 -142q-203 -18 -244 123h-8q-110 -131 -250 -131t-223.5 76t-83.5 193zM412 113q120 0 215 100v254q-209 -27 -295 -75t-86 -134q0 -63 44 -104t122 -41z" />
    <glyph glyph-name="adieresis" unicode="&#xe4;" horiz-adv-x="923" 
d="M352 1201q0 -52 -35 -90t-89 -38t-89 38t-35 90t35 90t89 38t89 -38t35 -90zM770 1201q0 -52 -34 -90t-89 -38t-89 38t-34 90t34 90t89 38t89 -38t34 -90zM68 238q0 308 559 335v27q0 115 -48.5 164t-141.5 49q-174 0 -324 -104l-33 151q61 43 156.5 76t195.5 33
q193 0 280 -86t83 -279v-393q0 -57 15 -74.5t77 -17.5l-10 -142q-203 -18 -244 123h-8q-110 -131 -250 -131t-223.5 76t-83.5 193zM412 113q120 0 215 100v254q-209 -27 -295 -75t-86 -134q0 -63 44 -104t122 -41z" />
    <glyph glyph-name="aring" unicode="&#xe5;" horiz-adv-x="923" 
d="M586 1294.5q0 55.5 -39 95.5t-108 40t-107.5 -40t-38.5 -95.5t39.5 -96.5t107.5 -41t107 41t39 96.5zM184 1292q0 92 67.5 159t186.5 67t185.5 -67t67.5 -160t-67.5 -157.5t-186.5 -64.5t-185.5 65.5t-67.5 157.5zM68 238q0 308 559 335v27q0 115 -48.5 164t-141.5 49
q-174 0 -324 -104l-33 151q61 43 156.5 76t195.5 33q193 0 280 -86t83 -279v-393q0 -57 15 -74.5t77 -17.5l-10 -142q-203 -18 -244 123h-8q-110 -131 -250 -131t-223.5 76t-83.5 193zM412 113q120 0 215 100v254q-209 -27 -295 -75t-86 -134q0 -63 44 -104t122 -41z" />
    <glyph glyph-name="ae" unicode="&#xe6;" horiz-adv-x="1544" 
d="M246 258q0 -63 45 -104t120 -41t148.5 39t118.5 96q-16 42 -23.5 121.5t-7.5 97.5q-219 -20 -310 -71.5t-91 -137.5zM1300 590q0 104 -51 167.5t-163 63.5t-183 -73.5t-84 -176.5l481 4v15zM80 860q155 109 380 109t302 -158q55 72 143 115t199 43q172 0 265 -99.5
t93 -267.5q0 -89 -20 -149h-125l-506 -4v-9q4 -137 89 -226t235 -89t266 78l31 -156q-126 -78 -316 -78q-129 0 -229.5 52.5t-161.5 140.5q-49 -76 -139 -134.5t-221 -58.5t-214 76t-83 193q0 221 204.5 275t374.5 60v21q0 127 -58.5 173t-151.5 46q-174 0 -324 -104z" />
    <glyph glyph-name="ccedilla" unicode="&#xe7;" horiz-adv-x="933" 
d="M614 -317q0 47 -58 68.5t-187 0.5l-17 86l135 133q-190 16 -296.5 151t-106.5 352t133 356t324 139q192 0 319 -80l-43 -154q-115 78 -260 78t-222 -91t-77 -253t81 -253t225 -91q145 0 259 78l31 -156q-109 -63 -246 -76l-114 -110q121 0 186 -45t65 -127t-77.5 -141.5
t-257.5 -82.5l-13 107q217 11 217 111z" />
    <glyph glyph-name="egrave" unicode="&#xe8;" horiz-adv-x="983" 
d="M477 1065l-299 371h205l217 -371h-123zM743 590q0 104 -51 167.5t-163 63.5t-183 -73.5t-84 -176.5l481 4v15zM874 47q-126 -78 -326 -78t-332 138t-132 356t131 362t318 144q186 0 279 -99.5t93 -267.5q0 -89 -20 -149h-125l-506 -4v-9q4 -137 89 -226t235 -89t266 78z
" />
    <glyph glyph-name="eacute" unicode="&#xe9;" horiz-adv-x="983" 
d="M551 1065h-123l217 371h205zM743 590q0 104 -51 167.5t-163 63.5t-183 -73.5t-84 -176.5l481 4v15zM874 47q-126 -78 -326 -78t-332 138t-132 356t131 362t318 144q186 0 279 -99.5t93 -267.5q0 -89 -20 -149h-125l-506 -4v-9q4 -137 89 -226t235 -89t266 78z" />
    <glyph glyph-name="ecircumflex" unicode="&#xea;" horiz-adv-x="983" 
d="M686 1065l-201 260h-2l-202 -260h-123l235 383h180l236 -383h-123zM743 590q0 104 -51 167.5t-163 63.5t-183 -73.5t-84 -176.5l481 4v15zM874 47q-126 -78 -326 -78t-332 138t-132 356t131 362t318 144q186 0 279 -99.5t93 -267.5q0 -89 -20 -149h-125l-506 -4v-9
q4 -137 89 -226t235 -89t266 78z" />
    <glyph glyph-name="edieresis" unicode="&#xeb;" horiz-adv-x="983" 
d="M408 1201q0 -52 -35 -90t-89 -38t-89 38t-35 90t35 90t89 38t89 -38t35 -90zM825 1201q0 -52 -33.5 -90t-89 -38t-89 38t-33.5 90t33.5 90t89 38t89 -38t33.5 -90zM743 590q0 104 -51 167.5t-163 63.5t-183 -73.5t-84 -176.5l481 4v15zM874 47q-126 -78 -326 -78
t-332 138t-132 356t131 362t318 144q186 0 279 -99.5t93 -267.5q0 -89 -20 -149h-125l-506 -4v-9q4 -137 89 -226t235 -89t266 78z" />
    <glyph glyph-name="igrave" unicode="&#xec;" horiz-adv-x="458" 
d="M188 1065l-299 371h205l217 -371h-123zM152 0v924l167 26v-950h-167z" />
    <glyph glyph-name="iacute" unicode="&#xed;" horiz-adv-x="458" 
d="M283 1065h-123l217 371h205zM152 0v924l167 26v-950h-167z" />
    <glyph glyph-name="icircumflex" unicode="&#xee;" horiz-adv-x="458" 
d="M438 1065l-200 260h-2l-203 -260h-123l235 383h181l235 -383h-123zM152 0v924l167 26v-950h-167z" />
    <glyph glyph-name="idieresis" unicode="&#xef;" horiz-adv-x="458" 
d="M150 1201q0 -52 -35 -90t-89 -38t-89 38t-35 90t35 90t89 38t89 -38t35 -90zM567 1201q0 -52 -33.5 -90t-89 -38t-89 38t-33.5 90t33.5 90t89 38t89 -38t33.5 -90zM152 0v924l167 26v-950h-167z" />
    <glyph glyph-name="eth" unicode="&#xf0;" horiz-adv-x="1093" 
d="M844 459q0 96 -37 178q-29 45 -106.5 73.5t-151.5 28.5q-131 0 -208 -80.5t-77 -225.5t81 -228.5t209 -83.5t209 87t81 251zM1010 498q0 -230 -120 -379.5t-334 -149.5t-343 128t-129 331q0 202 128 331.5t280 129.5q111 0 179 -39t120 -100l4 2q-34 99 -143 223.5
t-152 167.5l-211 -58l-29 113l143 39q-99 94 -161 143l190 45q116 -99 154 -137l211 55l28 -112l-147 -39q147 -164 239.5 -342t92.5 -352z" />
    <glyph glyph-name="ntilde" unicode="&#xf1;" horiz-adv-x="1058" 
d="M709 1202q43 0 61 127h115q-14 -131 -59.5 -194.5t-139.5 -63.5q-47 0 -91 22.5t-84 48t-75 48t-79 22.5t-62 -127h-113q14 133 59.5 197t139.5 64q47 0 91 -23t84 -49.5t75 -49t78 -22.5zM608 969q153 0 233.5 -85t80.5 -239v-645h-168v590q0 123 -47.5 170t-134.5 47
q-149 0 -259 -102v-705h-168v942l168 27v-142q142 142 295 142z" />
    <glyph glyph-name="ograve" unicode="&#xf2;" horiz-adv-x="1081" 
d="M541 1065l-299 371h204l218 -371h-123zM831 467q0 76 -19 140.5t-57 111.5t-92.5 73.5t-124 26.5t-124 -25.5t-91 -71.5t-55 -110.5t-18.5 -140.5t19.5 -139.5t57.5 -110.5t92 -73.5t123.5 -26.5t124 25.5t91.5 71.5t55 109.5t18 139.5zM867 107q-130 -138 -330 -138
q-201 0 -327 137.5t-126 360.5t129 363.5t332 140.5t327.5 -137.5t124.5 -362.5q0 -226 -130 -364z" />
    <glyph glyph-name="oacute" unicode="&#xf3;" horiz-adv-x="1081" 
d="M553 1065h-123l217 371h205zM831 467q0 76 -19 140.5t-57 111.5t-92.5 73.5t-124 26.5t-124 -25.5t-91 -71.5t-55 -110.5t-18.5 -140.5t19.5 -139.5t57.5 -110.5t92 -73.5t123.5 -26.5t124 25.5t91.5 71.5t55 109.5t18 139.5zM867 107q-130 -138 -330 -138
q-201 0 -327 137.5t-126 360.5t129 363.5t332 140.5t327.5 -137.5t124.5 -362.5q0 -226 -130 -364z" />
    <glyph glyph-name="ocircumflex" unicode="&#xf4;" horiz-adv-x="1081" 
d="M750 1065l-201 260h-2l-203 -260h-123l236 383h180l235 -383h-122zM831 467q0 76 -19 140.5t-57 111.5t-92.5 73.5t-124 26.5t-124 -25.5t-91 -71.5t-55 -110.5t-18.5 -140.5t19.5 -139.5t57.5 -110.5t92 -73.5t123.5 -26.5t124 25.5t91.5 71.5t55 109.5t18 139.5z
M867 107q-130 -138 -330 -138q-201 0 -327 137.5t-126 360.5t129 363.5t332 140.5t327.5 -137.5t124.5 -362.5q0 -226 -130 -364z" />
    <glyph glyph-name="otilde" unicode="&#xf5;" horiz-adv-x="1081" 
d="M721 1202q43 0 61 127h115q-14 -131 -59 -194.5t-140 -63.5q-47 0 -91 22.5t-84 48t-74.5 48t-79 22.5t-62.5 -127h-112q14 133 59 197t139 64q47 0 91 -23t84 -49.5t75 -49t78 -22.5zM831 467q0 76 -19 140.5t-57 111.5t-92.5 73.5t-124 26.5t-124 -25.5t-91 -71.5
t-55 -110.5t-18.5 -140.5t19.5 -139.5t57.5 -110.5t92 -73.5t123.5 -26.5t124 25.5t91.5 71.5t55 109.5t18 139.5zM867 107q-130 -138 -330 -138q-201 0 -327 137.5t-126 360.5t129 363.5t332 140.5t327.5 -137.5t124.5 -362.5q0 -226 -130 -364z" />
    <glyph glyph-name="odieresis" unicode="&#xf6;" horiz-adv-x="1081" 
d="M461 1201q0 -52 -35 -90t-89 -38t-89 38t-35 90t35 90t89 38t89 -38t35 -90zM879 1201q0 -52 -34 -90t-89.5 -38t-89 38t-33.5 90t33.5 90t89 38t89.5 -38t34 -90zM831 467q0 76 -19 140.5t-57 111.5t-92.5 73.5t-124 26.5t-124 -25.5t-91 -71.5t-55 -110.5t-18.5 -140.5
t19.5 -139.5t57.5 -110.5t92 -73.5t123.5 -26.5t124 25.5t91.5 71.5t55 109.5t18 139.5zM867 107q-130 -138 -330 -138q-201 0 -327 137.5t-126 360.5t129 363.5t332 140.5t327.5 -137.5t124.5 -362.5q0 -226 -130 -364z" />
    <glyph glyph-name="divide" unicode="&#xf7;" horiz-adv-x="991" 
d="M637 792.5q0 -53.5 -40 -93.5t-99.5 -40t-97.5 40t-38 93.5t38 95.5t97.5 42t99.5 -42t40 -95.5zM637 168q0 -53 -38 -95t-97.5 -42t-99.5 42t-40 95t40 93t99.5 40t97.5 -40t38 -93zM82 408l6 145h819l6 -145h-831z" />
    <glyph glyph-name="oslash" unicode="&#xf8;" horiz-adv-x="1081" 
d="M838 470q0 160 -76 255l-334 -582q55 -23 123 -23q135 1 211 95.5t76 254.5zM256 468q0 -162 76 -255l336 582q-51 25 -122 25q-138 -1 -214 -95.5t-76 -256.5zM1004 469q0 -222 -130.5 -361t-330.5 -139q-102 0 -193 39l-84 -145h-135q121 209 119 209
q-160 139 -160 397q0 221 130 361.5t333 140.5q102 0 192 -39l84 145h136l-121 -209q160 -139 160 -399z" />
    <glyph glyph-name="ugrave" unicode="&#xf9;" horiz-adv-x="1058" 
d="M508 1065l-299 371h205l217 -371h-123zM430 -31q-135 0 -214 85t-79 239v645h168v-590q0 -123 46 -170t133 -47t154 32t107 70v705h168v-942l-168 -27v137q-137 -137 -315 -137z" />
    <glyph glyph-name="uacute" unicode="&#xfa;" horiz-adv-x="1058" 
d="M561 1065h-123l217 371h205zM430 -31q-135 0 -214 85t-79 239v645h168v-590q0 -123 46 -170t133 -47t154 32t107 70v705h168v-942l-168 -27v137q-137 -137 -315 -137z" />
    <glyph glyph-name="ucircumflex" unicode="&#xfb;" horiz-adv-x="1058" 
d="M737 1065l-200 260h-2l-203 -260h-123l235 383h181l235 -383h-123zM430 -31q-135 0 -214 85t-79 239v645h168v-590q0 -123 46 -170t133 -47t154 32t107 70v705h168v-942l-168 -27v137q-137 -137 -315 -137z" />
    <glyph glyph-name="udieresis" unicode="&#xfc;" horiz-adv-x="1058" 
d="M438 1201q0 -52 -35 -90t-89 -38t-89 38t-35 90t35 90t89 38t89 -38t35 -90zM856 1201q0 -52 -34 -90t-89 -38t-89 38t-34 90t34 90t89 38t89 -38t34 -90zM430 -31q-135 0 -214 85t-79 239v645h168v-590q0 -123 46 -170t133 -47t154 32t107 70v705h168v-942l-168 -27v137
q-137 -137 -315 -137z" />
    <glyph glyph-name="yacute" unicode="&#xfd;" horiz-adv-x="903" 
d="M504 1065h-123l217 371h205zM116 -328q42 0 64.5 8.5t53 42t77.5 152.5l58 145l-365 918h180l273 -729l264 729h178l-375 -948l-63 -168q-91 -248 -183 -278.5t-168 -30.5t-178 49l50 155q92 -45 134 -45z" />
    <glyph glyph-name="thorn" unicode="&#xfe;" horiz-adv-x="1064" 
d="M544 813q-128 0 -231 -90v-535q84 -68 216 -68t211 99.5t79 252.5t-73.5 247t-201.5 94zM514 -31q-107 0 -201 25v-498h-168v1884l168 27v-545q133 107 244 107q110 0 190 -38t134.5 -104.5t83 -156.5t28.5 -196.5t-34.5 -199t-98 -160t-151.5 -106.5t-195 -39z" />
    <glyph glyph-name="ydieresis" unicode="&#xff;" horiz-adv-x="903" 
d="M371 1201q0 -52 -35 -90t-89 -38t-89 38t-35 90t35 90t89 38t89 -38t35 -90zM788 1201q0 -52 -33.5 -90t-89 -38t-89 38t-33.5 90t33.5 90t89 38t89 -38t33.5 -90zM116 -328q42 0 64.5 8.5t53 42t77.5 152.5l58 145l-365 918h180l273 -729l264 729h178l-375 -948
l-63 -168q-91 -248 -183 -278.5t-168 -30.5t-178 49l50 155q92 -45 134 -45z" />
    <glyph glyph-name="dotlessi" unicode="&#x131;" horiz-adv-x="458" 
d="M152 0v924l167 26v-950h-167z" />
    <glyph glyph-name="Lslash" unicode="&#x141;" horiz-adv-x="1046" 
d="M381 168h618v-168h-790v502l-172 -45v149l172 47v627h172v-582l319 86v-149l-319 -86v-381z" />
    <glyph glyph-name="lslash" unicode="&#x142;" horiz-adv-x="534" 
d="M360 700q0 2 27 8.5t61 16.5t84 23v-156l-172 -47v-545h-167v500l-173 -45v155l173 45v725l167 27v-707z" />
    <glyph glyph-name="OE" unicode="&#x152;" horiz-adv-x="1888" 
d="M274 643q0 -238 134.5 -359.5t377.5 -121.5h203v956h-211q-359 0 -431.5 -179t-72.5 -296zM1800 1118h-637v-395h531v-162h-531v-399h637v-162h-1022q-314 0 -496 172t-182 467t182 468t504 173h1014v-162z" />
    <glyph glyph-name="oe" unicode="&#x153;" horiz-adv-x="1740" 
d="M1344 -31q-298 0 -429 211q-59 -100 -156 -155.5t-209 -55.5t-196 36t-143 100.5t-93 157.5t-34 260t129 307.5t334 140.5q257 0 375 -215q61 100 160.5 156.5t222.5 56.5q172 0 265 -99.5t93 -267.5q0 -92 -21 -149h-125l-505 -4v-9q4 -137 89 -226t235 -89t266 78
l30 -156q-126 -78 -288 -78zM250 471q0 -76 19.5 -139.5t57.5 -110.5t92 -73.5t123.5 -26.5t124 25.5t91.5 71.5t55 109.5t18 139.5t-19 140.5t-57 111.5t-92.5 73.5t-124 26.5t-124 -25.5t-91 -71.5t-55 -110.5t-18.5 -140.5zM1501 590q0 104 -51 167.5t-163 63.5
t-183 -73.5t-84 -176.5l481 4v15z" />
    <glyph glyph-name="Scaron" unicode="&#x160;" horiz-adv-x="1042" 
d="M616 1407h-180l-235 383h123l200 -260h2l203 260h123zM544 1153q-159 0 -219.5 -55.5t-60.5 -143.5t80 -134t190 -76t264 -93t154 -299q0 -167 -126 -275t-344 -108q-219 0 -408 121l57 158q82 -53 172 -88t208 -35t195.5 59.5t77.5 156.5t-74.5 145.5t-187.5 77.5
t-181.5 55t-157.5 95.5t-89 232.5t118 263.5t324 100.5q207 0 390 -113l-62 -151q-161 106 -320 106z" />
    <glyph glyph-name="scaron" unicode="&#x161;" horiz-adv-x="821" 
d="M506 1065h-180l-236 383h123l201 -260h2l202 260h123zM678 745q-124 70 -276 70q-68 0 -113 -29.5t-45 -75.5q0 -76 52 -104t134 -50q82 -23 133 -43.5t91 -52.5t65.5 -79t25.5 -146.5t-99 -183.5t-270 -84t-313 88l43 154q128 -88 294 -88q76 0 129 34.5t53 98.5
q0 89 -35 100l-191 56q-122 37 -198 97t-76 183t97 201t249 78q153 0 293 -70z" />
    <glyph glyph-name="Ydieresis" unicode="&#x178;" horiz-adv-x="1105" 
d="M471 1543q0 -52 -35 -90t-89 -38t-89 38t-35 90t35 90t89 38t89 -38t35 -90zM889 1543q0 -52 -34 -90t-89 -38t-89 38t-34 90t34 90t89 38t89 -38t34 -90zM641 0h-174v510l-447 770h197l340 -598l336 598h192l-444 -772v-508z" />
    <glyph glyph-name="Zcaron" unicode="&#x17d;" horiz-adv-x="1067" 
d="M602 1407h-180l-236 383h123l201 -260h2l203 260h123zM47 0v131l725 987h-713v162h930v-135l-723 -983h721v-162h-940z" />
    <glyph glyph-name="zcaron" unicode="&#x17e;" horiz-adv-x="839" 
d="M496 1065h-181l-235 383h123l200 -260h3l202 260h123zM43 0v143l545 641h-527v154h730v-139l-545 -645h545v-154h-748z" />
    <glyph glyph-name="florin" unicode="&#x192;" horiz-adv-x="729" 
d="M609 1135q-58 0 -90 -35t-50 -129l-27 -142h244l-22 -151h-250l-78 -406q-27 -137 -104.5 -211.5t-225.5 -97.5l-39 154q182 19 211 170l74 389l-223 12l28 107l226 45l30 149q29 145 95.5 224t193.5 79t221 -71q-15 -39 -35 -72l-36 -70q-85 56 -143 56z" />
    <glyph glyph-name="circumflex" unicode="&#x2c6;" 
d="M612 1065l-200 260h-2l-203 -260h-123l235 383h181l235 -383h-123z" />
    <glyph glyph-name="caron" unicode="&#x2c7;" 
d="M500 1065h-181l-235 383h123l201 -260h2l202 260h123z" />
    <glyph glyph-name="breve" unicode="&#x2d8;" 
d="M375 1063q-108 0 -190 105.5t-103 277.5h137q49 -250 158 -250t157.5 70.5t65.5 179.5h137q-33 -270 -143.5 -326.5t-218.5 -56.5z" />
    <glyph glyph-name="dotaccent" unicode="&#x2d9;" 
d="M526 1199q0 -50 -32.5 -87t-86 -37t-85 37t-31.5 87t31.5 87t85 37t86 -37t32.5 -87z" />
    <glyph glyph-name="ring" unicode="&#x2da;" 
d="M557 1294.5q0 55.5 -39.5 95.5t-107.5 40t-107 -40t-39 -95.5t39 -96.5t108 -41t107.5 41t38.5 96.5zM156 1292q0 92 67.5 159t186 67t185.5 -67t68 -160t-68.5 -157.5t-186.5 -64.5t-184.5 65.5t-67.5 157.5z" />
    <glyph glyph-name="ogonek" unicode="&#x2db;" 
d="M405 -524q-110 0 -177.5 61.5t-67.5 164.5t97 206.5t271 150.5h148q-182 -73 -281.5 -170t-99.5 -182q0 -53 33.5 -85t104.5 -32t175 64l17 -107q-110 -71 -220 -71z" />
    <glyph glyph-name="tilde" unicode="&#x2dc;" 
d="M584 1202q43 0 61 127h115q-14 -131 -59.5 -194.5t-139.5 -63.5q-47 0 -91 22.5t-84 48t-75 48t-79 22.5t-62 -127h-113q14 133 59.5 197t139.5 64q47 0 91 -23t84 -49.5t75 -49t78 -22.5z" />
    <glyph glyph-name="hungarumlaut" unicode="&#x2dd;" 
d="M289 1065h-144l228 362h170zM623 1065h-146l275 362h172z" />
    <glyph glyph-name="endash" unicode="&#x2013;" horiz-adv-x="944" 
d="M61 424l7 121h813l6 -121h-826z" />
    <glyph glyph-name="emdash" unicode="&#x2014;" horiz-adv-x="1906" 
d="M61 424l7 121h1775l6 -121h-1788z" />
    <glyph glyph-name="quoteleft" unicode="&#x2018;" horiz-adv-x="450" 
d="M221 1032q0 -39 31 -67.5t115 -67.5q-6 -49 -40.5 -85t-82.5 -36q-82 0 -136.5 55t-54.5 125q0 125 85 221.5t220 184.5l70 -70q-207 -152 -207 -260z" />
    <glyph glyph-name="quoteright" unicode="&#x2019;" horiz-adv-x="450" 
d="M342 1312.5q55 -53.5 55 -124.5q0 -125 -87 -225.5t-216 -182.5l-71 70q209 152 208 260q0 39 -31.5 67.5t-115.5 67.5q6 49 40 85t99 36q64 0 119 -53.5z" />
    <glyph glyph-name="quotesinglbase" unicode="&#x201a;" horiz-adv-x="450" 
d="M206 268q83 0 137 -54t54 -124q0 -125 -88.5 -226.5t-214.5 -180.5l-71 69q209 152 208 260q0 39 -31.5 67.5t-115.5 67.5q6 49 40 85t82 36z" />
    <glyph glyph-name="quotedblleft" unicode="&#x201c;" horiz-adv-x="888" 
d="M221 1032q0 -39 31 -67.5t115 -67.5q-6 -49 -40.5 -85t-82.5 -36q-82 0 -136.5 55t-54.5 125q0 125 85 221.5t220 184.5l70 -70q-207 -152 -207 -260zM659 1032q0 -39 31 -67.5t115 -67.5q-6 -49 -40 -85t-82 -36q-83 0 -137 54t-54 125q0 126 86.5 224.5t218.5 182.5
l69 -70q-207 -152 -207 -260z" />
    <glyph glyph-name="quotedblright" unicode="&#x201d;" horiz-adv-x="888" 
d="M342 1312.5q55 -53.5 55 -124.5q0 -125 -87 -225.5t-216 -182.5l-71 70q209 152 208 260q0 39 -31.5 67.5t-115.5 67.5q6 49 40 85t99 36q64 0 119 -53.5zM782 1311.5q54 -54.5 54 -124.5q0 -123 -87.5 -224t-216.5 -183l-71 70q209 152 209 260q0 39 -32 67.5t-116 67.5
q6 49 40 85t100 36t120 -54.5z" />
    <glyph glyph-name="quotedblbase" unicode="&#x201e;" horiz-adv-x="860" 
d="M206 268q83 0 137 -54t54 -124q0 -125 -88.5 -226.5t-214.5 -180.5l-71 69q209 152 208 260q0 39 -31.5 67.5t-115.5 67.5q6 49 40 85t82 36zM644 268q84 0 138 -55t54 -124q0 -123 -89 -225t-215 -181l-71 69q209 152 209 260q0 39 -32 67.5t-116 67.5q6 49 40 85t82 36
z" />
    <glyph glyph-name="dagger" unicode="&#x2020;" horiz-adv-x="948" 
d="M412 905v375h123v-375h348l-6 -114h-342v-1049h-123v1049h-340l-6 114h346z" />
    <glyph glyph-name="daggerdbl" unicode="&#x2021;" horiz-adv-x="948" 
d="M412 936v344h123v-344h348l-6 -115h-342v-622h342l6 -115h-348v-342h-123v342h-346l6 115h340v622h-340l-6 115h346z" />
    <glyph glyph-name="bullet" unicode="&#x2022;" horiz-adv-x="919" 
d="M812 330q-42 -106 -64 -127q-43 -41 -143.5 -82t-132.5 -41q-57 0 -156.5 40.5t-123.5 65.5t-44.5 63t-39 81t-30.5 83t-12 74.5t43 134.5t66 124q37 39 139.5 80.5t135.5 41.5q54 0 159 -42.5t130 -71.5q48 -42 81.5 -149t33.5 -138t-42 -137z" />
    <glyph glyph-name="ellipsis" unicode="&#x2026;" horiz-adv-x="1376" 
d="M358 102.5q0 -53.5 -36 -93.5t-94 -40t-95 40t-37 93.5t37 91t95 37.5t94 -37.5t36 -91zM821 102.5q0 -53.5 -35.5 -93.5t-93.5 -40t-96.5 40t-38.5 93.5t38 91t96 37.5t94 -37.5t36 -91zM1284 102.5q0 -53.5 -36 -93.5t-94 -40t-96 40t-38 93.5t38 91t96 37.5t94 -37.5
t36 -91z" />
    <glyph glyph-name="perthousand" unicode="&#x2030;" horiz-adv-x="2293" 
d="M1696 290q0 -97 60.5 -166t169 -69t168.5 69t60 166t-62 164.5t-167 67.5t-167 -67.5t-62 -164.5zM2171 46.5q-94 -97.5 -246 -97.5t-246 97.5t-94 241.5q0 143 94.5 242t245.5 99t245.5 -98.5t94.5 -242.5t-94 -241.5zM1147 522q-105 0 -167 -67t-62 -165q0 -97 60 -166
t168.5 -69t169 69t60.5 166t-62 164.5t-167 67.5zM368.5 1223q-108.5 0 -169 -69t-60.5 -165t62 -164.5t167.5 -68.5t167.5 68t62 165q0 96 -60.5 165t-169 69zM1393 46.5q-94 -97.5 -246 -97.5t-246 97.5t-94 241.5q0 143 94.5 242t245.5 99t245.5 -98.5t94.5 -242.5
t-94 -241.5zM313 -31h-129l1020 1340h129zM614 747.5q-95 -98.5 -246 -98.5t-245 98.5t-94 242.5q0 143 94 241t245 98q152 0 246.5 -97.5t94.5 -241.5t-95 -242.5z" />
    <glyph glyph-name="guilsinglleft" unicode="&#x2039;" horiz-adv-x="700" 
d="M598 51l-537 332v192l537 332l16 -123l-409 -303v-4l409 -303z" />
    <glyph glyph-name="guilsinglright" unicode="&#x203a;" horiz-adv-x="700" 
d="M102 51l-16 123l410 303v4l-410 303l16 123l537 -332v-192z" />
    <glyph glyph-name="fraction" unicode="&#x2044;" horiz-adv-x="1177" 
d="M141 -31h-127l1024 1340h125z" />
    <glyph glyph-name="Euro" unicode="&#x20ac;" horiz-adv-x="1028" 
d="M211 638q0 60 4 118h-147l-7 112h170q44 226 166.5 334.5t303.5 108.5t309 -78l-41 -150q-115 76 -252 76q-138 0 -211.5 -70.5t-104.5 -220.5h465l-6 -112h-473q-4 -50 -4 -112t6 -116h410l6 -112h-399q35 -154 109.5 -224.5t178.5 -70.5q164 0 281 76l29 -152
q-127 -76 -314 -76q-394 0 -463 447h-166l7 112h147q-4 50 -4 110z" />
    <glyph glyph-name="trademark" unicode="&#x2122;" horiz-adv-x="1943" 
d="M502 1157v-641h-129v641h-285v125h721v-125h-307zM1636 516l2 625h-22l-217 -602h-144l-190 600h-23l-10 -623h-119l15 766h233l164 -592h23l188 592h221l10 -766h-131z" />
    <glyph glyph-name="minus" unicode="&#x2212;" horiz-adv-x="991" 
d="M82 408l6 145h819l6 -145h-831z" />
    <glyph glyph-name="apple" unicode="&#xf8ff;" horiz-adv-x="1552" 
d="M1087 602l103 285l-285 -103l-129 273l-129 -273l-285 103l105 -285l-274 -129l274 -129l-105 -283l285 105l127 -277l131 277l285 -105l-103 287l271 127zM1194 303l141 -387l-387 141l-174 -370l-172 368l-383 -139l139 383l-370 176l370 170l-139 387l383 -141
l176 371l170 -371l387 141l-141 -387l369 -168z" />
    <glyph glyph-name="ff" unicode="&#xfb00;" horiz-adv-x="1314" 
d="M1016 1069v-131h297l-6 -152h-291v-786h-168v786h-500v-786h-168v784l-164 13l9 106l153 45l2 99q7 358 309 358q91 0 189 -45q0 -10 -14.5 -59.5t-20.5 -72.5l-6 -22q-97 41 -159 41q-130 0 -130 -198v-111h498l2 129q7 358 309 358q96 0 189 -45q0 -5 -14.5 -56.5
t-20.5 -75.5l-6 -21q-97 41 -159 41q-130 0 -130 -199z" />
    <glyph glyph-name="fi" unicode="&#xfb01;" horiz-adv-x="1099" 
d="M478 1268q-130 0 -130 -199v-131h445l168 31v-969h-168v786h-445v-786h-168v784l-164 13l9 106l153 45l2 119q7 358 309 358q96 0 189 -45q0 -11 -14.5 -59.5t-20.5 -72.5l-6 -21q-96 41 -159 41z" />
    <glyph glyph-name="fl" unicode="&#xfb02;" horiz-adv-x="1105" 
d="M793 0v1380l168 27v-1407h-168zM478 1268q-130 0 -130 -199v-131h297l-6 -152h-291v-786h-168v784l-164 13l9 106l153 45l2 119q7 358 309 358q91 0 189 -45q0 -11 -14.5 -59.5t-20.5 -72.5l-6 -21q-96 41 -159 41z" />
    <glyph glyph-name="ffi" unicode="&#xfb03;" horiz-adv-x="1767" 
d="M1016 1069v-131h444l168 31v-969h-168v786h-444v-786h-168v786h-500v-786h-168v784l-164 13l9 106l153 45l2 99q7 358 309 358q91 0 189 -45q0 -10 -14.5 -59.5t-20.5 -72.5l-6 -22q-97 41 -159 41q-130 0 -130 -198v-111h498l2 129q7 358 309 358q96 0 189 -45
q0 -5 -14.5 -56.5t-20.5 -75.5l-6 -21q-97 41 -159 41q-130 0 -130 -199z" />
    <glyph glyph-name="ffl" unicode="&#xfb04;" horiz-adv-x="1773" 
d="M1016 1069v-131h297l-6 -152h-291v-786h-168v786h-500v-786h-168v784l-164 13l9 106l153 45l2 99q7 358 309 358q91 0 189 -45q0 -10 -14.5 -59.5t-20.5 -72.5l-6 -22q-97 41 -159 41q-130 0 -130 -198v-111h498l2 129q7 358 309 358q96 0 189 -45q0 -5 -14.5 -56.5
t-20.5 -75.5l-6 -21q-97 41 -159 41q-130 0 -130 -199zM1460 0v1380l168 27v-1407h-168z" />
    </font>
</defs>
</svg>
